<svg width="168" height="43" viewBox="0 0 168 43" fill="none" xmlns="http://www.w3.org/2000/svg">
<g clip-path="url(#clip0)">
<path d="M45.7212 11.067C42.7869 11.067 41.3464 13.18 41.3464 16.059C41.3464 19.0436 42.7335 21.1302 45.7212 21.1302C48.6821 21.1302 50.0959 19.0436 50.0959 16.059C50.0959 13.18 48.6287 11.067 45.7212 11.067ZM45.7212 19.1493C44.9476 19.1493 44.6008 18.4625 44.6008 16.0326C44.6008 13.8139 44.8409 12.9951 45.7212 12.9951C46.6014 12.9951 46.8415 13.8139 46.8415 16.0326C46.8415 18.4625 46.4947 19.1493 45.7212 19.1493Z" fill="#0368B1"/>
<path d="M52.0966 10.2481V11.3047H50.8162V13.4969H52.0966V20.8925H55.2176V13.4969H56.9248V11.3047H55.2176V10.3274C55.2176 9.7463 55.511 9.42935 56.3379 9.42935C56.5246 9.42935 56.738 9.45576 56.9248 9.50859V7.13144C56.4179 7.07861 55.9645 7.02579 55.3509 7.02579C53.2969 7.02579 52.0966 7.89741 52.0966 10.2481Z" fill="#0368B1"/>
<path d="M18.6992 13.9988C18.6992 11.8858 16.7519 11.067 14.858 11.067C13.0708 11.067 11.3369 11.8329 10.9901 13.7346L13.711 14.2893C13.7376 13.7346 13.9777 13.0215 14.7246 13.0215C15.2581 13.0215 15.5249 13.3913 15.5249 13.9724V14.7912C13.4709 15.0289 10.59 15.7684 10.5366 18.2512C10.4833 20.0209 11.6837 21.051 13.2308 21.051C14.1378 21.051 15.0714 20.5491 15.6049 19.9945C15.6316 20.153 15.6316 20.602 15.7116 20.8661H18.9393C18.8326 20.734 18.6459 20.4171 18.6459 19.3342V13.9988H18.6992ZM15.5782 18.4625C15.3115 18.8059 14.938 19.07 14.5646 19.07C14.0044 19.07 13.6576 18.7267 13.6576 18.0399C13.6576 16.8249 14.4845 16.4023 15.5782 16.2967V18.4625V18.4625Z" fill="#0368B1"/>
<path d="M26.3817 11.067C25.1546 11.067 24.301 11.6216 23.6608 12.2819H23.6341V11.3047H20.5398V20.8925H23.6608V14.0252C23.9542 13.6554 24.3277 13.4441 24.6744 13.4441C25.2079 13.4441 25.3947 13.7346 25.3947 14.2893V20.8925H28.5423V13.312C28.5423 11.9914 27.7421 11.067 26.3817 11.067Z" fill="#0368B1"/>
<path d="M39.0791 11.3047H35.9581L33.6641 14.2101H33.6107V7.28992H30.4897V20.8925H33.6107V17.4588L34.2776 16.7193H34.3043L35.8514 20.8925H39.1058L36.465 14.2629L39.0791 11.3047Z" fill="#0368B1"/>
<path d="M7.22896 13.8139V13.7082C8.21594 13.312 9.46967 12.3876 9.46967 10.6179C9.46967 8.74262 7.86917 7.28992 5.44173 7.28992H0V20.8925H5.30835C7.92252 20.8925 9.81645 19.5719 9.81645 17.2475C9.81645 15.5043 8.72277 14.3157 7.22896 13.8139ZM3.38774 9.69348H4.6148C5.41505 9.69348 6.29533 9.90478 6.29533 11.199C6.29533 11.9914 5.7885 12.6781 4.53477 12.6781H3.38774V9.69348ZM4.66815 18.3833H3.38774V14.976H4.66815C5.7885 14.976 6.42871 15.6364 6.42871 16.6665C6.40203 18.0399 5.41505 18.3833 4.66815 18.3833Z" fill="#0368B1"/>
<path d="M123.586 19.3606V13.9988C123.586 11.8858 121.639 11.067 119.745 11.067C117.957 11.067 116.224 11.8329 115.877 13.7346L118.598 14.2893C118.624 13.7346 118.864 13.0215 119.638 13.0215C120.171 13.0215 120.438 13.3913 120.438 13.9724V14.7912C118.358 15.0289 115.503 15.7684 115.45 18.2512C115.397 20.0209 116.597 21.051 118.144 21.051C119.078 21.051 119.985 20.5491 120.518 19.9945C120.545 20.153 120.545 20.602 120.625 20.8661H123.853C123.746 20.7604 123.586 20.4435 123.586 19.3606ZM120.438 18.4625C120.171 18.8059 119.798 19.07 119.425 19.07C118.864 19.07 118.518 18.7267 118.518 18.0399C118.518 16.8249 119.345 16.4023 120.438 16.2967V18.4625Z" fill="#0368B1"/>
<path d="M89.4151 11.067C86.5342 11.067 85.0938 13.3649 85.0938 16.059C85.0938 18.7002 86.4542 21.1038 89.4418 21.1038C92.2427 21.1038 93.203 18.938 93.3364 18.4889L91.229 17.723C91.069 18.4889 90.4288 19.0436 89.6819 19.0436C88.4281 19.0436 88.1881 17.6173 88.2414 16.7721H93.4697V16.1118C93.4697 13.629 92.4294 11.067 89.4151 11.067ZM90.5622 14.9232H88.2147C88.1614 14.0252 88.4815 12.9951 89.3618 12.9951C90.4821 12.9951 90.6155 14.0516 90.5622 14.9232Z" fill="#0368B1"/>
<path d="M101.926 20.8925H103.606H105.047V11.3047H101.926V20.8925Z" fill="#0368B1"/>
<path d="M101.926 10.0368H105.047V7.28992H103.446H101.926V10.0368Z" fill="#0368B1"/>
<path d="M110.942 12.9951C111.449 12.9951 111.689 13.2592 111.849 13.6554C111.982 14.0252 112.009 14.4742 112.009 14.8704H114.676C114.676 13.9195 114.17 11.067 110.862 11.067C107.901 11.067 106.434 13.6818 106.434 16.2967C106.434 18.6738 107.901 21.1038 110.729 21.1038C112.996 21.1038 114.356 19.8888 114.596 17.5645L112.169 17.2211C112.169 17.9343 112.062 19.0436 110.969 19.0436C110.168 19.0436 109.822 18.3305 109.822 16.1646C109.795 14.2629 109.902 12.9951 110.942 12.9951Z" fill="#0368B1"/>
<path d="M62.3932 7.28992L59.1655 20.8925H62.1798L62.7667 18.1456H65.9677L66.5012 20.8925H69.8889L66.9547 7.28992H62.3932V7.28992ZM63.2735 15.742L64.4205 10.1953H64.5006L65.4875 15.742H63.2735Z" fill="#0368B1"/>
<path d="M97.871 12.5989H97.8176L97.791 11.3047H94.75V20.8925H97.8977V14.6855C98.2711 14.2629 98.8046 13.9459 99.6049 13.9459C100.138 13.9459 100.539 14.078 100.885 14.2101V11.067C99.6849 11.067 98.5112 11.5952 97.871 12.5989Z" fill="#0368B1"/>
<path d="M81.5458 11.067C80.2387 11.067 79.3051 11.7537 78.7449 12.3612H78.6915C78.3981 11.6216 77.7579 11.067 76.8243 11.067C75.6506 11.067 74.6636 11.6744 74.0234 12.2819H73.97L73.9434 11.3047H70.8757V20.8925H73.9434V14.0516C74.2101 13.7082 74.6903 13.4705 75.0104 13.4705C75.5972 13.4705 75.7573 13.8139 75.7573 14.3421V20.9189H78.8249V14.0516C79.0383 13.7875 79.4651 13.4705 79.8919 13.4705C80.4521 13.4705 80.6121 13.8139 80.6121 14.3421V20.9189H83.6798V13.2592C83.7331 11.9386 82.8528 11.067 81.5458 11.067Z" fill="#0368B1"/>
<path d="M0 26.492H4.88155L6.37536 34.1253H6.42871L8.18927 26.492H12.9374V40.121H9.443V30.0578H9.41632L7.01556 40.121H4.90822L2.72086 29.7144H2.66751V40.121H0V26.492Z" fill="#0368B1"/>
<path d="M17.2587 36.0006C17.2587 36.8458 17.4455 38.2721 18.6725 38.2721C19.4194 38.2721 20.0596 37.7439 20.273 36.9515L22.3804 37.7174C22.247 38.1665 21.2867 40.3323 18.4858 40.3323C15.4715 40.3323 14.1111 37.9288 14.1111 35.2875C14.1111 32.567 15.5515 30.269 18.4325 30.269C21.4467 30.269 22.5138 32.8311 22.5138 35.3403V36.0006H17.2587ZM19.6062 34.1517C19.5795 33.2537 19.4995 32.2236 18.4325 32.2236C17.5522 32.2236 17.2587 33.2537 17.2587 34.1517H19.6062Z" fill="#0368B1"/>
<path d="M23.6343 30.5068H26.7286V31.9595H26.7553C27.1287 30.7445 28.5425 30.269 29.7696 30.269V33.4122C29.3428 33.2537 28.9426 33.148 28.4891 33.148C27.4488 33.148 27.102 33.4122 26.7553 33.8876V40.121H23.6343V30.5068Z" fill="#0368B1"/>
<path d="M30.863 30.5068H33.9574V31.9595H34.0107C34.3842 30.7445 35.7979 30.269 37.025 30.269V33.4122C36.5982 33.2537 36.1981 33.148 35.7446 33.148C34.7043 33.148 34.3575 33.4122 34.0107 33.8876V40.121H30.863V30.5068Z" fill="#0368B1"/>
<path d="M38.3855 26.492H39.6392H41.5332V29.239H38.3855V26.492V26.492ZM38.3855 30.5068H41.5332V40.121H39.9593H38.4122V30.5068H38.3855Z" fill="#0368B1"/>
<path d="M43.427 35.446V26.492H46.5747V40.121H43.427V35.446Z" fill="#0368B1"/>
<path d="M48.0952 26.492H51.2162V31.2727V40.121H48.0952V26.492Z" fill="#0368B1"/>
<path d="M58.0718 26.492H61.5662V37.7175H66.2877V40.121H58.0718V26.492Z" fill="#0368B1"/>
<path d="M70.0488 30.5067L71.1958 36.0798H71.2225L72.5563 30.5067H75.0104L71.756 40.4379C71.0891 42.4189 69.6487 43 67.8081 43C67.488 43 67.1946 42.9472 66.8745 42.9207V40.7285C67.1412 40.7813 67.4346 40.8341 67.7014 40.8341C68.6617 40.8341 69.4619 40.57 69.4619 39.6984C69.4619 39.4607 69.4086 39.1437 69.3286 38.8268L66.7944 30.5332H70.0488V30.5067Z" fill="#0368B1"/>
<path d="M76.1041 30.5067H79.2251V31.801H79.2517C79.9186 30.8237 80.9056 30.2954 82.026 30.2954C83.2797 30.2954 84.1066 31.1407 84.1066 32.4613V40.1474H80.959V33.3593C80.959 32.8575 80.7989 32.4877 80.212 32.4877C79.8919 32.4877 79.5985 32.6198 79.4118 32.8839L79.2251 33.1216V40.1474H76.0774V30.5067H76.1041Z" fill="#0368B1"/>
<path d="M90.8556 34.0989C90.8556 33.7291 90.8289 33.2537 90.6955 32.8839C90.5355 32.4877 90.2954 32.2236 89.7886 32.2236C88.7483 32.2236 88.6149 33.4914 88.6149 35.3931C88.6149 37.559 88.9617 38.2721 89.7886 38.2721C90.8823 38.2721 90.989 37.1628 90.989 36.4232L93.4431 36.7666C93.203 39.0909 91.8426 40.3323 89.5752 40.3323C86.7476 40.3323 85.2805 37.8759 85.2805 35.4988C85.2805 32.8839 86.7476 30.2426 89.7086 30.2426C93.0429 30.2426 93.5498 33.0952 93.5498 34.0461H90.8556V34.0989Z" fill="#0368B1"/>
<path d="M94.7769 26.492H97.9245V31.801H97.9512C98.6181 30.8237 99.6051 30.2955 100.725 30.2955C101.979 30.2955 102.806 31.1407 102.806 32.4613V40.1474H99.6584V33.3594C99.6584 32.8311 99.4717 32.4877 98.9115 32.4877C98.5914 32.4877 98.3247 32.6198 98.0846 32.8839L97.9245 33.1216V40.1474H94.7769V26.492V26.492Z" fill="#0368B1"/>
<path fill-rule="evenodd" clip-rule="evenodd" d="M142.498 5.12408C143.726 5.62593 144.953 6.12777 146.18 6.68244C142.338 8.21438 138.604 10.0633 135.056 12.1499C133.856 11.5424 132.629 10.9349 131.402 10.4066C134.949 8.34644 138.657 6.57679 142.498 5.12408Z" fill="#0368B1"/>
<path fill-rule="evenodd" clip-rule="evenodd" d="M137.91 3.51291C133.909 4.75431 130.095 6.3919 126.44 8.37286C127.614 8.79547 128.761 9.21807 129.908 9.6935C133.429 7.6333 137.137 5.91647 141.031 4.54301C140.018 4.19964 138.978 3.85628 137.91 3.51291Z" fill="#0368B1"/>
<path fill-rule="evenodd" clip-rule="evenodd" d="M150.848 4.9656C147.727 3.46007 144.446 2.19225 141.111 1.18857C139.938 1.53193 138.764 1.8753 137.617 2.27149C141.058 3.27518 144.446 4.5694 147.647 6.10135C148.687 5.70515 149.754 5.33537 150.848 4.9656Z" fill="#E21D38"/>
<path fill-rule="evenodd" clip-rule="evenodd" d="M155.943 3.46007C152.742 2.0602 149.407 0.924447 146.02 0C144.926 0.211302 143.859 0.47543 142.792 0.739558C146.153 1.71683 149.434 2.95823 152.582 4.41093C153.729 4.06757 154.822 3.75061 155.943 3.46007Z" fill="#E21D38"/>
<path fill-rule="evenodd" clip-rule="evenodd" d="M164.185 6.1806C156.13 8.84829 148.607 12.6781 141.778 17.4589C143.459 18.489 145.139 19.5719 146.767 20.7605C153.195 15.7156 160.344 11.516 168.027 8.32004C166.746 7.58048 165.466 6.86734 164.185 6.1806Z" fill="#E21D38"/>
<path fill-rule="evenodd" clip-rule="evenodd" d="M158.637 3.59213C150.261 5.78439 142.392 9.29729 135.296 13.9459C136.897 14.7383 138.471 15.5571 140.018 16.4287C146.953 11.6744 154.689 7.97665 162.905 5.54668C161.518 4.83353 160.078 4.19963 158.637 3.59213Z" fill="#E21D38"/>
<path d="M150.261 19.2549C149.808 19.2549 149.434 19.6247 149.434 20.0473C149.434 20.4963 149.808 20.8661 150.261 20.8661C150.715 20.8661 151.088 20.4963 151.088 20.0473C151.115 19.6247 150.741 19.2549 150.261 19.2549ZM150.261 20.7076C149.888 20.7076 149.594 20.4171 149.594 20.0473C149.594 19.7039 149.888 19.4134 150.261 19.4134C150.634 19.4134 150.928 19.7039 150.928 20.0473C150.955 20.4435 150.661 20.7076 150.261 20.7076Z" fill="#0368B1"/>
<path d="M150.714 19.8624C150.714 19.7832 150.688 19.7039 150.608 19.6511C150.528 19.6247 150.448 19.6247 150.368 19.6247H149.968V20.5227H150.101V20.1001H150.261L150.528 20.5227H150.688L150.394 20.1001C150.581 20.1001 150.714 20.0209 150.714 19.8624ZM150.261 19.9945H150.101V19.7303H150.341C150.448 19.7303 150.554 19.7568 150.554 19.8624C150.554 20.0209 150.394 19.9945 150.261 19.9945Z" fill="#0368B1"/>
</g>
</svg>
