<svg width="168" height="43" viewBox="0 0 168 43" fill="none" xmlns="http://www.w3.org/2000/svg">
<g clip-path="url(#clip0)">
<path d="M45.7212 11.067C42.7869 11.067 41.3464 13.18 41.3464 16.059C41.3464 19.0436 42.7335 21.1302 45.7212 21.1302C48.6821 21.1302 50.0959 19.0436 50.0959 16.059C50.0959 13.18 48.6287 11.067 45.7212 11.067ZM45.7212 19.1493C44.9476 19.1493 44.6008 18.4625 44.6008 16.0326C44.6008 13.8139 44.8409 12.9951 45.7212 12.9951C46.6014 12.9951 46.8415 13.8139 46.8415 16.0326C46.8415 18.4625 46.4947 19.1493 45.7212 19.1493Z" fill="#7685A9"/>
<path d="M52.0966 10.2481V11.3047H50.8162V13.4969H52.0966V20.8925H55.2176V13.4969H56.9248V11.3047H55.2176V10.3274C55.2176 9.7463 55.511 9.42935 56.3379 9.42935C56.5246 9.42935 56.738 9.45576 56.9248 9.50859V7.13144C56.4179 7.07861 55.9645 7.02579 55.3509 7.02579C53.2969 7.02579 52.0966 7.89741 52.0966 10.2481Z" fill="#7685A9"/>
<path d="M18.6993 13.9988C18.6993 11.8858 16.752 11.067 14.8581 11.067C13.0708 11.067 11.3369 11.8329 10.9902 13.7346L13.711 14.2893C13.7377 13.7346 13.9778 13.0215 14.7247 13.0215C15.2582 13.0215 15.5249 13.3913 15.5249 13.9724V14.7912C13.471 15.0289 10.59 15.7684 10.5367 18.2512C10.4833 20.0209 11.6837 21.051 13.2309 21.051C14.1378 21.051 15.0715 20.5491 15.605 19.9945C15.6316 20.153 15.6316 20.602 15.7117 20.8661H18.9394C18.8327 20.734 18.6459 20.4171 18.6459 19.3342V13.9988H18.6993ZM15.5783 18.4625C15.3115 18.8059 14.9381 19.07 14.5646 19.07C14.0045 19.07 13.6577 18.7267 13.6577 18.0399C13.6577 16.8249 14.4846 16.4023 15.5783 16.2967V18.4625V18.4625Z" fill="#7685A9"/>
<path d="M26.3817 11.067C25.1547 11.067 24.3011 11.6216 23.6608 12.2819H23.6342V11.3047H20.5399V20.8925H23.6608V14.0252C23.9543 13.6554 24.3277 13.4441 24.6745 13.4441C25.208 13.4441 25.3947 13.7346 25.3947 14.2893V20.8925H28.5424V13.312C28.5424 11.9914 27.7421 11.067 26.3817 11.067Z" fill="#7685A9"/>
<path d="M39.0791 11.3047H35.9581L33.664 14.2101H33.6107V7.28992H30.4897V20.8925H33.6107V17.4588L34.2776 16.7193H34.3042L35.8514 20.8925H39.1058L36.4649 14.2629L39.0791 11.3047Z" fill="#7685A9"/>
<path d="M7.22896 13.8139V13.7082C8.21594 13.312 9.46967 12.3876 9.46967 10.6179C9.46967 8.74262 7.86917 7.28992 5.44173 7.28992H0V20.8925H5.30835C7.92252 20.8925 9.81645 19.5719 9.81645 17.2475C9.81645 15.5043 8.72277 14.3157 7.22896 13.8139ZM3.38774 9.69348H4.6148C5.41505 9.69348 6.29533 9.90478 6.29533 11.199C6.29533 11.9914 5.7885 12.6781 4.53477 12.6781H3.38774V9.69348ZM4.66815 18.3833H3.38774V14.976H4.66815C5.7885 14.976 6.42871 15.6364 6.42871 16.6665C6.40203 18.0399 5.41505 18.3833 4.66815 18.3833Z" fill="#7685A9"/>
<path d="M123.586 19.3606V13.9988C123.586 11.8858 121.639 11.067 119.745 11.067C117.957 11.067 116.224 11.8329 115.877 13.7346L118.598 14.2893C118.624 13.7346 118.864 13.0215 119.638 13.0215C120.171 13.0215 120.438 13.3913 120.438 13.9724V14.7912C118.358 15.0289 115.503 15.7684 115.45 18.2512C115.397 20.0209 116.597 21.051 118.144 21.051C119.078 21.051 119.985 20.5491 120.518 19.9945C120.545 20.153 120.545 20.602 120.625 20.8661H123.853C123.746 20.7604 123.586 20.4435 123.586 19.3606ZM120.438 18.4625C120.171 18.8059 119.798 19.07 119.425 19.07C118.864 19.07 118.518 18.7267 118.518 18.0399C118.518 16.8249 119.345 16.4023 120.438 16.2967V18.4625Z" fill="#7685A9"/>
<path d="M89.4151 11.067C86.5341 11.067 85.0937 13.3649 85.0937 16.059C85.0937 18.7002 86.4541 21.1038 89.4417 21.1038C92.2426 21.1038 93.2029 18.938 93.3363 18.4889L91.229 17.723C91.0689 18.4889 90.4287 19.0436 89.6818 19.0436C88.4281 19.0436 88.188 17.6173 88.2414 16.7721H93.4697V16.1118C93.4697 13.629 92.4294 11.067 89.4151 11.067ZM90.5621 14.9232H88.2147C88.1613 14.0252 88.4814 12.9951 89.3617 12.9951C90.4821 12.9951 90.6154 14.0516 90.5621 14.9232Z" fill="#7685A9"/>
<path d="M101.926 20.8925H103.606H105.047V11.3047H101.926V20.8925Z" fill="#7685A9"/>
<path d="M101.926 10.0368H105.047V7.28992H103.446H101.926V10.0368Z" fill="#7685A9"/>
<path d="M110.942 12.9951C111.449 12.9951 111.689 13.2592 111.849 13.6554C111.982 14.0252 112.009 14.4742 112.009 14.8704H114.676C114.676 13.9195 114.17 11.067 110.862 11.067C107.901 11.067 106.434 13.6818 106.434 16.2967C106.434 18.6738 107.901 21.1038 110.728 21.1038C112.996 21.1038 114.356 19.8888 114.596 17.5645L112.169 17.2211C112.169 17.9343 112.062 19.0436 110.969 19.0436C110.168 19.0436 109.822 18.3305 109.822 16.1646C109.795 14.2629 109.902 12.9951 110.942 12.9951Z" fill="#7685A9"/>
<path d="M62.3932 7.28992L59.1655 20.8925H62.1798L62.7666 18.1456H65.9676L66.5011 20.8925H69.8889L66.9546 7.28992H62.3932V7.28992ZM63.2734 15.742L64.4205 10.1953H64.5005L65.4875 15.742H63.2734Z" fill="#7685A9"/>
<path d="M97.8711 12.5989H97.8177L97.791 11.3047H94.7501V20.8925H97.8977V14.6855C98.2712 14.2629 98.8047 13.9459 99.6049 13.9459C100.138 13.9459 100.539 14.078 100.885 14.2101V11.067C99.685 11.067 98.5113 11.5952 97.8711 12.5989Z" fill="#7685A9"/>
<path d="M81.5459 11.067C80.2388 11.067 79.3052 11.7537 78.745 12.3612H78.6917C78.3982 11.6216 77.758 11.067 76.8244 11.067C75.6507 11.067 74.6637 11.6744 74.0235 12.2819H73.9702L73.9435 11.3047H70.8759V20.8925H73.9435V14.0516C74.2102 13.7082 74.6904 13.4705 75.0105 13.4705C75.5973 13.4705 75.7574 13.8139 75.7574 14.3421V20.9189H78.825V14.0516C79.0384 13.7875 79.4652 13.4705 79.892 13.4705C80.4522 13.4705 80.6123 13.8139 80.6123 14.3421V20.9189H83.6799V13.2592C83.7332 11.9386 82.853 11.067 81.5459 11.067Z" fill="#7685A9"/>
<path d="M0 26.492H4.88155L6.37536 34.1253H6.42871L8.18927 26.492H12.9374V40.121H9.443V30.0578H9.41632L7.01556 40.121H4.90822L2.72086 29.7144H2.66751V40.121H0V26.492Z" fill="#7685A9"/>
<path d="M17.2588 36.0006C17.2588 36.8458 17.4455 38.2721 18.6726 38.2721C19.4195 38.2721 20.0597 37.7439 20.2731 36.9515L22.3804 37.7174C22.2471 38.1665 21.2868 40.3323 18.4859 40.3323C15.4716 40.3323 14.1111 37.9288 14.1111 35.2875C14.1111 32.567 15.5516 30.269 18.4325 30.269C21.4468 30.269 22.5138 32.8311 22.5138 35.3403V36.0006H17.2588ZM19.6062 34.1517C19.5795 33.2537 19.4995 32.2236 18.4325 32.2236C17.5522 32.2236 17.2588 33.2537 17.2588 34.1517H19.6062Z" fill="#7685A9"/>
<path d="M23.6342 30.5068H26.7285V31.9595H26.7551C27.1286 30.7445 28.5424 30.269 29.7694 30.269V33.4122C29.3426 33.2537 28.9425 33.148 28.489 33.148C27.4487 33.148 27.1019 33.4122 26.7551 33.8876V40.121H23.6342V30.5068Z" fill="#7685A9"/>
<path d="M30.8632 30.5068H33.9575V31.9595H34.0108C34.3843 30.7445 35.7981 30.269 37.0251 30.269V33.4122C36.5983 33.2537 36.1982 33.148 35.7447 33.148C34.7044 33.148 34.3576 33.4122 34.0108 33.8876V40.121H30.8632V30.5068Z" fill="#7685A9"/>
<path d="M38.3855 26.492H39.6392H41.5332V29.239H38.3855V26.492V26.492ZM38.3855 30.5068H41.5332V40.121H39.9593H38.4122V30.5068H38.3855Z" fill="#7685A9"/>
<path d="M43.4271 35.446V26.492H46.5748V40.121H43.4271V35.446Z" fill="#7685A9"/>
<path d="M48.0953 26.492H51.2163V31.2727V40.121H48.0953V26.492Z" fill="#7685A9"/>
<path d="M58.0718 26.492H61.5662V37.7175H66.2877V40.121H58.0718V26.492Z" fill="#7685A9"/>
<path d="M70.0489 30.5067L71.196 36.0798H71.2226L72.5564 30.5067H75.0105L71.7561 40.4379C71.0893 42.4189 69.6488 43 67.8082 43C67.4881 43 67.1947 42.9472 66.8746 42.9207V40.7285C67.1413 40.7813 67.4348 40.8341 67.7015 40.8341C68.6618 40.8341 69.4621 40.57 69.4621 39.6984C69.4621 39.4607 69.4087 39.1437 69.3287 38.8268L66.7946 30.5332H70.0489V30.5067Z" fill="#7685A9"/>
<path d="M76.1042 30.5067H79.2252V31.801H79.2519C79.9187 30.8237 80.9057 30.2954 82.0261 30.2954C83.2798 30.2954 84.1067 31.1407 84.1067 32.4613V40.1474H80.9591V33.3593C80.9591 32.8575 80.799 32.4877 80.2122 32.4877C79.8921 32.4877 79.5986 32.6198 79.4119 32.8839L79.2252 33.1216V40.1474H76.0775V30.5067H76.1042Z" fill="#7685A9"/>
<path d="M90.8555 34.0989C90.8555 33.7291 90.8288 33.2537 90.6954 32.8839C90.5354 32.4877 90.2953 32.2236 89.7885 32.2236C88.7481 32.2236 88.6148 33.4914 88.6148 35.3931C88.6148 37.559 88.9616 38.2721 89.7885 38.2721C90.8822 38.2721 90.9889 37.1628 90.9889 36.4232L93.443 36.7666C93.2029 39.0909 91.8425 40.3323 89.5751 40.3323C86.7475 40.3323 85.2804 37.8759 85.2804 35.4988C85.2804 32.8839 86.7475 30.2426 89.7084 30.2426C93.0428 30.2426 93.5497 33.0952 93.5497 34.0461H90.8555V34.0989Z" fill="#7685A9"/>
<path d="M94.7767 26.492H97.9244V31.801H97.9511C98.618 30.8237 99.6049 30.2955 100.725 30.2955C101.979 30.2955 102.806 31.1407 102.806 32.4613V40.1474H99.6583V33.3594C99.6583 32.8311 99.4716 32.4877 98.9114 32.4877C98.5913 32.4877 98.3245 32.6198 98.0845 32.8839L97.9244 33.1216V40.1474H94.7767V26.492V26.492Z" fill="#7685A9"/>
<path fill-rule="evenodd" clip-rule="evenodd" d="M142.499 5.12408C143.726 5.62593 144.953 6.12777 146.18 6.68244C142.339 8.21438 138.604 10.0633 135.056 12.1499C133.856 11.5424 132.629 10.9349 131.402 10.4066C134.95 8.34644 138.657 6.57679 142.499 5.12408Z" fill="#7685A9"/>
<path fill-rule="evenodd" clip-rule="evenodd" d="M137.91 3.51291C133.909 4.75431 130.095 6.3919 126.44 8.37286C127.614 8.79547 128.761 9.21807 129.908 9.6935C133.429 7.6333 137.137 5.91647 141.031 4.54301C140.018 4.19964 138.977 3.85628 137.91 3.51291Z" fill="#7685A9"/>
<path fill-rule="evenodd" clip-rule="evenodd" d="M150.848 4.9656C147.727 3.46007 144.446 2.19225 141.111 1.18857C139.938 1.53193 138.764 1.8753 137.617 2.27149C141.058 3.27518 144.446 4.5694 147.647 6.10135C148.687 5.70515 149.754 5.33537 150.848 4.9656Z" fill="#7685A9"/>
<path fill-rule="evenodd" clip-rule="evenodd" d="M155.943 3.46007C152.742 2.0602 149.407 0.924447 146.02 0C144.926 0.211302 143.859 0.47543 142.792 0.739558C146.153 1.71683 149.434 2.95823 152.582 4.41093C153.729 4.06757 154.822 3.75061 155.943 3.46007Z" fill="#7685A9"/>
<path fill-rule="evenodd" clip-rule="evenodd" d="M164.185 6.1806C156.13 8.84829 148.607 12.6781 141.778 17.4589C143.459 18.489 145.139 19.5719 146.767 20.7605C153.195 15.7156 160.344 11.516 168.027 8.32004C166.746 7.58048 165.466 6.86734 164.185 6.1806Z" fill="#7685A9"/>
<path fill-rule="evenodd" clip-rule="evenodd" d="M158.637 3.59213C150.261 5.78439 142.392 9.29729 135.296 13.9459C136.897 14.7383 138.471 15.5571 140.018 16.4287C146.953 11.6744 154.689 7.97665 162.905 5.54668C161.518 4.83353 160.077 4.19963 158.637 3.59213Z" fill="#7685A9"/>
<path d="M150.261 19.2549C149.808 19.2549 149.434 19.6247 149.434 20.0473C149.434 20.4963 149.808 20.8661 150.261 20.8661C150.715 20.8661 151.088 20.4963 151.088 20.0473C151.115 19.6247 150.741 19.2549 150.261 19.2549ZM150.261 20.7076C149.888 20.7076 149.594 20.4171 149.594 20.0473C149.594 19.7039 149.888 19.4134 150.261 19.4134C150.634 19.4134 150.928 19.7039 150.928 20.0473C150.955 20.4435 150.661 20.7076 150.261 20.7076Z" fill="#7685A9"/>
<path d="M150.715 19.8624C150.715 19.7832 150.688 19.7039 150.608 19.6511C150.528 19.6247 150.448 19.6247 150.368 19.6247H149.968V20.5227H150.101V20.1001H150.261L150.528 20.5227H150.688L150.394 20.1001C150.581 20.1001 150.715 20.0209 150.715 19.8624ZM150.261 19.9945H150.101V19.7303H150.341C150.448 19.7303 150.554 19.7568 150.554 19.8624C150.554 20.0209 150.394 19.9945 150.261 19.9945Z" fill="#7685A9"/>
</g>
</svg>
