<svg width="165" height="34" viewBox="0 0 165 34" fill="none" xmlns="http://www.w3.org/2000/svg">
<path d="M33.9519 0H0V34H33.9519V0Z" fill="#7685A9"/>
<path d="M26.4566 8.92794C24.3527 10.1657 23.7215 10.2711 21.4335 11.6406C22.7485 10.1921 23.2219 9.58635 24.0371 8.37488C21.9332 8.48023 18.8825 8.74359 16.6997 9.21764C18.5933 8.19053 22.354 7.08441 24.3527 6.82105C23.8793 6.18898 20.1712 4.16109 19.2507 3.76605C22.1962 4.00308 25.7992 5.1092 27.5612 6.16264C28.245 5.95195 28.955 5.92562 30.2437 5.82027C29.9281 6.37333 29.9018 6.7157 28.6394 7.53212C28.9813 8.45389 28.1661 13.5894 27.4823 14.9326C27.456 12.8257 27.2719 10.1131 26.4566 8.92794Z" fill="white"/>
<path d="M11.1244 27.3106C9.91464 26.8629 9.04678 26.3362 8.10001 25.4407C8.3893 24.6507 8.70489 24.0449 9.23087 23.2548C8.25781 23.4129 7.52144 23.5182 6.67987 23.6762C5.9961 22.4648 5.68051 21.306 5.33863 19.6995C5.15454 21.4113 5.07564 22.6228 5.31233 23.9923C4.54966 24.2029 3.99738 24.3873 3.36621 24.677C4.26037 25.2301 4.97044 25.6514 5.9698 26.0992C6.49578 27.2579 7.04806 28.0217 7.96852 28.9171C7.75813 28.1534 7.70553 27.574 7.78443 26.7576C8.91528 27.0999 9.86204 27.2843 11.1244 27.3106Z" fill="white"/>
<path d="M14.2539 10.2711C13.8858 10.7714 13.4387 11.6669 13.3335 12.0883C16.4368 12.5096 18.9352 14.1161 18.9352 14.1161C16.2264 13.6421 14.8062 13.6948 13.7806 13.7738C12.7812 13.8791 12.5708 13.9845 12.5708 13.9845C11.8344 15.591 11.3874 18.3563 11.3874 18.3563C10.8877 17.1711 10.1776 14.7745 10.1776 14.7745C8.81007 15.512 5.65421 18.4616 5.65421 18.4616C7.38993 15.0116 9.15196 13.4314 9.15196 13.4314C8.54709 12.8257 6.96915 12.5096 5.812 12.457C6.41687 12.2199 7.96851 11.9302 9.15196 11.8776C10.3354 11.8512 11.0455 11.9039 11.0455 11.9039C12.0974 11.0611 13.7017 10.3501 14.2539 10.2711Z" fill="white"/>
<path d="M17.5413 25.1773C16.989 25.9147 16.5157 26.4941 15.9108 27.1789C14.8588 27.4686 14.0436 27.5739 13.0179 27.5739C13.6491 27.89 14.254 28.1006 14.9114 28.2323C14.254 28.8117 13.7017 29.2331 13.0705 29.6545C14.1225 29.3911 15.5163 28.9434 16.5683 28.3377C17.1205 28.364 17.6202 28.3377 17.9884 28.2587C17.8832 27.9426 17.8306 27.7056 17.7517 27.3106C18.7248 26.5468 19.4349 25.8621 20.2501 25.0457C19.3823 25.6514 18.6459 26.0991 17.6465 26.5732C17.5939 26.0728 17.5676 25.6777 17.5413 25.1773Z" fill="white"/>
<path d="M46.7068 12.4043C48.9948 12.4307 49.8364 12.8784 49.8364 14.1425C49.8364 14.4849 49.7312 14.8009 49.5208 15.038C49.0737 15.5647 48.2322 15.828 47.1539 15.7754H47.1013L46.4701 17.4345H47.1013C48.3637 17.4082 49.4682 17.8032 50.0205 18.488C50.2835 18.804 50.415 19.1727 50.415 19.5678C50.415 20.8582 49.2578 21.543 46.9961 21.543C46.6279 21.543 45.9968 21.543 45.6023 21.5167C45.5497 19.7785 45.4971 17.4345 45.4971 16.7235C45.4971 15.907 45.5497 14.0635 45.6023 12.5097C45.8916 12.4307 46.3123 12.4043 46.7068 12.4043ZM42.4727 11.2192C42.5516 12.457 42.6042 15.591 42.6042 16.7235C42.6042 17.7769 42.6042 21.2796 42.4201 22.8071V22.9388H47.8903C50.5728 22.9388 53.4393 22.096 53.4393 19.6995C53.4393 18.1983 52.3611 17.0922 50.3361 16.4864C51.8351 16.0914 52.8345 15.0643 52.8345 13.8792C52.8345 11.9303 50.5991 11.1929 48.4689 11.1402H42.4201L42.4727 11.2192Z" fill="#7685A9"/>
<path d="M66.1154 11.0875H63.4592L63.5644 14.0635C63.617 15.5383 63.6696 17.0395 63.7748 18.5143C63.5907 18.0666 63.4329 17.8296 62.644 16.6445C62.644 16.5918 59.8563 12.3253 58.9095 11.1139L58.8832 11.0875H55.7536V11.1929C55.8588 12.4307 55.8851 15.5383 55.8851 16.6971C55.8851 17.7506 55.8851 21.2533 55.7273 22.7808L55.701 22.9125H58.4624V22.7808C58.3046 19.9101 58.3046 16.9868 58.3046 14.1689C58.4098 14.5112 58.515 14.8009 58.9621 15.4593C58.9884 15.5383 63.7485 22.4648 63.9852 22.8598L64.0115 22.9125H66.2206V22.7808C66.0628 21.2533 66.0365 17.7506 66.0365 16.6971C66.0365 15.5647 66.1154 12.4307 66.1943 11.1929L66.2206 11.0875H66.1154Z" fill="#7685A9"/>
<path d="M73.3476 12.536C74.8992 12.5096 75.9512 12.8257 76.4772 13.4577C76.7139 13.7474 76.8454 14.0898 76.8454 14.5112C76.8454 16.223 74.9255 16.5918 73.3213 16.5918L72.6638 16.5654C72.6638 16.5654 72.506 16.5391 72.4008 16.5391C72.4008 16.144 72.4008 15.6173 72.4008 15.0379C72.4008 14.3005 72.4008 13.4051 72.4271 12.5887C72.6375 12.5623 72.9794 12.536 73.3476 12.536ZM69.2976 11.2192C69.4028 12.457 69.4554 15.5646 69.4554 16.7234C69.4554 17.7769 69.4554 21.2796 69.2976 22.8071V22.9124H72.5849L72.5586 22.7808C72.4534 21.701 72.4009 19.6204 72.3746 18.0139C72.5323 18.0139 73.0057 18.0402 73.0057 18.0402H73.4791C77.7921 18.0402 79.896 16.9078 79.896 14.4849C79.896 11.7459 76.9506 11.1138 74.5048 11.0612H69.3239V11.2192H69.2976Z" fill="#7685A9"/>
<path d="M90.1789 12.536C91.7305 12.5096 92.7825 12.8257 93.3085 13.4577C93.5452 13.7474 93.6767 14.0898 93.6767 14.5112C93.6767 16.223 91.7568 16.5918 90.1789 16.5918L89.5214 16.5654C89.5214 16.5654 89.3373 16.5391 89.2585 16.5391C89.2322 16.144 89.2322 15.6173 89.2322 15.0379C89.2322 14.2742 89.2322 13.4051 89.2585 12.5887C89.4425 12.5623 89.8107 12.536 90.1789 12.536ZM86.1289 11.2192C86.2341 12.457 86.2867 15.5646 86.2867 16.7234C86.2867 17.7769 86.2867 21.2796 86.1026 22.8071V22.9124H89.3899L89.3636 22.7808C89.2585 21.701 89.2059 19.6204 89.2059 18.0139C89.3637 18.0139 89.7844 18.0402 89.7844 18.0402H90.2578C94.5708 18.0402 96.701 16.9078 96.701 14.4849C96.701 11.7459 93.7292 11.1138 91.2835 11.0612H86.1289V11.2192Z" fill="#7685A9"/>
<path d="M101.908 14.5639C102.171 15.117 102.855 16.6971 103.618 18.567C103.486 18.567 103.355 18.567 103.355 18.567L101.908 18.5933C101.908 18.5933 100.409 18.567 100.172 18.567C100.777 17.0922 101.409 15.7227 101.908 14.5639ZM101.093 11.0875H101.04L101.014 11.1402C100.409 12.8257 96.4643 21.4113 95.8332 22.7281L95.7806 22.8861H98.6209L98.6472 22.8071C98.8838 21.9907 99.2257 21.0953 99.5939 20.1208C99.6991 20.1208 101.935 20.0945 101.935 20.0945L103.854 20.1208C103.854 20.1208 104.17 20.1472 104.249 20.1472C104.749 21.4113 105.117 22.3594 105.301 22.8598L105.327 22.9125H108.562L103.328 11.1139H103.276H101.093V11.0875Z" fill="#7685A9"/>
<path d="M109.877 11.2192C109.982 12.457 110.008 15.591 110.008 16.7234C110.008 17.7769 110.008 21.2796 109.824 22.8071V22.9124H113.138L113.112 22.7808C112.927 21.2533 112.927 17.7505 112.927 16.6971C112.927 15.8807 112.954 14.0371 113.033 12.5623C113.296 12.536 113.664 12.5096 113.927 12.5096C115.452 12.4833 116.53 12.7993 117.03 13.4314C117.267 13.7211 117.372 14.0898 117.372 14.4849C117.372 15.8543 116.11 16.5391 114.926 16.5918C114.532 16.6181 114.242 16.5654 114.242 16.5654L114.006 16.5127L114.137 16.7234C115.321 18.4353 117.056 21.4113 117.793 22.8071L117.819 22.9124H121.343L121.264 22.7544C121.106 22.5437 118.818 19.1727 117.845 17.7242C117.845 17.7242 117.793 17.6715 117.767 17.6452C119.581 17.0921 120.449 16.0914 120.449 14.5375C120.449 11.8249 117.504 11.1665 115.031 11.1138H109.903L109.877 11.2192Z" fill="#7685A9"/>
<path d="M125.998 11.0875H122.868L122.895 11.1929C122.974 12.4307 123.053 15.5383 123.053 16.6971C123.053 17.7506 123.026 21.2533 122.895 22.7808V22.9125H126.156L126.13 22.7808C125.998 21.2533 125.972 17.7506 125.972 16.6971C125.972 15.5647 126.051 12.4307 126.13 11.1929V11.0875H125.998Z" fill="#7685A9"/>
<path d="M133.309 12.4043C135.623 12.4307 136.439 12.8784 136.439 14.1425C136.439 14.4849 136.334 14.8009 136.123 15.038C135.702 15.5647 134.808 15.828 133.73 15.7754H133.677L133.046 17.4345H133.677C134.94 17.4082 136.018 17.8032 136.597 18.488C136.859 18.804 136.991 19.1727 136.991 19.5678C136.991 20.8582 135.834 21.543 133.572 21.543C133.204 21.543 132.599 21.543 132.205 21.5167C132.099 19.7785 132.099 17.4345 132.099 16.7235C132.099 15.907 132.126 14.0635 132.205 12.5097C132.494 12.4307 132.915 12.4043 133.309 12.4043ZM129.075 11.2192C129.18 12.457 129.233 15.591 129.233 16.7235C129.233 17.7769 129.233 21.2796 129.075 22.8071L129.049 22.9388H134.545C137.228 22.9388 140.094 22.096 140.094 19.6995C140.094 18.1983 139.016 17.0922 136.965 16.4864C138.464 16.0914 139.489 15.0643 139.489 13.8792C139.489 11.9303 137.254 11.1929 135.15 11.1402H129.101L129.075 11.2192Z" fill="#7685A9"/>
<path d="M146.774 14.5639C147.037 15.117 147.721 16.6971 148.484 18.567C148.378 18.567 148.221 18.567 148.221 18.567L146.774 18.5933C146.774 18.5933 145.275 18.567 145.038 18.567C145.67 17.0658 146.274 15.7227 146.774 14.5639ZM148.142 11.0875H145.933L145.906 11.1402C145.249 12.9311 141.094 21.9907 140.752 22.7281L140.699 22.9125H143.513L143.539 22.8335C143.776 22.017 144.092 21.1216 144.46 20.1208C144.539 20.1208 146.774 20.0945 146.774 20.0945L148.694 20.1208C148.694 20.1208 149.036 20.1208 149.115 20.1208C149.614 21.385 150.009 22.3594 150.167 22.8335L150.193 22.9125H153.454L148.221 11.1139H148.142V11.0875Z" fill="#7685A9"/>
<path d="M154.348 14.1425C154.348 16.2231 156.426 17.0395 158.267 17.8032C159.687 18.3826 161.186 18.962 161.186 19.9628C161.186 20.2525 161.133 20.5159 160.949 20.7002C160.607 21.0953 159.897 21.2796 158.793 21.2269C157.688 21.1743 156.452 20.8319 155.085 20.1998L154.532 19.9365V20.3842V22.4911L154.901 22.5964L155.164 22.6491C155.847 22.8071 157.162 23.1232 158.503 23.1232C161.975 23.1232 164.026 21.7273 164.026 19.4624C164.026 17.3029 161.896 16.4864 160.003 15.7227C158.609 15.1696 157.189 14.5902 157.189 13.6685C157.189 13.4051 157.189 12.6414 158.977 12.6414C160.292 12.6414 161.58 13.1681 162.317 13.4578L162.974 13.7475V13.2998V11.1665L162.317 11.0348C161.633 10.9032 160.529 10.6661 159.371 10.6661C156.347 10.6661 154.348 12.0883 154.348 14.1425Z" fill="#7685A9"/>
</svg>
