<svg width="147" height="96" viewBox="0 0 147 96" fill="none" xmlns="http://www.w3.org/2000/svg">
<path d="M47 34.9333L64.4667 26.2L47 17.4667V34.9333Z" fill="#F7F5F4"/>
<path d="M47 34.9334V52.4001L81.9333 34.9334L64.4667 26.2001L47 34.9334Z" fill="#E52823"/>
<path d="M47 52.3999H99.4V43.6666L81.9333 34.9332L47 52.3999Z" fill="#1C2156"/>
<path d="M47 0V17.4667L64.4667 26.2L81.9333 17.4667L47 0Z" fill="#1CA6DF"/>
<path d="M47 0L81.9333 17.4667L99.4 8.73333V0H47Z" fill="#1C2156"/>
<path d="M81.9333 17.4666L64.4667 26.1999L81.9333 34.9333L99.4 43.6666V26.1999V8.73328L81.9333 17.4666Z" fill="#ABCAE9"/>
<path d="M133.93 82.9694C133.11 82.9694 132.239 83.0189 131.418 83.118C129.881 83.3656 129.061 84.1085 129.061 85.3961C129.061 86.5351 129.83 87.1294 130.957 87.1294C132.546 87.1294 133.93 86.0894 133.93 84.1085V82.9694ZM129.881 89.7542C127.062 89.7542 125.268 88.0704 125.268 85.4456C125.268 83.0685 126.857 81.6323 129.419 81.038C130.906 80.7904 132.392 80.6418 133.879 80.6913C133.879 78.6609 133.007 77.9675 130.855 77.9675C129.471 78.017 128.087 78.3142 126.805 78.9085V76.0856C128.241 75.4913 129.778 75.2437 131.367 75.2437C135.929 75.2437 137.62 77.2247 137.62 81.038V86.6342H139.414V89.457H134.289L133.981 88.0209H133.93C132.905 89.1599 131.418 89.8037 129.881 89.7542ZM83.8536 82.9694C83.0335 82.9694 82.1621 83.0189 81.3421 83.118C79.8044 83.3656 78.9843 84.1085 78.9843 85.3961C78.9843 86.5351 79.7531 87.1294 80.8808 87.1294C82.4697 87.1294 83.8536 86.0894 83.8536 84.1085V82.9694ZM79.8044 89.7542C76.9854 89.7542 75.1914 88.0704 75.1914 85.4456C75.1914 83.0685 76.7803 81.6323 79.3431 81.038C80.8295 80.7904 82.3159 80.6418 83.8023 80.6913C83.8023 78.6609 82.931 77.9675 80.7782 77.9675C79.3944 78.017 78.0105 78.3142 76.7291 78.9085V76.0856C78.1642 75.4913 79.7019 75.2437 81.2395 75.2437C85.8013 75.2437 87.4927 77.2247 87.4927 81.038V86.6342H89.2866V89.457H84.1611L83.9048 88.0209H83.8536C82.8797 89.1599 81.3933 89.8037 79.8044 89.7542ZM27.2165 82.9694C26.3964 82.9694 25.5251 83.0189 24.705 83.118C23.1674 83.3656 22.3473 84.1085 22.3473 85.3961C22.3473 86.5351 23.1161 87.1294 24.2437 87.1294C25.8326 87.1294 27.2165 86.0894 27.2165 84.1085V82.9694ZM23.1674 89.7542C20.3483 89.7542 18.5544 88.0704 18.5544 85.4456C18.5544 83.0685 20.1433 81.6323 22.7573 81.038C24.2437 80.7904 25.7301 80.6418 27.2165 80.6913C27.2165 78.6609 26.3452 77.9675 24.1925 77.9675C22.8086 78.017 21.4247 78.3142 20.1946 78.9085V76.0856C21.6297 75.4913 23.1674 75.2437 24.705 75.2437C29.2667 75.2437 30.9582 77.2247 30.9582 81.038V86.6342H32.7521V89.457H27.6266L27.319 88.0209H27.2678C26.2427 89.1599 24.7563 89.8037 23.1674 89.7542ZM101.947 82.4742C101.947 79.8989 100.614 78.1656 98.5638 78.1656C96.5136 78.1656 95.2322 79.8989 95.2322 82.4742C95.2322 85.0494 96.5136 86.8323 98.5126 86.8323C100.563 86.7828 101.947 85.0494 101.947 82.4742ZM105.791 82.4742C105.791 86.7828 103.228 89.8037 99.5377 89.8037C97.3337 89.8037 96.001 88.9618 95.386 88.0704H95.3347V93.9142L91.5931 95.3999V78.3142H89.6967V75.4913H95.0272L95.2835 77.3237H95.3347C95.796 76.5809 96.9236 75.2437 99.5377 75.2437C103.382 75.2437 105.791 78.0666 105.791 82.4742ZM51.409 75.2437C49.6151 75.1447 47.8724 75.937 46.7448 77.3237H46.6935L46.4372 75.4913H40.9017V78.3142H42.9519V89.457H46.6935V83.019C46.6935 79.5523 48.59 78.3142 50.2301 78.3142C51.7678 78.3142 52.4854 79.2551 52.4854 81.3847V89.457H56.227V80.5428C56.227 77.0266 54.5356 75.2437 51.409 75.2437ZM68.4257 86.4361C64.5816 86.4361 62.3264 83.9599 62.3264 79.9485C62.3264 76.0361 64.5816 73.4113 68.0669 73.4113C68.9383 73.4113 69.7584 73.5104 70.5785 73.7085V77.6704L73.91 76.3332V71.678C72.2186 70.737 70.2709 70.2418 68.272 70.2913C62.3776 70.2913 58.3797 73.8075 58.3797 80.0475C58.3797 85.9904 61.9676 89.8037 68.272 89.8037C70.2709 89.8037 72.2699 89.3085 74.0126 88.417L73.1925 85.3961C71.7573 86.0894 70.1172 86.4361 68.4257 86.4361ZM145.155 86.6342V69.3999L141.413 70.8856V89.457H147V86.6342H145.155ZM13.4801 83.8113C13.4801 82.0285 12.0962 81.038 9.78975 81.038H6.20189V86.6342H9.84101C12.4038 86.5847 13.4801 85.4456 13.4801 83.8113ZM6.20189 78.2151H9.22594C11.3787 78.2151 12.4038 77.2247 12.4038 75.838C12.4038 74.2037 11.3787 73.4113 9.43096 73.4113H6.20189V78.2151V78.2151ZM17.478 84.0094C17.478 87.6247 14.5052 89.457 10.0973 89.457H2.409V73.3618H0V70.5389H9.43096C11.9425 70.5389 13.2751 70.8856 14.249 71.4799C15.5816 72.2723 16.3504 73.7085 16.2992 75.1942C16.2992 77.1751 15.0178 78.7104 12.9676 79.2056V79.2551C15.7354 79.7999 17.4268 81.5828 17.478 84.0094ZM106.816 78.3142H108.866V89.457H112.608V75.4913H106.816V78.3142ZM108.866 73.0647H112.608V69.6475H108.866V73.0647ZM33.0596 78.3142H35.1098V89.457H38.8515V75.4913H33.0596V78.3142ZM35.1098 73.0647H38.8515V69.6475H35.1098V73.0647ZM120.45 75.4913H124.243V78.3142H120.45V84.4551C120.45 85.9904 120.809 86.8818 122.346 86.8818C122.91 86.8323 123.474 86.7828 124.038 86.6342V89.358C123.064 89.6056 122.09 89.7047 121.116 89.7542C118.195 89.7542 116.708 88.3675 116.708 85.3961V78.3142H114.658V75.4913H116.708V73.1142L120.45 71.6285V75.4913Z" fill="#1C2156"/>
</svg>
