<svg width="114" height="114" viewBox="0 0 114 114" fill="none" xmlns="http://www.w3.org/2000/svg">
<path d="M57 71.3306V60.317C68.6576 60.317 77.7068 48.756 73.2305 36.4865C71.5881 31.978 67.9492 28.339 63.4085 26.6967C51.139 22.2526 39.578 31.2696 39.578 42.9272H28.5966C28.5966 24.3458 46.5661 9.8543 66.0492 15.9407C74.5509 18.6136 81.3458 25.3763 83.9864 33.878C90.0729 53.3611 75.5814 71.3306 57 71.3306Z" fill="#7685A9"/>
<path fill-rule="evenodd" clip-rule="evenodd" d="M57.0322 60.3815H46.0508V49.4001H57.0322V60.3815Z" fill="#7685A9"/>
<path fill-rule="evenodd" clip-rule="evenodd" d="M46.0508 68.7864H37.6458V60.3813H46.0508V68.7864Z" fill="#7685A9"/>
<path fill-rule="evenodd" clip-rule="evenodd" d="M37.6457 60.3814H30.5932V53.3289H37.6457V60.3814Z" fill="#7685A9"/>
<path d="M10.0475 82.4729C8.63051 81.4746 6.82712 80.9916 4.7661 80.9916H0.257629V95.3221H4.79831C6.85933 95.3221 8.66272 94.8068 10.0797 93.7441C10.8525 93.1967 11.4644 92.4238 11.9153 91.4577C12.3339 90.4916 12.5593 89.3323 12.5593 88.0763C12.5593 86.8204 12.3339 85.6933 11.9153 84.7272C11.4644 83.7611 10.8525 82.9882 10.0475 82.4729ZM2.89831 83.4068H4.31526C5.89322 83.4068 7.18136 83.7289 8.17966 84.3407C9.27458 85.017 9.82204 86.2729 9.82204 88.0763C9.82204 89.9441 9.27458 91.2645 8.17966 91.9729C7.24577 92.5848 5.95763 92.9068 4.34746 92.9068H2.89831V83.4068Z" fill="#7685A9"/>
<path d="M15.6831 80.7985C15.2322 80.7985 14.878 80.9595 14.556 81.2493C14.2661 81.5391 14.1051 81.8934 14.1051 82.3442C14.1051 82.7951 14.2661 83.1493 14.556 83.4713C14.8458 83.7612 15.2322 83.9222 15.6831 83.9222C16.1017 83.9222 16.4882 83.7612 16.8102 83.4713C17.1 83.1815 17.261 82.7951 17.261 82.3442C17.261 81.8934 17.1 81.5391 16.8102 81.2493C16.4882 80.9595 16.1017 80.7985 15.6831 80.7985Z" fill="#7685A9"/>
<path d="M16.939 85.2103H14.3949V95.3222H16.939V85.2103Z" fill="#7685A9"/>
<path d="M26.1814 86.0476C25.4085 85.3713 24.5712 84.9526 23.6373 84.9526C22.2204 84.9526 21.061 85.4357 20.1593 86.4018C19.2576 87.3357 18.7746 88.5594 18.7746 90.0408C18.7746 91.4577 19.2254 92.6814 20.1271 93.6476C21.0288 94.5814 22.2204 95.0645 23.6051 95.0645C24.5712 95.0645 25.4407 94.8069 26.117 94.2594V94.4848C26.117 95.3221 25.8915 95.9662 25.4407 96.417C24.9899 96.8679 24.378 97.0933 23.6051 97.0933C22.4458 97.0933 21.7051 96.6425 20.8034 95.4187L19.0644 97.0933L19.0966 97.1577C19.4831 97.673 20.0305 98.1882 20.8034 98.6713C21.5441 99.1543 22.5102 99.412 23.6373 99.412C25.1509 99.412 26.3746 98.9611 27.2763 98.0272C28.178 97.0933 28.6288 95.8696 28.6288 94.356V85.1781H26.117V86.0476H26.1814ZM25.5051 92.0374C25.0543 92.5526 24.4746 92.7781 23.7661 92.7781C23.0254 92.7781 22.478 92.5204 22.0271 92.0374C21.5763 91.5221 21.3831 90.8781 21.3831 90.073C21.3831 89.2357 21.6085 88.5916 22.0271 88.0764C22.4458 87.5611 23.0576 87.3357 23.7661 87.3357C24.5068 87.3357 25.0543 87.5933 25.5051 88.0764C25.956 88.5916 26.1814 89.2679 26.1814 90.073C26.1814 90.8781 25.956 91.5221 25.5051 92.0374Z" fill="#7685A9"/>
<path d="M33.3949 85.2103H30.8508V95.3222H33.3949V85.2103Z" fill="#7685A9"/>
<path d="M32.139 80.7985C31.6882 80.7985 31.3339 80.9595 31.0119 81.2493C30.7221 81.5391 30.561 81.8934 30.561 82.3442C30.561 82.7951 30.7221 83.1493 31.0119 83.4713C31.3017 83.7612 31.6882 83.9222 32.139 83.9222C32.5576 83.9222 32.9441 83.7612 33.2661 83.4713C33.556 83.1815 33.717 82.7951 33.717 82.3442C33.717 81.8934 33.556 81.5391 33.2661 81.2493C32.9441 80.9595 32.5898 80.7985 32.139 80.7985Z" fill="#7685A9"/>
<path d="M38.9661 82.473H36.4542V85.2103H35.0051V87.5289H36.4542V91.7154C36.4542 93.0357 36.7118 93.9696 37.2271 94.5171C37.7424 95.0645 38.6763 95.3222 39.9644 95.3222C40.383 95.3222 40.8017 95.3222 41.1881 95.29H41.3169V92.9713L40.4474 93.0035C39.8356 93.0035 39.4491 92.9069 39.2559 92.6815C39.0627 92.4561 38.9661 92.0052 38.9661 91.329V87.4968H41.3491V85.1781H38.9661V82.473Z" fill="#7685A9"/>
<path d="M55.8085 80.9595H53.2644V95.3222H55.8085V80.9595Z" fill="#7685A9"/>
<path d="M81.5067 91.7154C81.0559 92.2306 80.5729 92.6815 80.2186 92.9069C79.8644 93.1323 79.4135 93.2612 78.8983 93.2612C78.1576 93.2612 77.5457 93.0035 77.0627 92.4239C76.5796 91.8764 76.322 91.1357 76.322 90.2984C76.322 89.429 76.5796 88.7205 77.0627 88.173C77.5457 87.6256 78.1576 87.3357 78.8983 87.3357C79.7034 87.3357 80.5728 87.851 81.3135 88.7205L82.9881 87.1103C81.8932 85.6934 80.5084 85.0171 78.8339 85.0171C77.4491 85.0171 76.2254 85.5323 75.2271 86.5307C74.2288 87.529 73.7457 88.7849 73.7457 90.2984C73.7457 91.812 74.261 93.0679 75.2271 94.0662C76.2254 95.0645 77.4169 95.5798 78.8339 95.5798C80.6695 95.5798 82.1508 94.7747 83.1813 93.3256L81.5067 91.7154Z" fill="#7685A9"/>
<path d="M91.9729 86.6272C91.6186 86.112 91.1356 85.7255 90.5237 85.4357C89.9118 85.1459 89.2034 84.9849 88.4305 84.9849C87.0135 84.9849 85.8542 85.5001 84.9847 86.5306C84.1474 87.5611 83.6966 88.8171 83.6966 90.3306C83.6966 91.8764 84.1797 93.1323 85.0813 94.0984C86.0152 95.0645 87.239 95.5476 88.7525 95.5476C90.4593 95.5476 91.8763 94.8391 92.939 93.4865L93.0034 93.4221L91.3288 91.812C91.1678 92.0052 90.9423 92.1984 90.7491 92.3916C90.4915 92.6171 90.2661 92.8103 90.0085 92.9391C89.622 93.1323 89.2034 93.2289 88.7203 93.2289C88.0118 93.2289 87.4322 93.0357 86.9813 92.6171C86.5627 92.2306 86.3051 91.7154 86.2407 91.0713H92.9712L93.0034 90.1374C93.0034 89.4933 92.9068 88.8493 92.7457 88.2696C92.5847 87.6899 92.3271 87.1425 91.9729 86.6272ZM86.4017 89.0103C86.5305 88.5272 86.7559 88.1086 87.0779 87.8188C87.4322 87.4645 87.883 87.3035 88.3983 87.3035C89.0102 87.3035 89.4932 87.4645 89.8152 87.8188C90.1051 88.1408 90.2983 88.5272 90.3305 89.0103H86.4017Z" fill="#7685A9"/>
<path d="M101.73 85.9832C100.958 85.3391 99.8949 84.9849 98.5746 84.9849C97.7373 84.9849 96.9322 85.1781 96.2237 85.5323C95.5475 85.8544 94.9034 86.434 94.4847 87.1425L94.517 87.1747L96.1593 88.7205C96.8356 87.6577 97.5763 87.2713 98.5746 87.2713C99.122 87.2713 99.5407 87.4001 99.8949 87.6899C100.217 87.9798 100.41 88.334 100.41 88.7849V89.2679C99.7661 89.0747 99.1542 88.9781 98.5424 88.9781C97.2864 88.9781 96.2559 89.2679 95.4831 89.8476C94.7102 90.4272 94.3237 91.2967 94.3237 92.3916C94.3237 93.3577 94.6458 94.0984 95.322 94.6781C95.9983 95.2255 96.8034 95.5154 97.7695 95.5154C98.7356 95.5154 99.6373 95.1289 100.475 94.4527V95.2899H102.986V88.7849C102.89 87.5933 102.503 86.6272 101.73 85.9832ZM97.222 91.4577C97.5119 91.2645 97.9305 91.1679 98.4458 91.1679C99.0576 91.1679 99.7017 91.2967 100.378 91.5222V92.5205C99.8305 93.0357 99.0898 93.2933 98.1881 93.2933C97.7373 93.2933 97.4153 93.1967 97.1576 93.0035C96.9322 92.8103 96.8034 92.5849 96.8034 92.2628C96.8034 91.9086 96.9322 91.651 97.222 91.4577Z" fill="#7685A9"/>
<path d="M112.68 86.1764C111.971 85.3713 110.973 84.9849 109.717 84.9849C108.719 84.9849 107.881 85.2747 107.269 85.8544V85.2425H104.79V95.3222H107.334V89.751C107.334 88.9781 107.527 88.3662 107.881 87.9476C108.236 87.5289 108.719 87.3035 109.395 87.3035C109.975 87.3035 110.393 87.4967 110.715 87.8832C111.037 88.2696 111.198 88.8171 111.198 89.4611V95.3222H113.742V89.4611C113.742 88.0764 113.388 86.9493 112.68 86.1764Z" fill="#7685A9"/>
<path d="M50.0763 85.9832C49.3034 85.3391 48.2407 84.9849 46.9203 84.9849C46.0831 84.9849 45.278 85.1781 44.5695 85.5323C43.8932 85.8544 43.2492 86.434 42.8305 87.1425L42.8627 87.1747L44.5051 88.7205C45.1814 87.6577 45.922 87.2713 46.9203 87.2713C47.4678 87.2713 47.8864 87.4001 48.2407 87.6899C48.5627 87.9798 48.7559 88.334 48.7559 88.7849V89.2679C48.1119 89.0747 47.5 88.9781 46.8881 88.9781C45.6322 88.9781 44.6017 89.2679 43.8288 89.8476C43.0559 90.4272 42.6695 91.2967 42.6695 92.3916C42.6695 93.3577 42.9915 94.0984 43.6678 94.6781C44.3441 95.2255 45.1492 95.5154 46.1153 95.5154C47.0814 95.5154 47.9831 95.1289 48.8203 94.4527V95.2899H51.3322V88.7849C51.2356 87.5933 50.8492 86.6272 50.0763 85.9832ZM45.5678 91.4577C45.8576 91.2645 46.2763 91.1679 46.7915 91.1679C47.4034 91.1679 48.0475 91.2967 48.7237 91.5222V92.5205C48.1763 93.0357 47.4356 93.2933 46.5339 93.2933C46.0831 93.2933 45.761 93.1967 45.5034 93.0035C45.278 92.8103 45.1492 92.5849 45.1492 92.2628C45.1492 91.9086 45.278 91.651 45.5678 91.4577Z" fill="#7685A9"/>
<path d="M65.0508 95.5476C60.961 95.5476 57.644 92.2306 57.644 88.1408C57.644 84.051 60.961 80.734 65.0508 80.734C69.1407 80.734 72.4576 84.051 72.4576 88.1408C72.4576 92.2306 69.1407 95.5476 65.0508 95.5476ZM65.0508 83.3425C62.4102 83.3425 60.2525 85.5001 60.2525 88.1408C60.2525 90.7815 62.4102 92.9391 65.0508 92.9391C67.6915 92.9391 69.8491 90.7815 69.8491 88.1408C69.8491 85.5001 67.6915 83.3425 65.0508 83.3425Z" fill="#7685A9"/>
</svg>
