<svg width="104" height="88" viewBox="0 0 104 88" fill="none" xmlns="http://www.w3.org/2000/svg">
<path fill-rule="evenodd" clip-rule="evenodd" d="M15.6887 71.207V64.5112C15.6887 63.6314 16.2347 62.9247 17.139 62.9247H17.3893C18.2932 62.9247 18.8368 63.6322 18.8368 64.5112V78.6078C18.8368 82.0453 17.1508 84.7806 14.2128 86.5231C12.867 87.3263 11.3307 87.7483 9.76641 87.7446H9.14201C5.72869 87.7446 3.01698 86.0451 1.28432 83.0876C0.485834 81.7321 0.0669055 80.184 0.0720686 78.6078V77.9797C0.0720686 74.5409 1.75882 71.8073 4.69438 70.0616C6.03998 69.2567 7.57708 68.8345 9.14201 68.84H9.76641C12.0764 68.84 14.0361 69.7419 15.6887 71.207V71.207ZM3.21969 78.2931C3.21969 80.7763 4.41448 82.6432 6.57451 83.8341C7.44794 84.3153 8.39613 84.5739 9.39266 84.5739C11.8123 84.5739 13.6071 83.424 14.8449 81.3587C15.4206 80.3978 15.6887 79.3465 15.6887 78.2289C15.6887 76.0764 14.6772 74.3965 12.9551 73.1488C11.911 72.3925 10.7357 72.0132 9.45401 72.0132C6.81663 72.0132 4.91863 73.3554 3.77951 75.7396C3.39519 76.5457 3.21969 77.4014 3.21969 78.2931V78.2931ZM29.7576 68.84H30.1939C33.8412 68.84 36.6151 70.6222 38.3729 73.8293C39.0757 75.1122 39.4519 76.5126 39.4519 77.9797V78.6078C39.4519 82.0453 37.7692 84.7843 34.8268 86.5235C33.4646 87.3284 31.9599 87.7446 30.3812 87.7446H29.7576C26.3443 87.7446 23.6317 86.0451 21.8999 83.0876C21.101 81.7322 20.6817 80.1841 20.6864 78.6078V77.9797C20.6864 74.5405 22.3801 71.8159 25.3083 70.0624C26.6697 69.2476 28.1756 68.84 29.7576 68.84ZM23.8344 78.2931C23.8344 80.7035 25.0085 82.4767 27.0296 83.7236C27.9786 84.3088 29.0239 84.5739 30.1325 84.5739C32.4969 84.5739 34.2446 83.3663 35.4609 81.3562C36.041 80.3978 36.3035 79.3449 36.3035 78.2289C36.3035 75.9876 35.2318 74.2754 33.3996 73.0346C32.3958 72.354 31.2782 72.0132 30.0692 72.0132C27.4318 72.0132 25.5338 73.3554 24.3951 75.7396C24.0099 76.5457 23.8344 77.4014 23.8344 78.2931V78.2931ZM52.5385 72.2665C52.0631 72.0422 51.1735 71.9677 50.66 71.9481C48.0299 71.8482 46.127 73.3403 45.0106 75.6774C44.6251 76.4835 44.4492 77.3368 44.4492 78.2289C44.4492 80.9449 45.865 82.8466 48.2716 84.0059C49.1507 84.4291 50.2858 84.5093 51.2466 84.5093C52.0916 84.5093 53.286 83.9879 54.0359 83.629L54.1659 83.5668H54.748L54.8122 83.5799C55.5281 83.7301 56.0684 84.1872 56.0684 84.9631V85.277C56.0684 87.2077 52.5657 87.6497 51.2291 87.7438C46.5125 88.0724 42.9851 85.4632 41.6404 80.9314C41.4068 80.1445 41.3016 79.3629 41.3016 78.5428V77.9154C41.3016 74.4767 42.9956 71.7529 45.9235 70.001C47.2848 69.1866 48.7904 68.7774 50.3719 68.7774H50.9959C52.6737 68.7774 54.2191 69.2574 55.6044 70.2105L55.7182 70.2899L55.7901 70.4094C55.9396 70.659 56.0684 70.9479 56.0684 71.245V71.5589C56.0684 72.3684 55.4671 72.8038 54.7415 72.9446L54.6814 72.9552H54.4954C54.0257 72.9552 52.9577 72.4654 52.5385 72.2665V72.2665ZM62.7491 74.4137C63.972 73.1803 65.1988 71.9493 66.4399 70.7364C66.7856 70.3979 68.095 68.9657 68.6105 68.9657H69.1744L69.2386 68.9792C69.9568 69.1293 70.4947 69.5873 70.4947 70.3648V70.6783C70.4947 71.2086 69.878 71.8249 69.538 72.1879C68.8149 72.9601 68.0535 73.7069 67.3134 74.4632L63.51 78.3525C65.1476 80.0058 66.7836 81.6603 68.4078 83.3262C68.8583 83.786 69.3053 84.2493 69.7488 84.7159C69.9052 84.8817 70.136 85.0879 70.2672 85.3175C70.4082 85.5328 70.4947 85.7754 70.4947 86.0345V86.3619L70.4764 86.4376C70.2997 87.1611 69.8439 87.7446 69.048 87.7446H68.7974C68.2766 87.7446 67.6883 87.1513 67.3316 86.812C66.5963 86.1139 65.8866 85.3797 65.1659 84.6664L62.7491 82.2765V86.0963C62.7491 86.9761 62.2023 87.6832 61.2992 87.6832H61.0514C60.1471 87.6832 59.6011 86.9761 59.6011 86.0963V64.5726C59.6011 63.6928 60.1475 62.9889 61.0514 62.9889H61.2992C62.2023 62.9889 62.7491 63.6928 62.7491 64.5726V74.4137V74.4137ZM101.984 68.9657H102.296C103.24 68.9657 103.871 69.6065 103.871 70.5522C103.871 71.865 102.625 72.201 101.547 72.201C100.133 72.201 98.7831 73.0632 97.8085 74.0302C96.5934 75.237 96.0616 76.7827 96.0616 78.4818V86.1585C96.0616 87.0383 95.5161 87.7446 94.6113 87.7446H94.3627C93.458 87.7446 92.9128 87.0387 92.9128 86.1585V78.0411C92.9128 74.924 94.4192 72.3794 96.9306 70.5948C98.4301 69.5287 100.148 68.9661 101.984 68.9661V68.9657ZM79.6097 84.179C80.7554 84.5821 82.0615 84.5244 83.2367 84.3182C83.838 84.0608 85.3752 83.3851 85.9407 83.4842L86.0289 83.4993L86.1102 83.5394C86.4555 83.708 86.7849 83.9466 86.9612 84.3006C87.3732 85.1301 87.1753 85.9641 86.3661 86.4351L86.0967 86.5918C83.1108 88.3278 79.9347 88.0871 76.9581 86.4658C75.5351 85.6907 74.4463 84.5404 73.6431 83.138L73.4555 82.8102C71.5384 79.466 71.7971 75.9483 73.9592 72.7682C74.7055 71.669 75.6809 70.8199 76.8212 70.1557L77.2527 69.9048C80.0647 68.2696 83.0787 68.3817 85.9667 69.8168C87.5198 70.5886 88.778 71.739 89.6449 73.2519L89.8009 73.5244C90.4306 74.6236 89.6149 75.5812 88.7727 76.236C87.7953 76.9955 86.8085 77.9097 85.8717 78.7241C83.7827 80.5406 81.6971 82.3613 79.6097 84.179V84.179ZM76.9061 82.2663C79.2421 80.2488 81.5788 78.2293 83.9087 76.2032C84.7049 75.5116 85.578 74.7938 86.3677 74.0667C85.734 73.2621 84.6753 72.6822 83.7758 72.3364C81.9599 71.6395 80.1696 71.8736 78.5043 72.8418C76.3248 74.1096 75.3965 76.1283 75.4778 78.6406C75.5103 79.6301 75.7743 80.5836 76.2955 81.4254C76.4792 81.722 76.6843 82.0007 76.9061 82.2663ZM59.9176 18.7229H69.2069V28.2886H73.9035C76.0729 28.2886 78.3036 27.8994 80.3576 27.1984C81.3672 26.8534 82.4998 26.3738 83.4955 25.7702C82.1841 24.0457 81.5146 21.8682 81.318 19.7218C81.0499 16.802 81.6349 13.0019 83.5963 10.7168L84.5729 9.57916L85.7364 10.5216C88.6659 12.8923 91.1298 16.2053 91.5641 19.9821C95.0915 18.9369 99.2332 19.1841 102.342 20.9917L103.618 21.7332L102.947 23.0533C100.317 28.2227 94.8193 29.8244 89.4446 29.5408C81.4021 49.7193 63.8923 59.2723 42.6621 59.2723C31.6934 59.2723 21.6305 55.142 15.9 45.3394L15.8061 45.1798L14.9713 43.4684C13.0343 39.1535 12.3908 34.4266 12.8271 29.7033L12.9583 28.2886H20.9021V18.7229H30.191V9.36554H48.7701V0.00817871H59.9176V18.7229Z" fill="#364548"/>
<path fill-rule="evenodd" clip-rule="evenodd" d="M90.0128 22.2619C90.6356 17.3856 87.0131 13.5557 84.7665 11.7371C82.1775 14.7522 81.7753 22.6544 85.837 25.9814C83.5701 28.0095 78.7938 29.8478 73.903 29.8478H14.3691C13.8938 34.9905 14.79 39.7265 16.8371 43.7799L17.5143 45.028C17.9431 45.7606 18.4117 46.4688 18.9179 47.1494C21.3655 47.3078 23.6223 47.3622 25.6868 47.3164H25.6876C29.7449 47.2264 33.0554 46.7435 35.5644 45.8678C35.7418 45.8122 35.9336 45.8283 36.0994 45.9126C36.2652 45.997 36.392 46.143 36.4528 46.3198C36.5137 46.4966 36.5038 46.6903 36.4255 46.86C36.3471 47.0296 36.2063 47.1619 36.0328 47.2288C35.6989 47.3459 35.3511 47.4547 34.992 47.5583H34.9908C33.0152 48.1267 30.8966 48.5089 28.1633 48.6787C28.3258 48.6816 27.9943 48.7033 27.9935 48.7033C27.9005 48.7094 27.7835 48.7229 27.69 48.7278C26.6143 48.7888 25.4532 48.8015 24.2662 48.8015C22.9678 48.8015 21.6893 48.7769 20.2597 48.7033L20.2232 48.7278C25.1835 54.3441 32.9396 57.7124 42.662 57.7124C63.2377 57.7124 80.6902 48.5244 88.4187 27.8974C93.9015 28.4642 99.1709 27.0556 101.568 22.3422C97.7499 20.1229 92.8399 20.8305 90.0128 22.2619" fill="#22A0C8"/>
<path fill-rule="evenodd" clip-rule="evenodd" d="M90.0128 22.262C90.6356 17.3856 87.013 13.5557 84.7665 11.7371C82.1774 14.7522 81.7752 22.6544 85.8369 25.9814C83.5701 28.0095 78.7938 29.8478 73.9029 29.8478H17.8945C17.6516 37.7238 20.553 43.7021 25.6864 47.3164H25.6876C29.7448 47.2264 33.0553 46.7435 35.5643 45.8678C35.7417 45.8122 35.9336 45.8283 36.0994 45.9127C36.2652 45.997 36.3919 46.1431 36.4528 46.3199C36.5136 46.4967 36.5038 46.6904 36.4254 46.86C36.347 47.0296 36.2062 47.1619 36.0327 47.2289C35.6988 47.3459 35.3511 47.4548 34.9919 47.5583H34.9907C33.0151 48.1267 30.7145 48.558 27.9813 48.7279C27.9805 48.7279 27.9151 48.6644 27.9142 48.6644C34.9168 52.2828 45.0702 52.2697 56.7113 47.7654C69.7641 42.7139 81.9105 33.0905 90.3853 22.0835C90.2577 22.1416 90.1334 22.201 90.0128 22.262" fill="#37B1D9"/>
<path fill-rule="evenodd" clip-rule="evenodd" d="M14.4807 36.0962C14.8504 38.8511 15.6507 41.4305 16.837 43.7798L17.5142 45.028C17.9429 45.7606 18.4115 46.4688 18.9178 47.1494C21.3658 47.3078 23.6226 47.3622 25.6875 47.3164C29.7448 47.2263 33.0553 46.7434 35.5643 45.8677C35.7417 45.8121 35.9335 45.8282 36.0994 45.9126C36.2652 45.997 36.3919 46.143 36.4527 46.3198C36.5136 46.4966 36.5038 46.6903 36.4254 46.8599C36.347 47.0296 36.2062 47.1618 36.0327 47.2288C35.6988 47.3458 35.351 47.4547 34.9919 47.5582H34.9907C33.0151 48.1266 30.7267 48.5334 27.9934 48.7036C27.8996 48.7094 27.7358 48.7106 27.6412 48.7159C26.5663 48.7765 25.417 48.8137 24.2295 48.8137C22.9315 48.8137 21.6039 48.7888 20.1751 48.7155C25.1354 54.3317 32.9395 57.7123 42.6619 57.7123C60.2769 57.7123 75.6023 50.9773 84.4971 36.0962H14.4807Z" fill="#1B81A5"/>
<path fill-rule="evenodd" clip-rule="evenodd" d="M18.4303 36.0962C19.4833 40.9332 22.0138 44.7305 25.6875 47.3164C29.7448 47.2263 33.0553 46.7434 35.5643 45.8677C35.7417 45.8121 35.9336 45.8282 36.0994 45.9126C36.2652 45.997 36.3919 46.143 36.4527 46.3198C36.5136 46.4966 36.5038 46.6903 36.4254 46.8599C36.347 47.0296 36.2062 47.1618 36.0327 47.2288C35.6988 47.3458 35.351 47.4547 34.9919 47.5582H34.9907C33.0151 48.1266 30.6783 48.5334 27.9447 48.7036C34.9468 52.3212 45.071 52.2692 56.7112 47.7653C63.7532 45.0398 70.5306 40.9828 76.611 36.0962H18.4303Z" fill="#1D91B4"/>
<path fill-rule="evenodd" clip-rule="evenodd" d="M22.4493 20.2825H30.5004V28.3926H22.4493V20.2825ZM23.1201 20.9586H23.7554V27.7169H23.1201V20.9586ZM24.3144 20.9586H24.9754V27.7169H24.3148V20.9586H24.3144ZM25.534 20.9586H26.195V27.7169H25.534V20.9586ZM26.7544 20.9586H27.4149V27.7169H26.7544V20.9586ZM27.9743 20.9586H28.6349V27.7169H27.9743V20.9586ZM29.1939 20.9586H29.8297V27.7169H29.1939V20.9586ZM31.7387 10.9252H39.7901V19.0348H31.7382V10.9252H31.7387ZM32.4098 11.6012H33.0447V18.3592H32.4098V11.6012ZM33.6042 11.6012H34.2647V18.3592H33.6046V11.6012H33.6042ZM34.8237 11.6012H35.4843V18.3592H34.8237V11.6012ZM36.0437 11.6012H36.7042V18.3592H36.0437V11.6012ZM37.2637 11.6012H37.9246V18.3592H37.2637V11.6012ZM38.4832 11.6012H39.1194V18.3592H38.4832V11.6012Z" fill="#23A3C2"/>
<path fill-rule="evenodd" clip-rule="evenodd" d="M31.7387 20.2825H39.7902V28.3925H31.7383V20.2825H31.7387ZM32.4098 20.9585H33.0448V27.7169H32.4098V20.9585ZM33.6042 20.9585H34.2648V27.7169H33.6046V20.9585H33.6042ZM34.8238 20.9585H35.4843V27.7169H34.8238V20.9585ZM36.0437 20.9585H36.7043V27.7169H36.0437V20.9585ZM37.2637 20.9585H37.9247V27.7169H37.2637V20.9585ZM38.4833 20.9585H39.1194V27.7169H38.4833V20.9585Z" fill="#34BBDE"/>
<path fill-rule="evenodd" clip-rule="evenodd" d="M41.0283 20.2825H49.0794V28.3925H41.0283V20.2825ZM41.699 20.9585H42.334V27.7169H41.699V20.9585ZM42.8934 20.9585H43.554V27.7169H42.8934V20.9585ZM44.1134 20.9585H44.7739V27.7169H44.1134V20.9585ZM45.3333 20.9585H45.9939V27.7169H45.3333V20.9585ZM46.5529 20.9585H47.2143V27.7169H46.5529V20.9585ZM47.7729 20.9585H48.4082V27.7169H47.7729V20.9585V20.9585Z" fill="#23A3C2"/>
<path fill-rule="evenodd" clip-rule="evenodd" d="M41.0283 10.9252H49.0794V19.0348H41.0283V10.9252ZM41.699 11.6012H42.334V18.3592H41.699V11.6012ZM42.8934 11.6012H43.554V18.3592H42.8934V11.6012ZM44.1134 11.6012H44.7739V18.3592H44.1134V11.6012ZM45.3334 11.6012H45.9939V18.3592H45.3334V11.6012ZM46.5529 11.6012H47.2143V18.3592H46.5529V11.6012ZM47.7729 11.6012H48.4083V18.3592H47.7729V11.6012V11.6012ZM50.3176 20.2825H58.3687V28.3926H50.3176V20.2825ZM50.9888 20.9586H51.6237V27.7169H50.9888V20.9586ZM52.1831 20.9586H52.8437V27.7169H52.1831V20.9586ZM53.4027 20.9586H54.0633V27.7169H53.4027V20.9586ZM54.6227 20.9586H55.2836V27.7169H54.6227V20.9586ZM55.8426 20.9586H56.5036V27.7169H55.8426V20.9586ZM57.0626 20.9586H57.698V27.7169H57.0626V20.9586Z" fill="#34BBDE"/>
<path fill-rule="evenodd" clip-rule="evenodd" d="M50.3177 10.9252H58.3688V19.0348H50.3177V10.9252ZM50.9889 11.6012H51.6238V18.3592H50.9889V11.6012ZM52.1833 11.6012H52.8438V18.3592H52.1833V11.6012ZM53.4028 11.6012H54.0634V18.3592H53.4028V11.6012ZM54.6228 11.6012H55.2838V18.3592H54.6228V11.6012ZM55.8428 11.6012H56.5037V18.3592H55.8428V11.6012ZM57.0627 11.6012H57.6981V18.3592H57.0627V11.6012Z" fill="#23A3C2"/>
<path fill-rule="evenodd" clip-rule="evenodd" d="M50.3177 1.56738H58.3688V9.67825H50.3177V1.56738ZM50.9889 2.24302H51.6238V9.0018H50.9889V2.24261V2.24302ZM52.1833 2.24302H52.8438V9.0018H52.1833V2.24261V2.24302ZM53.4028 2.24302H54.0634V9.0018H53.4028V2.24261V2.24302ZM54.6228 2.24302H55.2838V9.0018H54.6228V2.24261V2.24302ZM55.8428 2.24302H56.5037V9.0018H55.8428V2.24261V2.24302ZM57.0627 2.24302H57.6981V9.0018H57.0627V2.24261V2.24302Z" fill="#34BBDE"/>
<path fill-rule="evenodd" clip-rule="evenodd" d="M59.6071 20.2825H67.6581V28.3925H59.6071V20.2825ZM60.2774 20.9585H60.9131V27.7169H60.2778V20.9585H60.2774ZM61.4717 20.9585H62.1327V27.7169H61.4721V20.9585H61.4717ZM62.6921 20.9585H63.3531V27.7169H62.6921V20.9585ZM63.9117 20.9585H64.5726V27.7169H63.9117V20.9585ZM65.132 20.9585H65.7926V27.7169H65.132V20.9585ZM66.3516 20.9585H66.987V27.7169H66.3516V20.9585Z" fill="#23A3C2"/>
<path fill-rule="evenodd" clip-rule="evenodd" d="M39.286 41.5415C39.5802 41.5375 39.8723 41.5925 40.1452 41.7032C40.4182 41.8139 40.6666 41.9781 40.876 42.1863C41.0854 42.3945 41.2517 42.6425 41.3652 42.916C41.4787 43.1895 41.5371 43.4829 41.537 43.7793C41.5369 44.0757 41.4784 44.3692 41.3649 44.6426C41.2513 44.916 41.0849 45.164 40.8754 45.3721C40.6659 45.5803 40.4175 45.7444 40.1445 45.855C39.8715 45.9656 39.5794 46.0204 39.2852 46.0164C38.7013 46.0083 38.144 45.769 37.734 45.3502C37.324 44.9313 37.0941 44.3667 37.0942 43.7785C37.0943 43.1903 37.3244 42.6258 37.7346 42.2071C38.1448 41.7884 38.7021 41.5493 39.286 41.5415Z" fill="#D3ECEC"/>
<path fill-rule="evenodd" clip-rule="evenodd" d="M39.286 42.176C39.4891 42.176 39.6829 42.2145 39.8617 42.2845C39.7383 42.3566 39.642 42.4676 39.5875 42.6004C39.5331 42.7332 39.5236 42.8804 39.5605 43.0192C39.5974 43.158 39.6786 43.2806 39.7917 43.3683C39.9047 43.4559 40.0432 43.5036 40.1858 43.504C40.4316 43.504 40.6449 43.3669 40.7554 43.1639C40.8862 43.4814 40.9122 43.8328 40.8296 44.1663C40.7469 44.4998 40.5599 44.7977 40.2963 45.0159C40.0326 45.2342 39.7063 45.3612 39.3655 45.3783C39.0246 45.3954 38.6874 45.3016 38.4036 45.1107C38.1197 44.9199 37.9043 44.6422 37.7892 44.3186C37.6741 43.995 37.6654 43.6427 37.7643 43.3137C37.8632 42.9847 38.0646 42.6965 38.3386 42.4917C38.6126 42.2868 38.9448 42.1761 39.286 42.176V42.176ZM0 36.9048H103.32C101.071 36.3302 96.2028 35.5535 97.0056 32.5834C92.9147 37.3517 83.0497 35.9288 80.5598 33.5778C77.7875 37.6283 61.6472 36.0884 60.5215 32.9329C57.0456 37.0419 46.2755 37.0419 42.7997 32.9329C41.6731 36.0884 25.5332 37.6283 22.7606 33.5774C20.2711 35.9288 10.4065 37.3517 6.31556 32.5838C7.11831 35.5535 2.25022 36.3302 0 36.9052" fill="#364548"/>
<path fill-rule="evenodd" clip-rule="evenodd" d="M45.19 57.664C39.6893 55.0347 36.6705 51.4601 34.9907 47.5586C32.9472 48.1458 30.4914 48.5215 27.6375 48.6827C26.5626 48.7433 25.4316 48.7744 24.2453 48.7744C22.8771 48.7744 21.4353 48.7335 19.9216 48.6529C24.966 53.7313 31.1715 57.6411 42.6619 57.7123C43.5101 57.7123 44.3519 57.6959 45.19 57.664" fill="#BDD9D7"/>
<path fill-rule="evenodd" clip-rule="evenodd" d="M37.0337 51.1591C36.2728 50.1184 35.5347 48.8105 34.9919 47.5579C32.9485 48.1459 30.4919 48.5216 27.6376 48.6832C29.5981 49.755 32.4017 50.7482 37.0342 51.1591" fill="#D3ECEC"/>
</svg>
