<svg width="104" height="88" viewBox="0 0 104 88" fill="none" xmlns="http://www.w3.org/2000/svg">
<path fill-rule="evenodd" clip-rule="evenodd" d="M15.6881 71.207V64.5112C15.6881 63.6314 16.2341 62.9247 17.1384 62.9247H17.3887C18.2926 62.9247 18.8361 63.6322 18.8361 64.5112V78.6078C18.8361 82.0453 17.1502 84.7806 14.2122 86.5231C12.8664 87.3263 11.3301 87.7483 9.76581 87.7446H9.14141C5.7281 87.7446 3.01638 86.0451 1.28373 83.0876C0.485242 81.7321 0.0663143 80.184 0.0714774 78.6078V77.9797C0.0714774 74.5409 1.75823 71.8073 4.69379 70.0616C6.03938 69.2567 7.57648 68.8345 9.14141 68.84H9.76581C12.0757 68.84 14.0355 69.7419 15.6881 71.207V71.207ZM3.2191 78.2931C3.2191 80.7763 4.41388 82.6432 6.57391 83.8341C7.44734 84.3153 8.39553 84.5739 9.39206 84.5739C11.8117 84.5739 13.6065 83.424 14.8443 81.3587C15.42 80.3978 15.6881 79.3465 15.6881 78.2289C15.6881 76.0764 14.6766 74.3965 12.9545 73.1488C11.9104 72.3925 10.7351 72.0132 9.45341 72.0132C6.81603 72.0132 4.91804 73.3554 3.77891 75.7396C3.3946 76.5457 3.2191 77.4014 3.2191 78.2931V78.2931ZM29.757 68.84H30.1933C33.8406 68.84 36.6144 70.6222 38.3723 73.8293C39.0751 75.1122 39.4513 76.5126 39.4513 77.9797V78.6078C39.4513 82.0453 37.7686 84.7843 34.8261 86.5235C33.464 87.3284 31.9592 87.7446 30.3805 87.7446H29.757C26.3436 87.7446 23.6311 86.0451 21.8993 83.0876C21.1004 81.7322 20.681 80.1841 20.6858 78.6078V77.9797C20.6858 74.5405 22.3795 71.8159 25.3077 70.0624C26.669 69.2476 28.175 68.84 29.757 68.84ZM23.8338 78.2931C23.8338 80.7035 25.0079 82.4767 27.029 83.7236C27.978 84.3088 29.0233 84.5739 30.1319 84.5739C32.4963 84.5739 34.244 83.3663 35.4603 81.3562C36.0404 80.3978 36.3029 79.3449 36.3029 78.2289C36.3029 75.9876 35.2312 74.2754 33.399 73.0346C32.3951 72.354 31.2775 72.0132 30.0685 72.0132C27.4312 72.0132 25.5332 73.3554 24.3945 75.7396C24.0093 76.5457 23.8338 77.4014 23.8338 78.2931V78.2931ZM52.5378 72.2665C52.0625 72.0422 51.1728 71.9677 50.6593 71.9481C48.0292 71.8482 46.1264 73.3403 45.01 75.6774C44.6245 76.4835 44.4486 77.3368 44.4486 78.2289C44.4486 80.9449 45.8643 82.8466 48.271 84.0059C49.1501 84.4291 50.2851 84.5093 51.2459 84.5093C52.0909 84.5093 53.2853 83.9879 54.0352 83.629L54.1652 83.5668H54.7474L54.8116 83.5799C55.5274 83.7301 56.0677 84.1872 56.0677 84.9631V85.277C56.0677 87.2077 52.565 87.6497 51.2285 87.7438C46.5119 88.0724 42.9844 85.4632 41.6398 80.9314C41.4062 80.1445 41.3009 79.3629 41.3009 78.5428V77.9154C41.3009 74.4767 42.995 71.7529 45.9228 70.001C47.2842 69.1866 48.7897 68.7774 50.3713 68.7774H50.9953C52.6731 68.7774 54.2185 69.2574 55.6038 70.2105L55.7175 70.2899L55.7894 70.4094C55.9389 70.659 56.0677 70.9479 56.0677 71.245V71.5589C56.0677 72.3684 55.4665 72.8038 54.7409 72.9446L54.6808 72.9552H54.4947C54.0251 72.9552 52.9571 72.4654 52.5378 72.2665V72.2665ZM62.7485 74.4137C63.9713 73.1803 65.1982 71.9493 66.4393 70.7364C66.785 70.3979 68.0943 68.9657 68.6098 68.9657H69.1737L69.2379 68.9792C69.9562 69.1293 70.494 69.5873 70.494 70.3648V70.6783C70.494 71.2086 69.8773 71.8249 69.5373 72.1879C68.8142 72.9601 68.0529 73.7069 67.3127 74.4632L63.5094 78.3525C65.147 80.0058 66.7829 81.6603 68.4071 83.3262C68.8576 83.786 69.3046 84.2493 69.7482 84.7159C69.9046 84.8817 70.1353 85.0879 70.2665 85.3175C70.4075 85.5328 70.494 85.7754 70.494 86.0345V86.3619L70.4758 86.4376C70.299 87.1611 69.8432 87.7446 69.0474 87.7446H68.7967C68.2759 87.7446 67.6877 87.1513 67.331 86.812C66.5957 86.1139 65.8859 85.3797 65.1653 84.6664L62.7485 82.2765V86.0963C62.7485 86.9761 62.2017 87.6832 61.2986 87.6832H61.0508C60.1465 87.6832 59.6005 86.9761 59.6005 86.0963V64.5726C59.6005 63.6928 60.1469 62.9889 61.0508 62.9889H61.2986C62.2017 62.9889 62.7485 63.6928 62.7485 64.5726V74.4137V74.4137ZM101.983 68.9657H102.296C103.24 68.9657 103.87 69.6065 103.87 70.5522C103.87 71.865 102.624 72.201 101.546 72.201C100.132 72.201 98.7824 73.0632 97.8078 74.0302C96.5927 75.237 96.0609 76.7827 96.0609 78.4818V86.1585C96.0609 87.0383 95.5154 87.7446 94.6106 87.7446H94.362C93.4573 87.7446 92.9121 87.0387 92.9121 86.1585V78.0411C92.9121 74.924 94.4185 72.3794 96.9299 70.5948C98.4294 69.5287 100.147 68.9661 101.983 68.9661V68.9657ZM79.6091 84.179C80.7547 84.5821 82.0608 84.5244 83.2361 84.3182C83.8373 84.0608 85.3745 83.3851 85.94 83.4842L86.0282 83.4993L86.1095 83.5394C86.4548 83.708 86.7842 83.9466 86.9606 84.3006C87.3725 85.1301 87.1746 85.9641 86.3654 86.4351L86.0961 86.5918C83.1101 88.3278 79.9341 88.0871 76.9575 86.4658C75.5344 85.6907 74.4456 84.5404 73.6425 83.138L73.4548 82.8102C71.5377 79.466 71.7965 75.9483 73.9585 72.7682C74.7048 71.669 75.6802 70.8199 76.8206 70.1557L77.252 69.9048C80.0641 68.2696 83.078 68.3817 85.966 69.8168C87.5191 70.5886 88.7773 71.739 89.6442 73.2519L89.8002 73.5244C90.4299 74.6236 89.6142 75.5812 88.772 76.236C87.7946 76.9955 86.8078 77.9097 85.871 78.7241C83.7821 80.5406 81.6964 82.3613 79.6091 84.179V84.179ZM76.9055 82.2663C79.2414 80.2488 81.5781 78.2293 83.908 76.2032C84.7042 75.5116 85.5773 74.7938 86.367 74.0667C85.7333 73.2621 84.6746 72.6822 83.7751 72.3364C81.9592 71.6395 80.1689 71.8736 78.5037 72.8418C76.3241 74.1096 75.3958 76.1283 75.4771 78.6406C75.5096 79.6301 75.7737 80.5836 76.2949 81.4254C76.4785 81.722 76.6837 82.0007 76.9055 82.2663ZM59.9169 18.7229H69.2062V28.2886H73.9029C76.0722 28.2886 78.303 27.8994 80.357 27.1984C81.3665 26.8534 82.4991 26.3738 83.4948 25.7702C82.1835 24.0457 81.514 21.8682 81.3173 19.7218C81.0492 16.802 81.6342 13.0019 83.5956 10.7168L84.5722 9.57916L85.7357 10.5216C88.6652 12.8923 91.1291 16.2053 91.5634 19.9821C95.0908 18.9369 99.2325 19.1841 102.342 20.9917L103.617 21.7332L102.946 23.0533C100.316 28.2227 94.8186 29.8244 89.444 29.5408C81.4014 49.7193 63.8917 59.2723 42.6615 59.2723C31.6927 59.2723 21.6299 55.142 15.8994 45.3394L15.8055 45.1798L14.9707 43.4684C13.0337 39.1535 12.3902 34.4266 12.8265 29.7033L12.9577 28.2886H20.9015V18.7229H30.1904V9.36554H48.7694V0.00817871H59.9169V18.7229Z" fill="#7685A9"/>
<path fill-rule="evenodd" clip-rule="evenodd" d="M90.0128 22.2619C90.6356 17.3856 87.0131 13.5557 84.7665 11.7371C82.1775 14.7522 81.7753 22.6544 85.837 25.9814C83.5701 28.0095 78.7938 29.8478 73.903 29.8478H14.3691C13.8938 34.9905 14.79 39.7265 16.837 43.7799L17.5143 45.028C17.9431 45.7606 18.4116 46.4688 18.9179 47.1494C21.3655 47.3078 23.6222 47.3622 25.6868 47.3164H25.6876C29.7448 47.2264 33.0554 46.7435 35.5644 45.8677C35.7417 45.8122 35.9336 45.8283 36.0994 45.9126C36.2652 45.997 36.392 46.143 36.4528 46.3198C36.5136 46.4966 36.5038 46.6903 36.4254 46.86C36.3471 47.0296 36.2062 47.1619 36.0328 47.2288C35.6988 47.3459 35.3511 47.4547 34.992 47.5583H34.9907C33.0151 48.1267 30.8965 48.5089 28.1633 48.6787C28.3258 48.6816 27.9943 48.7033 27.9935 48.7033C27.9005 48.7094 27.7835 48.7229 27.69 48.7278C26.6143 48.7888 25.4532 48.8015 24.2661 48.8015C22.9678 48.8015 21.6893 48.7769 20.2597 48.7033L20.2231 48.7278C25.1835 54.344 32.9396 57.7124 42.662 57.7124C63.2377 57.7124 80.6902 48.5244 88.4187 27.8974C93.9015 28.4642 99.1709 27.0556 101.568 22.3422C97.7499 20.1229 92.8399 20.8305 90.0128 22.2619" fill="#FAFBFE"/>
<path fill-rule="evenodd" clip-rule="evenodd" d="M90.0129 22.262C90.6356 17.3856 87.0131 13.5557 84.7665 11.7371C82.1775 14.7522 81.7753 22.6544 85.837 25.9814C83.5701 28.0096 78.7938 29.8478 73.903 29.8478H17.8945C17.6516 37.7238 20.553 43.7022 25.6864 47.3165H25.6876C29.7448 47.2264 33.0554 46.7435 35.5644 45.8678C35.7417 45.8122 35.9336 45.8283 36.0994 45.9127C36.2652 45.9971 36.3919 46.1431 36.4528 46.3199C36.5136 46.4967 36.5038 46.6904 36.4254 46.86C36.347 47.0297 36.2062 47.1619 36.0328 47.2289C35.6988 47.3459 35.3511 47.4548 34.9919 47.5583H34.9907C33.0151 48.1267 30.7145 48.558 27.9813 48.7279C27.9805 48.7279 27.9151 48.6644 27.9143 48.6644C34.9168 52.2828 45.0702 52.2697 56.7113 47.7654C69.7641 42.7139 81.9106 33.0905 90.3854 22.0835C90.2578 22.1416 90.1335 22.201 90.0129 22.262" fill="#FAFBFE"/>
<path fill-rule="evenodd" clip-rule="evenodd" d="M14.4808 36.0962C14.8505 38.8511 15.6508 41.4305 16.837 43.7798L17.5143 45.028C17.943 45.7606 18.4116 46.4688 18.9178 47.1494C21.3659 47.3078 23.6226 47.3622 25.6876 47.3164C29.7448 47.2263 33.0554 46.7434 35.5644 45.8677C35.7417 45.8121 35.9336 45.8282 36.0994 45.9126C36.2652 45.997 36.392 46.143 36.4528 46.3198C36.5136 46.4966 36.5038 46.6903 36.4255 46.8599C36.3471 47.0296 36.2062 47.1618 36.0328 47.2288C35.6988 47.3458 35.3511 47.4547 34.992 47.5582H34.9907C33.0151 48.1266 30.7267 48.5334 27.9935 48.7036C27.8996 48.7094 27.7359 48.7106 27.6413 48.7159C26.5663 48.7765 25.417 48.8137 24.2296 48.8137C22.9316 48.8137 21.604 48.7888 20.1752 48.7155C25.1355 54.3317 32.9396 57.7123 42.662 57.7123C60.277 57.7123 75.6024 50.9773 84.4972 36.0962H14.4808Z" fill="#7685A9"/>
<path fill-rule="evenodd" clip-rule="evenodd" d="M18.4303 36.0962C19.4833 40.9332 22.0139 44.7305 25.6876 47.3164C29.7448 47.2263 33.0553 46.7434 35.5643 45.8677C35.7417 45.8121 35.9336 45.8282 36.0994 45.9126C36.2652 45.997 36.3919 46.143 36.4528 46.3198C36.5136 46.4966 36.5038 46.6903 36.4254 46.8599C36.347 47.0296 36.2062 47.1618 36.0328 47.2288C35.6988 47.3458 35.3511 47.4547 34.9919 47.5582H34.9907C33.0151 48.1266 30.6784 48.5334 27.9447 48.7036C34.9468 52.3212 45.071 52.2692 56.7113 47.7653C63.7532 45.0398 70.5307 40.9828 76.611 36.0962H18.4303Z" fill="#7685A9"/>
<path fill-rule="evenodd" clip-rule="evenodd" d="M22.4494 20.2825H30.5004V28.3926H22.4494V20.2825ZM23.1201 20.9586H23.7555V27.7169H23.1201V20.9586ZM24.3145 20.9586H24.9754V27.7169H24.3149V20.9586H24.3145ZM25.534 20.9586H26.195V27.7169H25.534V20.9586ZM26.7544 20.9586H27.415V27.7169H26.7544V20.9586ZM27.9744 20.9586H28.6349V27.7169H27.9744V20.9586ZM29.1939 20.9586H29.8297V27.7169H29.1939V20.9586ZM31.7387 10.9252H39.7902V19.0348H31.7383V10.9252H31.7387ZM32.4098 11.6012H33.0448V18.3592H32.4098V11.6012ZM33.6042 11.6012H34.2647V18.3592H33.6046V11.6012H33.6042ZM34.8237 11.6012H35.4843V18.3592H34.8237V11.6012ZM36.0437 11.6012H36.7043V18.3592H36.0437V11.6012ZM37.2637 11.6012H37.9247V18.3592H37.2637V11.6012ZM38.4832 11.6012H39.1194V18.3592H38.4832V11.6012Z" fill="#FAFBFE"/>
<path fill-rule="evenodd" clip-rule="evenodd" d="M31.7387 20.2825H39.7902V28.3925H31.7383V20.2825H31.7387ZM32.4098 20.9585H33.0448V27.7169H32.4098V20.9585ZM33.6042 20.9585H34.2648V27.7169H33.6046V20.9585H33.6042ZM34.8238 20.9585H35.4843V27.7169H34.8238V20.9585ZM36.0437 20.9585H36.7043V27.7169H36.0437V20.9585ZM37.2637 20.9585H37.9247V27.7169H37.2637V20.9585ZM38.4832 20.9585H39.1194V27.7169H38.4832V20.9585Z" fill="#7685A9"/>
<path fill-rule="evenodd" clip-rule="evenodd" d="M41.0284 20.2825H49.0794V28.3925H41.0284V20.2825ZM41.6991 20.9585H42.3341V27.7169H41.6991V20.9585ZM42.8935 20.9585H43.5541V27.7169H42.8935V20.9585ZM44.1135 20.9585H44.774V27.7169H44.1135V20.9585ZM45.3334 20.9585H45.994V27.7169H45.3334V20.9585ZM46.553 20.9585H47.2143V27.7169H46.553V20.9585ZM47.7729 20.9585H48.4083V27.7169H47.7729V20.9585V20.9585Z" fill="#FAFBFE"/>
<path fill-rule="evenodd" clip-rule="evenodd" d="M41.0284 10.9252H49.0795V19.0348H41.0284V10.9252ZM41.6991 11.6012H42.3341V18.3592H41.6991V11.6012ZM42.8935 11.6012H43.5541V18.3592H42.8935V11.6012ZM44.1135 11.6012H44.774V18.3592H44.1135V11.6012ZM45.3334 11.6012H45.994V18.3592H45.3334V11.6012ZM46.553 11.6012H47.2144V18.3592H46.553V11.6012ZM47.773 11.6012H48.4083V18.3592H47.773V11.6012V11.6012ZM50.3177 20.2825H58.3688V28.3926H50.3177V20.2825ZM50.9888 20.9586H51.6238V27.7169H50.9888V20.9586ZM52.1832 20.9586H52.8438V27.7169H52.1832V20.9586ZM53.4028 20.9586H54.0633V27.7169H53.4028V20.9586ZM54.6227 20.9586H55.2837V27.7169H54.6227V20.9586ZM55.8427 20.9586H56.5037V27.7169H55.8427V20.9586ZM57.0627 20.9586H57.6981V27.7169H57.0627V20.9586Z" fill="#7685A9"/>
<path fill-rule="evenodd" clip-rule="evenodd" d="M50.3177 10.9252H58.3688V19.0348H50.3177V10.9252ZM50.9888 11.6012H51.6238V18.3592H50.9888V11.6012ZM52.1832 11.6012H52.8438V18.3592H52.1832V11.6012ZM53.4028 11.6012H54.0633V18.3592H53.4028V11.6012ZM54.6228 11.6012H55.2837V18.3592H54.6228V11.6012ZM55.8427 11.6012H56.5037V18.3592H55.8427V11.6012ZM57.0627 11.6012H57.6981V18.3592H57.0627V11.6012Z" fill="#FAFBFE"/>
<path fill-rule="evenodd" clip-rule="evenodd" d="M50.3177 1.56738H58.3688V9.67825H50.3177V1.56738ZM50.9888 2.24302H51.6238V9.0018H50.9888V2.24261V2.24302ZM52.1832 2.24302H52.8438V9.0018H52.1832V2.24261V2.24302ZM53.4028 2.24302H54.0633V9.0018H53.4028V2.24261V2.24302ZM54.6228 2.24302H55.2837V9.0018H54.6228V2.24261V2.24302ZM55.8427 2.24302H56.5037V9.0018H55.8427V2.24261V2.24302ZM57.0627 2.24302H57.6981V9.0018H57.0627V2.24261V2.24302Z" fill="#7685A9"/>
<path fill-rule="evenodd" clip-rule="evenodd" d="M59.607 20.2825H67.658V28.3925H59.607V20.2825ZM60.2773 20.9585H60.9131V27.7169H60.2777V20.9585H60.2773ZM61.4717 20.9585H62.1327V27.7169H61.4721V20.9585H61.4717ZM62.6921 20.9585H63.353V27.7169H62.6921V20.9585ZM63.9116 20.9585H64.5726V27.7169H63.9116V20.9585ZM65.132 20.9585H65.7926V27.7169H65.132V20.9585ZM66.3515 20.9585H66.9869V27.7169H66.3515V20.9585Z" fill="#FAFBFE"/>
<path fill-rule="evenodd" clip-rule="evenodd" d="M39.286 41.5415C39.5802 41.5375 39.8723 41.5925 40.1452 41.7032C40.4182 41.8139 40.6666 41.9781 40.876 42.1863C41.0855 42.3945 41.2517 42.6425 41.3652 42.916C41.4787 43.1895 41.5371 43.4829 41.537 43.7793C41.537 44.0757 41.4785 44.3692 41.3649 44.6426C41.2513 44.916 41.085 45.164 40.8755 45.3722C40.666 45.5803 40.4175 45.7444 40.1445 45.855C39.8715 45.9656 39.5794 46.0205 39.2852 46.0164C38.7013 46.0083 38.144 45.769 37.734 45.3502C37.324 44.9314 37.0941 44.3667 37.0943 43.7785C37.0944 43.1903 37.3244 42.6258 37.7346 42.2071C38.1448 41.7884 38.7021 41.5493 39.286 41.5415Z" fill="#FAFBFE"/>
<path fill-rule="evenodd" clip-rule="evenodd" d="M39.286 42.176C39.4891 42.176 39.6829 42.2145 39.8617 42.2845C39.7383 42.3566 39.642 42.4676 39.5875 42.6004C39.5331 42.7332 39.5236 42.8804 39.5605 43.0192C39.5974 43.1579 39.6786 43.2806 39.7917 43.3682C39.9047 43.4559 40.0432 43.5036 40.1858 43.5039C40.4316 43.5039 40.6449 43.3669 40.7554 43.1639C40.8862 43.4814 40.9122 43.8328 40.8296 44.1663C40.7469 44.4998 40.5599 44.7977 40.2963 45.0159C40.0326 45.2342 39.7063 45.3612 39.3655 45.3783C39.0246 45.3953 38.6874 45.3015 38.4036 45.1107C38.1197 44.9199 37.9044 44.6422 37.7892 44.3186C37.6741 43.995 37.6654 43.6427 37.7643 43.3137C37.8632 42.9847 38.0646 42.6965 38.3386 42.4916C38.6126 42.2868 38.9448 42.1761 39.286 42.176V42.176ZM0 36.9048H103.32C101.071 36.3302 96.2028 35.5535 97.0056 32.5834C92.9147 37.3517 83.0497 35.9288 80.5598 33.5778C77.7875 37.6283 61.6472 36.0884 60.5215 32.9329C57.0456 37.0419 46.2755 37.0419 42.7997 32.9329C41.6731 36.0884 25.5332 37.6283 22.7606 33.5774C20.2711 35.9288 10.4065 37.3517 6.31556 32.5838C7.11831 35.5535 2.25022 36.3302 0 36.9052" fill="#7685A9"/>
<path fill-rule="evenodd" clip-rule="evenodd" d="M45.19 57.664C39.6894 55.0347 36.6705 51.4601 34.9907 47.5586C32.9473 48.1458 30.4915 48.5215 27.6376 48.6827C26.5626 48.7433 25.4316 48.7744 24.2454 48.7744C22.8772 48.7744 21.4354 48.7335 19.9217 48.6529C24.9661 53.7313 31.1715 57.6411 42.6619 57.7123C43.5102 57.7123 44.3519 57.6959 45.19 57.664" fill="#FAFBFE"/>
<path fill-rule="evenodd" clip-rule="evenodd" d="M37.0338 51.1591C36.2729 50.1184 35.5347 48.8105 34.992 47.5579C32.9485 48.1459 30.4919 48.5216 27.6376 48.6832C29.5982 49.755 32.4017 50.7482 37.0342 51.1591" fill="#FAFBFE"/>
</svg>
