<svg width="142" height="34" viewBox="0 0 142 34" fill="none" xmlns="http://www.w3.org/2000/svg">
<g clip-path="url(#clip0)">
<path d="M31.8776 34L15.7097 16.1085L5.58017 23.6682V34H0V0H5.58017V17.6051L29.1368 0H37.1788L19.9836 12.8655L39.0374 34H31.8776Z" fill="#7685A9"/>
<path d="M84.0903 34L67.9236 16.1085L57.7906 23.6682V34H52.2093V0H57.7906V17.6051L81.3507 0H89.3915L72.1952 12.8655L91.2535 34H84.0903Z" fill="#7685A9"/>
<path d="M135.534 34L126.431 21.0371H109.418V34H103.848V0H130.379C137.445 0 141.713 4.13226 141.713 10.7065C141.713 16.7135 137.998 19.9118 132.979 20.7541L142 34.0011H135.534V34ZM136.004 10.7054C136.004 6.94553 133.72 5.11432 129.038 5.11432H109.418V15.9148H129.539C133.72 15.9148 136.004 14.0377 136.004 10.7054Z" fill="#7685A9"/>
</g>
<defs>
<clipPath id="clip0">
<rect width="142" height="34" fill="white"/>
</clipPath>
</defs>
</svg>
