<svg width="166" height="42" viewBox="0 0 166 42" fill="none" xmlns="http://www.w3.org/2000/svg">
<g clip-path="url(#clip0)">
<path d="M74.4481 19.531C78.1456 19.531 80.4594 22.3259 80.4594 26.3971C80.4594 30.4684 77.9132 33.2633 74.4481 33.2633C72.7655 33.2633 71.5588 32.537 71.0385 32.0089C70.9388 31.9098 70.806 31.9539 70.806 32.0859V38.0387C70.806 38.1158 70.7506 38.1708 70.6732 38.1708H67.7838C67.7063 38.1708 67.6509 38.1158 67.6509 38.0387V19.9271C67.6509 19.8501 67.7063 19.7951 67.7838 19.7951H69.7322C69.8872 19.7951 70.0532 19.8171 70.1086 19.9271L70.7396 20.8184C70.8281 20.9394 70.9831 20.9064 71.0938 20.7634C71.7138 20.1362 73.1086 19.531 74.4481 19.531ZM73.9168 22.4029C71.8134 22.4029 70.7949 24.0424 70.7949 26.3971C70.7949 29.0049 71.8134 30.3914 73.9168 30.3914C76.153 30.3914 77.3043 28.7519 77.3043 26.3971C77.3043 24.0424 76.153 22.4029 73.9168 22.4029Z" fill="#7685A9"/>
<path d="M160.952 34.8918C159.79 38.0388 159.568 38.1818 156.701 38.1818H152.837C152.76 38.1818 152.705 38.1268 152.705 38.0498V35.596C152.705 35.519 152.727 35.464 152.837 35.464H156.037C157.719 35.464 157.708 34.8808 157.055 32.8782L152.671 19.9382C152.649 19.8612 152.693 19.8062 152.804 19.8062H155.871C155.948 19.8062 156.003 19.8612 156.026 19.9382L159.203 30.0393C159.225 30.1714 159.435 30.1714 159.469 30.0393L162.646 19.9382C162.668 19.8612 162.723 19.8062 162.801 19.8062H165.845C165.945 19.8062 166 19.8612 165.978 19.9382L160.952 34.8918Z" fill="#7685A9"/>
<path d="M57.5326 33.2853C51.9864 33.2853 49.2077 29.3681 49.2077 23.8334C49.2077 18.2987 51.9975 14.3815 57.5326 14.3815C63.0789 14.3815 65.8576 18.2987 65.8576 23.8334C65.8576 29.3681 63.0789 33.2853 57.5326 33.2853ZM62.5807 23.8334C62.5807 19.7291 60.7984 17.2534 57.5326 17.2534C54.278 17.2534 52.4846 19.7291 52.4846 23.8334C52.4846 27.9377 54.2669 30.4134 57.5326 30.4134C60.7984 30.4134 62.5807 27.9377 62.5807 23.8334Z" fill="#7685A9"/>
<path d="M80.8911 22.557C80.8136 22.557 80.7583 22.502 80.7583 22.425V19.9492C80.7583 19.8722 80.8136 19.8172 80.8911 19.8172H83.0498C83.1273 19.8172 83.1827 19.7621 83.1827 19.6851V16.164C83.1827 16.087 83.238 16.032 83.3155 16.032H86.2049C86.2824 16.032 86.3377 16.087 86.3377 16.164V19.6851C86.3377 19.7621 86.3931 19.8172 86.4706 19.8172H89.1496C89.2271 19.8172 89.2824 19.8722 89.2824 19.9492V22.425C89.2824 22.502 89.2271 22.557 89.1496 22.557H86.4595C86.382 22.557 86.3266 22.612 86.3266 22.689V29.3241C86.3266 29.8413 86.7473 30.1604 87.2676 30.1604H89.1274C89.2049 30.1604 89.2603 30.2154 89.2603 30.2924V32.9002C89.2603 32.9772 89.2049 33.0322 89.1274 33.0322H87.0794C84.3229 33.0322 83.1605 31.9649 83.1605 29.3461V22.689C83.1605 22.612 83.1052 22.557 83.0277 22.557H80.8911Z" fill="#7685A9"/>
<path d="M91.3423 17.7815C91.2759 17.7815 91.2316 17.7375 91.2316 17.6714V14.7555C91.2316 14.6895 91.2759 14.6455 91.3423 14.6455H94.2317C94.2981 14.6455 94.3424 14.6895 94.3424 14.7555V17.6714C94.3424 17.7375 94.2981 17.7815 94.2317 17.7815H91.3423Z" fill="#7685A9"/>
<path d="M91.3415 33.0212C91.264 33.0212 91.2086 32.9662 91.2086 32.8892V19.9382C91.2086 19.8612 91.264 19.8062 91.3415 19.8062H94.2309C94.3084 19.8062 94.3637 19.8612 94.3637 19.9382V32.8892C94.3637 32.9662 94.3084 33.0212 94.2309 33.0212H91.3415V33.0212Z" fill="#7685A9"/>
<path d="M112.242 33.0212C112.165 33.0212 112.11 32.9661 112.11 32.8891V25.6599C112.11 24.0974 111.534 22.4249 109.718 22.4249C107.936 22.4249 107.349 23.8333 107.349 25.6599V32.8891C107.349 32.9661 107.294 33.0212 107.216 33.0212H104.327C104.25 33.0212 104.194 32.9661 104.194 32.8891V25.6599C104.194 24.0974 103.619 22.4249 101.803 22.4249C100.021 22.4249 99.434 23.8333 99.434 25.6599V32.8891C99.434 32.9661 99.3786 33.0212 99.3011 33.0212H96.4228C96.3453 33.0212 96.29 32.9661 96.29 32.8891V19.9381C96.29 19.8611 96.3453 19.8061 96.4228 19.8061H98.9137C99.0686 19.8061 99.124 19.8611 99.1793 19.9601L99.445 20.7414C99.5004 20.8404 99.6 20.8734 99.6775 20.7964C100.231 20.2462 101.648 19.542 102.855 19.542C104.405 19.542 105.589 20.1692 106.275 21.0825C106.331 21.1595 106.43 21.1595 106.486 21.0825C107.216 20.3012 108.301 19.542 109.984 19.542C113.294 19.542 115.265 21.4236 115.265 25.4948V32.8891C115.265 32.9661 115.209 33.0212 115.132 33.0212H112.242V33.0212Z" fill="#7685A9"/>
<path d="M117.335 17.7815C117.268 17.7815 117.224 17.7375 117.224 17.6714V14.7555C117.224 14.6895 117.268 14.6455 117.335 14.6455H120.224C120.29 14.6455 120.335 14.6895 120.335 14.7555V17.6714C120.335 17.7375 120.29 17.7815 120.224 17.7815H117.335Z" fill="#7685A9"/>
<path d="M117.324 33.0212C117.246 33.0212 117.191 32.9662 117.191 32.8892V19.9382C117.191 19.8612 117.246 19.8062 117.324 19.8062H120.213C120.291 19.8062 120.346 19.8612 120.346 19.9382V32.8892C120.346 32.9662 120.291 33.0212 120.213 33.0212H117.324V33.0212Z" fill="#7685A9"/>
<path d="M122.449 33.0212C122.372 33.0212 122.316 32.9662 122.316 32.8892V30.3804C122.316 30.2814 122.372 30.1934 122.416 30.1494L128.748 22.8871C128.804 22.8321 128.804 22.678 128.649 22.678H122.715C122.637 22.678 122.582 22.623 122.582 22.546V19.9382C122.582 19.8612 122.637 19.8062 122.715 19.8062H132.59C132.667 19.8062 132.723 19.8612 132.723 19.9382V22.524C132.723 22.601 132.7 22.623 132.667 22.656L126.357 29.9403C126.302 29.9953 126.302 30.1494 126.457 30.1494H132.889C132.966 30.1494 133.021 30.2044 133.021 30.2814V32.8892C133.021 32.9662 132.966 33.0212 132.889 33.0212H122.449V33.0212Z" fill="#7685A9"/>
<path d="M146.151 27.6186H137.007C136.929 27.6186 136.874 27.6736 136.874 27.7506C136.874 29.1921 138.136 30.4135 139.996 30.4135C141.147 30.4135 142.099 30.1274 142.542 29.2361C142.564 29.1811 142.619 29.1041 142.752 29.1041H145.83C145.907 29.1041 145.985 29.1591 145.963 29.2361C145.387 31.7669 142.996 33.2854 139.996 33.2854C136.165 33.2854 133.586 30.4905 133.586 26.4192C133.586 22.315 136.165 19.5531 139.996 19.5531C143.826 19.5531 146.405 22.348 146.405 26.4192C146.383 26.9364 146.35 27.1785 146.273 27.4866C146.25 27.5636 146.228 27.6186 146.151 27.6186ZM142.94 25.0108C143.018 25.0108 143.04 24.9888 143.04 24.9118C143.04 23.8664 142.143 22.436 139.996 22.436C137.87 22.436 136.874 23.8994 136.874 24.9118C136.874 24.9888 136.896 25.0108 136.974 25.0108H142.94Z" fill="#7685A9"/>
<path d="M148.121 33.0212C148.044 33.0212 147.989 32.9662 147.989 32.8892V14.7775C147.989 14.7005 148.044 14.6455 148.121 14.6455H151.011C151.088 14.6455 151.144 14.7005 151.144 14.7775V32.9002C151.144 32.9772 151.088 33.0322 151.011 33.0322H148.121V33.0212Z" fill="#7685A9"/>
<path d="M15.6092 4.54435C13.5944 6.54697 12.2549 8.94571 11.5685 11.4985C9.01127 12.1807 6.58686 13.5121 4.57206 15.5147C1.56092 18.4967 0.0442814 22.4029 0 26.3201L11.0371 15.3497C11.0261 16.318 11.1036 17.2863 11.2807 18.2436L0.243548 29.214C0.531377 30.8205 1.07382 32.394 1.87089 33.8574L8.93378 26.8372C8.83414 25.0217 9.4873 23.1731 10.8822 21.7867C11.2253 21.4456 11.6017 21.1485 12.0003 20.8954C12.7531 22.931 13.9597 24.8456 15.6092 26.4851C17.2587 28.1246 19.1739 29.313 21.2329 30.0722C20.9783 30.4684 20.6794 30.8425 20.3362 31.1836C18.9414 32.57 17.0816 33.2192 15.255 33.1202L8.19206 40.1404C9.66442 40.9326 11.2475 41.4718 12.8638 41.7579L23.9009 30.7875C24.864 30.9635 25.8382 31.0405 26.8124 31.0295L15.7753 41.9999C19.7163 41.9559 23.6463 40.4485 26.6574 37.4555C28.6722 35.4529 30.0117 33.0542 30.6981 30.5014C33.2553 29.8192 35.6798 28.4878 37.6946 26.4851C43.7943 20.4223 43.7943 10.6072 37.6946 4.54435C31.5948 -1.51853 21.6979 -1.51853 15.6092 4.54435ZM31.3623 20.2022C28.7608 22.788 24.5319 22.788 21.9193 20.2022C19.3067 17.6164 19.3178 13.4131 21.9193 10.8163C24.5208 8.23049 28.7497 8.23049 31.3623 10.8163C33.9749 13.4131 33.9749 17.6164 31.3623 20.2022Z" fill="#7685A9"/>
<path d="M10.8822 31.1725C10.3286 30.6224 9.8969 30.0062 9.57586 29.335L3.0997 35.772C3.54252 36.3551 4.02961 36.9163 4.56099 37.4555C5.09237 37.9836 5.65695 38.4678 6.25475 38.9079L12.7309 32.4709C12.0667 32.1518 11.4357 31.7227 10.8822 31.1725Z" fill="#7685A9"/>
</g>
<defs>
<clipPath id="clip0">
<rect width="166" height="42" fill="white"/>
</clipPath>
</defs>
</svg>
