<svg width="133" height="80" viewBox="0 0 133 80" fill="none" xmlns="http://www.w3.org/2000/svg">
<path fill-rule="evenodd" clip-rule="evenodd" d="M80.8806 31.1214L58.5573 17.2779V5.13165L53.7454 8.10191V20.2482L76.1183 34.0387V46.1849L80.8806 43.2677V31.1214Z" fill="#23D599"/>
<path d="M77.9583 8.08838L79.8071 9.19134V15.9667L77.9583 14.8637V8.08838ZM76.4176 5.35724V15.7566L81.3478 18.6978V8.29847L76.4176 5.35724Z" fill="#23D599"/>
<path d="M54.7963 35.4521L56.6451 36.5551V43.3304L54.7963 42.2275V35.4521ZM53.2556 32.721V43.1203L58.1858 46.0616V35.6097L53.2556 32.721Z" fill="#23D599"/>
<path d="M85.6617 12.6577L87.5105 13.7606V20.536L85.6617 19.433V12.6577ZM84.121 9.92651V20.3259L89.0512 23.2671V12.8677L84.121 9.92651Z" fill="#23D599"/>
<path fill-rule="evenodd" clip-rule="evenodd" d="M68.9394 6.5997L67.6 5.76824L66.2606 6.5997V12.7317L88.6335 26.2429V38.1431L83.8216 41.0533V29.153L61.4983 15.5898V3.6896L67.6 0L73.7017 3.6896V13.9789L68.9394 11.1208V6.5997Z" fill="#23D599"/>
<path fill-rule="evenodd" clip-rule="evenodd" d="M68.3654 44.7169L67.026 45.4963L65.6866 44.7169V40.1958L60.9243 37.3377V47.627L67.026 51.3166L73.1277 47.627V35.6748L50.7547 22.1636V10.2633L45.9924 13.1734V25.0737L68.3654 38.5849V44.7169Z" fill="#23D599"/>
<path d="M47.0922 30.8829L48.941 31.9858V38.7612L47.0922 37.6582V30.8829ZM45.5515 28.1517V38.5511L50.4817 41.4923V31.093L45.5515 28.1517Z" fill="#23D599"/>
<path d="M3.51034 74.3263C3.88978 74.3484 4.26991 74.2967 4.62948 74.1741C4.73833 74.1199 4.82794 74.0338 4.88632 73.9275C4.9447 73.8212 4.96908 73.6997 4.95619 73.5792C4.94593 73.4499 4.90123 73.3257 4.8267 73.2193C4.75217 73.1129 4.65051 73.0282 4.53217 72.9739C4.11941 72.7404 3.68676 72.5436 3.23925 72.3859C2.82262 72.2356 2.41425 72.0636 2.01584 71.8705C1.67082 71.7067 1.35409 71.4896 1.07743 71.2271C0.818116 70.9741 0.614533 70.6702 0.479632 70.3347C0.329959 69.9356 0.258007 69.5118 0.267622 69.086C0.250834 68.6543 0.338711 68.225 0.523825 67.8343C0.708939 67.4435 0.985847 67.1029 1.33115 66.8411C2.02627 66.29 2.99712 66.0144 4.24369 66.0144C4.83836 66.0131 5.43183 66.0675 6.01624 66.177C6.47564 66.2554 6.92782 66.371 7.36824 66.5229L6.86428 68.7505C6.50783 68.6274 6.14462 68.5246 5.77643 68.4426C5.34268 68.3484 4.89964 68.3032 4.4557 68.3077C3.55437 68.3077 3.1037 68.5568 3.1037 69.0549C3.10212 69.1604 3.12222 69.2652 3.16278 69.3627C3.21434 69.4682 3.2936 69.5578 3.39217 69.6221C3.54253 69.724 3.70056 69.8142 3.86485 69.8919C4.06644 69.9888 4.32015 70.096 4.62948 70.2102C5.16531 70.4041 5.68677 70.6352 6.19002 70.902C6.55283 71.0898 6.88171 71.3365 7.16318 71.6318C7.39647 71.8851 7.5688 72.1879 7.66714 72.5173C7.76878 72.8797 7.81679 73.2549 7.80964 73.6311C7.83379 74.0723 7.74277 74.5122 7.54544 74.908C7.34811 75.3038 7.05118 75.6421 6.68355 75.8898C5.93051 76.4017 4.86582 76.6577 3.48949 76.6577C2.73437 76.6723 1.9803 76.5944 1.24426 76.4259C0.820393 76.3293 0.404459 76.2009 0 76.042L0.479632 73.7176C0.967831 73.9097 1.4712 74.0613 1.98456 74.1707C2.48639 74.2749 2.99771 74.327 3.51034 74.3263V74.3263Z" fill="#182E57"/>
<path d="M13.0963 63.3649C13.1081 63.596 13.0684 63.8269 12.9801 64.0409C12.8918 64.255 12.757 64.447 12.5854 64.6032C12.2512 64.8932 11.8228 65.053 11.3794 65.053C10.936 65.053 10.5075 64.8932 10.1733 64.6032C10.0018 64.447 9.86698 64.255 9.77866 64.0409C9.69034 63.8269 9.65065 63.596 9.66243 63.3649C9.65271 63.1361 9.69341 62.9079 9.78167 62.6964C9.86992 62.4848 10.0036 62.2951 10.1733 62.1404C10.5075 61.8504 10.936 61.6906 11.3794 61.6906C11.8228 61.6906 12.2512 61.8504 12.5854 62.1404C12.7551 62.2951 12.8888 62.4848 12.9771 62.6964C13.0653 62.9079 13.106 63.1361 13.0963 63.3649V63.3649ZM12.8252 76.381H9.9509V66.2912H12.8252V76.381Z" fill="#182E57"/>
<path d="M15.5256 66.6371C16.1527 66.4643 16.79 66.3303 17.4337 66.2359C18.2386 66.1116 19.0521 66.0503 19.8666 66.0525C20.5991 66.0341 21.3286 66.1514 22.018 66.3984C22.5322 66.5907 22.9881 66.911 23.3422 67.3289C23.6873 67.7562 23.9319 68.255 24.0582 68.7886C24.2045 69.4051 24.2757 70.0368 24.2702 70.6703V76.381H21.3959V71.0231C21.3959 70.1007 21.2731 69.4481 21.0275 69.0653C20.7842 68.6814 20.3323 68.4911 19.6581 68.4911C19.453 68.4911 19.2341 68.4911 19.0047 68.5188C18.7753 68.5465 18.5668 68.5603 18.386 68.588V76.381H15.5117L15.5256 66.6371Z" fill="#182E57"/>
<path d="M26.4041 71.3309C26.3936 70.6239 26.5114 69.9209 26.7517 69.2555C26.9753 68.6246 27.3284 68.047 27.7886 67.5592C28.2487 67.0715 28.8058 66.6844 29.4244 66.4226C30.1191 66.1314 30.8672 65.9877 31.621 66.0006C32.5823 65.9905 33.5353 66.1802 34.4188 66.5575L33.821 68.8404C33.5312 68.7339 33.2353 68.645 32.9347 68.5741C32.5805 68.4917 32.2176 68.4522 31.8538 68.4565C31.497 68.43 31.1388 68.4876 30.8085 68.6246C30.4782 68.7616 30.185 68.9742 29.9527 69.2451C29.5111 69.845 29.2902 70.5778 29.3271 71.3205C29.28 72.0705 29.4868 72.8146 29.9144 73.434C30.306 73.932 30.9907 74.1811 31.9685 74.1811C32.3436 74.1793 32.7179 74.1469 33.0876 74.0842C33.4647 74.027 33.8334 73.9248 34.1859 73.7798L34.5926 76.1216C34.1864 76.2766 33.7663 76.3924 33.3379 76.4675C32.7948 76.5905 32.2404 76.6577 31.6835 76.6681C30.8668 76.688 30.0541 76.5469 29.2923 76.253C28.6713 76.0177 28.1136 75.6421 27.6631 75.156C27.2126 74.6698 26.8816 74.0863 26.6961 73.4512C26.4927 72.763 26.3943 72.0482 26.4041 71.3309V71.3309Z" fill="#182E57"/>
<path d="M35.5659 71.4069C35.5492 70.6045 35.6909 69.8065 35.983 69.0583C36.229 68.4312 36.5989 67.8595 37.0708 67.3772C37.5153 66.9335 38.048 66.5871 38.6348 66.3603C39.2083 66.1312 39.8207 66.0137 40.4387 66.0144C41.8776 66.0144 43.0152 66.4525 43.8517 67.3288C44.6881 68.2051 45.1064 69.4941 45.1064 71.1959C45.1064 71.3654 45.1064 71.5418 45.1064 71.7459C45.1064 71.95 45.0786 72.1195 45.0647 72.2717H38.5201C38.5478 72.5485 38.6362 72.816 38.7791 73.055C38.922 73.2941 39.116 73.499 39.3473 73.6553C39.9329 74.0277 40.6205 74.209 41.3145 74.1741C41.8356 74.1742 42.3557 74.1267 42.8681 74.0323C43.2944 73.9633 43.7118 73.8473 44.1123 73.6864L44.4981 76.0074C44.2995 76.1033 44.0924 76.1809 43.8795 76.2391C43.5974 76.3224 43.3108 76.3894 43.021 76.4397C42.7082 76.4997 42.3711 76.5481 42.0096 76.585C41.6506 76.6237 41.2898 76.6433 40.9287 76.6438C40.1165 76.6612 39.3083 76.5239 38.5479 76.2391C37.9145 75.9969 37.3417 75.6204 36.8692 75.1357C36.4211 74.6622 36.085 74.0949 35.8856 73.4754C35.669 72.8073 35.5611 72.109 35.5659 71.4069V71.4069ZM42.319 70.3139C42.3055 70.0735 42.2635 69.8354 42.1938 69.6048C42.1252 69.3808 42.0143 69.1718 41.8671 68.9891C41.7118 68.8062 41.5216 68.6557 41.3076 68.5464C41.0444 68.425 40.7563 68.367 40.4665 68.3769C40.1819 68.3683 39.8992 68.4239 39.6393 68.5395C39.4163 68.6395 39.2181 68.7871 39.0589 68.9718C38.9053 69.1562 38.7875 69.3673 38.7113 69.5944C38.6291 69.8283 38.5686 70.0691 38.5306 70.3139H42.319Z" fill="#182E57"/>
<path d="M53.4304 68.8162C53.1733 68.7539 52.8709 68.6847 52.5233 68.6156C52.1547 68.5431 51.7799 68.5072 51.4042 68.5083C51.1879 68.5115 50.972 68.5277 50.7577 68.5568C50.5655 68.5794 50.375 68.6153 50.1877 68.664V76.381H47.3239V66.8204C47.922 66.617 48.5312 66.4472 49.1485 66.3119C49.918 66.1454 50.7037 66.0654 51.4911 66.0732C51.644 66.0732 51.8386 66.0732 52.0506 66.1009C52.2627 66.1286 52.4886 66.1459 52.7075 66.177C52.9265 66.2081 53.1454 66.2462 53.3609 66.2911C53.5526 66.3277 53.74 66.3833 53.9205 66.4572L53.4304 68.8162Z" fill="#182E57"/>
<path d="M54.7788 71.4069C54.7628 70.6048 54.9033 69.8072 55.1924 69.0583C55.4409 68.4317 55.8119 67.8603 56.2837 67.3772C56.7244 66.9338 57.2536 66.5873 57.8373 66.3603C58.4108 66.1312 59.0232 66.0137 59.6411 66.0144C61.08 66.0144 62.2177 66.4525 63.0542 67.3288C63.8906 68.2051 64.3089 69.4941 64.3089 71.1959C64.3089 71.3654 64.3089 71.5418 64.288 71.7459C64.2671 71.95 64.2637 72.1195 64.2498 72.2717H57.7296C57.7578 72.5488 57.8469 72.8163 57.9904 73.0554C58.1339 73.2944 58.3285 73.4992 58.5602 73.6553C59.1456 74.0281 59.8334 74.2095 60.5274 74.1741C61.0485 74.1742 61.5686 74.1267 62.081 74.0323C62.5072 73.9628 62.9245 73.8468 63.3253 73.6864L63.7111 76.0074C63.5121 76.1027 63.3051 76.1803 63.0924 76.2391C62.8104 76.3224 62.5237 76.3894 62.2339 76.4398C61.9211 76.4986 61.5805 76.547 61.2225 76.585C60.8635 76.6236 60.5027 76.6432 60.1416 76.6438C59.3263 76.6651 58.5145 76.5301 57.7504 76.246C57.1161 76.0056 56.543 75.6288 56.0717 75.1426C55.6236 74.6691 55.2875 74.1018 55.0881 73.4823C54.8743 72.8114 54.7699 72.1107 54.7788 71.4069ZM61.5319 70.3139C61.5185 70.0735 61.4765 69.8354 61.4067 69.6048C61.3383 69.38 61.2261 69.1708 61.0766 68.9891C60.9269 68.806 60.7412 68.6554 60.5309 68.5464C60.269 68.4251 59.982 68.367 59.6933 68.3769C59.4076 68.3684 59.1237 68.4239 58.8626 68.5395C58.6412 68.6404 58.4443 68.7879 58.2857 68.9718C58.1309 69.1554 58.0129 69.3667 57.9381 69.5944C57.8548 69.8282 57.7931 70.069 57.7539 70.3139H61.5319Z" fill="#182E57"/>
<path d="M68.8723 75.499C69.4855 75.5231 70.096 75.4046 70.6553 75.1531C70.8781 75.0448 71.0634 74.8726 71.1872 74.6588C71.3111 74.4449 71.3679 74.1991 71.3504 73.9528C71.3567 73.7162 71.3141 73.4807 71.2252 73.261C71.1309 73.0578 70.9891 72.8799 70.8116 72.7422C70.5761 72.5647 70.3193 72.4172 70.047 72.3029C69.7342 72.1611 69.3519 71.9951 68.8827 71.8014C68.5247 71.6388 68.1772 71.4797 67.8296 71.3206C67.5127 71.1725 67.2151 70.9867 66.9433 70.7671C66.6892 70.557 66.48 70.2982 66.3282 70.0062C66.163 69.672 66.0831 69.3026 66.0953 68.9304C66.088 68.5568 66.1676 68.1866 66.328 67.8488C66.4884 67.5109 66.7252 67.2146 67.0198 66.983C67.7447 66.4483 68.6353 66.1838 69.5361 66.2359C70.103 66.224 70.6692 66.2821 71.2218 66.4088C71.5436 66.4819 71.8578 66.585 72.1602 66.7167L71.8682 67.8305C71.6153 67.7121 71.3553 67.6093 71.0897 67.5226C70.5659 67.3733 70.0215 67.3079 69.477 67.3289C69.2082 67.3286 68.9401 67.3576 68.6777 67.4154C68.4419 67.4683 68.2164 67.5594 68.0103 67.6852C67.8225 67.8023 67.6643 67.9609 67.5481 68.1487C67.4249 68.358 67.3646 68.5981 67.3743 68.8405C67.3672 69.0805 67.421 69.3184 67.5307 69.5323C67.6407 69.7346 67.7952 69.9096 67.9825 70.0442C68.2122 70.2021 68.458 70.3355 68.7159 70.442C69.0044 70.57 69.3345 70.7083 69.7099 70.8605C70.0853 71.0127 70.4641 71.1718 70.8186 71.3309C71.1551 71.4791 71.4696 71.6722 71.7535 71.9051C72.0239 72.1279 72.2471 72.4019 72.4104 72.7111C72.5905 73.0813 72.6764 73.4899 72.6607 73.901C72.6794 74.2952 72.5967 74.6877 72.4203 75.0412C72.2439 75.3948 71.9797 75.6976 71.6527 75.921C70.8167 76.4242 69.8479 76.6652 68.8723 76.6128C68.1968 76.6364 67.5214 76.563 66.8669 76.3949C66.552 76.2983 66.2432 76.1828 65.9424 76.049L66.2691 74.9144C66.3494 74.9618 66.433 75.0034 66.5193 75.039C66.9374 75.2224 67.378 75.3503 67.8296 75.4194C68.1743 75.4751 68.5231 75.5017 68.8723 75.499V75.499Z" fill="#23D599"/>
<path d="M77.8115 76.5919C77.3909 75.8102 76.9843 74.9939 76.5915 74.1499C76.1988 73.3059 75.8234 72.4516 75.4759 71.5903C75.1283 70.729 74.8225 69.8608 74.5375 68.9995C74.2525 68.1382 74.0092 67.2873 73.8076 66.4572H75.1388C75.2778 67.0694 75.4585 67.7335 75.6775 68.4426C75.8964 69.1517 76.1432 69.885 76.4178 70.6425C76.6923 71.4 76.9982 72.1714 77.3353 72.9635C77.6725 73.7556 78.0304 74.5373 78.4267 75.3052C78.7116 74.5131 78.9654 73.7694 79.1878 73.0638C79.4102 72.3582 79.6118 71.6802 79.803 70.9642C79.9941 70.2482 80.1714 69.5529 80.3486 68.8266C80.5259 68.1002 80.6962 67.3081 80.8874 66.4572H82.1386C81.7215 68.3158 81.2511 70.1214 80.7275 71.8739C80.2483 73.5094 79.6774 75.1169 79.0175 76.6888C78.8036 77.2025 78.5515 77.6997 78.2633 78.1762C78.032 78.5646 77.7412 78.9147 77.4014 79.2138C77.0777 79.4853 76.7016 79.6878 76.2961 79.8088C75.8148 79.9448 75.3158 80.0089 74.8155 79.999C74.5174 80.0022 74.2202 79.9638 73.9327 79.8849C73.7632 79.8426 73.598 79.7847 73.4392 79.7119L73.6929 78.6742C73.8298 78.7475 73.9759 78.8022 74.1274 78.8368C74.3685 78.9094 74.6192 78.9456 74.8711 78.944C75.2003 78.9478 75.5285 78.9094 75.8478 78.8299C76.1331 78.7537 76.3993 78.6195 76.6298 78.4356C76.8822 78.2294 77.0984 77.9827 77.2693 77.7057C77.4854 77.3526 77.667 76.9796 77.8115 76.5919V76.5919Z" fill="#23D599"/>
<path d="M86.2783 75.4989C86.8915 75.5229 87.502 75.4045 88.0613 75.153C88.2838 75.0443 88.4688 74.872 88.5926 74.6583C88.7164 74.4445 88.7735 74.1988 88.7564 73.9527C88.7627 73.716 88.7201 73.4805 88.6313 73.2609C88.5369 73.0576 88.3951 72.8797 88.2177 72.7421C87.9821 72.5646 87.7253 72.417 87.453 72.3028C87.1402 72.1609 86.7579 71.9949 86.2887 71.8012C85.9134 71.649 85.5623 71.4934 85.2252 71.3308C84.9083 71.1828 84.6107 70.9969 84.3389 70.7774C84.0847 70.5672 83.8756 70.3085 83.7238 70.0164C83.5586 69.6822 83.4786 69.3128 83.4909 68.9406C83.4819 68.5653 83.5608 68.1931 83.7212 67.8533C83.8817 67.5135 84.1193 67.2155 84.4154 66.9829C85.1433 66.4426 86.039 66.1745 86.9456 66.2253C87.5125 66.2134 88.0787 66.2715 88.6313 66.3983C88.9531 66.4714 89.2673 66.5745 89.5697 66.7061L89.2777 67.8199C89.0248 67.7015 88.7648 67.5987 88.4992 67.5121C87.9715 67.3652 87.4235 67.3033 86.8761 67.3288C86.6073 67.3285 86.3392 67.3575 86.0767 67.4152C85.8409 67.4681 85.6155 67.5593 85.4094 67.685C85.2216 67.8021 85.0634 67.9607 84.9472 68.1485C84.824 68.3579 84.7637 68.5979 84.7734 68.8403C84.7663 69.0803 84.8201 69.3183 84.9298 69.5321C85.0398 69.7344 85.1942 69.9094 85.3816 70.0441C85.6113 70.202 85.8571 70.3353 86.1149 70.4418C86.4034 70.5698 86.7336 70.7082 87.109 70.8604C87.4843 71.0126 87.8632 71.1717 88.2177 71.3308C88.5541 71.4789 88.8687 71.6721 89.1526 71.905C89.4229 72.1278 89.6462 72.4017 89.8095 72.7109C89.9944 73.0799 90.0851 73.4886 90.0736 73.9008C90.095 74.2982 90.0132 74.6945 89.8361 75.0513C89.6589 75.4081 89.3924 75.7136 89.0622 75.9381C88.2262 76.4413 87.2574 76.6824 86.2818 76.6299C85.6063 76.6537 84.9308 76.5803 84.2764 76.412C83.9606 76.3146 83.6507 76.1992 83.3484 76.0661L83.6786 74.9316C83.7589 74.979 83.8425 75.0206 83.9288 75.0561C84.3451 75.2366 84.7832 75.3622 85.2322 75.4297C85.5783 75.4821 85.9282 75.5052 86.2783 75.4989Z" fill="#23D599"/>
<path d="M93.667 66.4572H97.6396V67.5122H93.667V72.7906C93.6537 73.256 93.7016 73.7211 93.8095 74.1742C93.8806 74.4757 94.0237 74.7557 94.2266 74.9905C94.402 75.1793 94.6292 75.3128 94.88 75.3744C95.158 75.4389 95.4427 75.4702 95.7281 75.4678C96.1605 75.4827 96.5923 75.4218 97.0036 75.288C97.2617 75.1904 97.5126 75.0748 97.7543 74.9421L98.0636 75.9797C97.7655 76.1484 97.4481 76.2808 97.1183 76.3741C96.6445 76.5258 96.1493 76.6005 95.6516 76.5954C95.1246 76.6098 94.5995 76.5289 94.1015 76.3568C93.7052 76.2126 93.3573 75.961 93.097 75.6304C92.8312 75.2676 92.6495 74.8505 92.5653 74.4094C92.456 73.8395 92.4047 73.26 92.4124 72.6799V63.524L93.667 63.2922V66.4572Z" fill="#23D599"/>
<path d="M99.3563 71.407C99.3403 70.6329 99.4675 69.8626 99.7317 69.1344C99.9535 68.5366 100.287 67.9861 100.715 67.5121C101.101 67.091 101.576 66.7602 102.106 66.5436C102.615 66.3326 103.162 66.2244 103.715 66.2254C104.259 66.2012 104.803 66.2951 105.308 66.5005C105.812 66.706 106.266 67.0181 106.638 67.4153C107.363 68.2086 107.726 69.4307 107.726 71.0818C107.726 71.1856 107.726 71.2859 107.726 71.3897C107.726 71.4934 107.726 71.5868 107.694 71.6767H100.687C100.725 72.8943 101.027 73.8282 101.595 74.4785C102.162 75.1288 103.062 75.4551 104.295 75.4574C104.842 75.4749 105.387 75.4108 105.915 75.2672C106.211 75.1782 106.502 75.0695 106.784 74.942L107.013 76.0143C106.69 76.1709 106.351 76.2938 106.002 76.381C105.435 76.5307 104.85 76.6017 104.264 76.592C103.5 76.6119 102.739 76.4814 102.026 76.208C101.439 75.9738 100.916 75.6053 100.5 75.1323C100.093 74.6554 99.7969 74.0958 99.6309 73.4927C99.4448 72.8131 99.3524 72.1114 99.3563 71.407V71.407ZM106.436 70.6218C106.465 69.7565 106.207 68.9058 105.703 68.2005C105.467 67.9122 105.165 67.6836 104.823 67.5333C104.481 67.383 104.109 67.3153 103.736 67.3357C103.318 67.3279 102.904 67.4204 102.53 67.6055C102.176 67.7825 101.861 68.027 101.602 68.325C101.335 68.6306 101.126 68.9823 100.986 69.3627C100.836 69.7633 100.748 70.1844 100.726 70.6114L106.436 70.6218Z" fill="#23D599"/>
<path d="M110.524 66.7996C110.896 66.6993 111.382 66.5851 111.98 66.4537C112.746 66.3101 113.525 66.2452 114.305 66.26C115.567 66.26 116.477 66.6266 117.044 67.353C117.106 67.3046 117.235 67.2181 117.419 67.0971C117.64 66.9531 117.873 66.827 118.114 66.72C118.434 66.5798 118.767 66.4709 119.108 66.3949C119.522 66.3011 119.946 66.2559 120.37 66.26C121.002 66.24 121.631 66.358 122.212 66.6059C122.658 66.8105 123.036 67.1367 123.303 67.5467C123.575 67.9894 123.752 68.4826 123.825 68.996C123.916 69.6064 123.96 70.2227 123.957 70.8397V76.374H122.706V71.234C122.709 70.6667 122.68 70.0997 122.619 69.5356C122.579 69.1208 122.461 68.7171 122.271 68.3458C122.1 68.0447 121.841 67.8031 121.527 67.654C121.133 67.4787 120.704 67.3959 120.273 67.4118C119.922 67.4101 119.573 67.4461 119.23 67.5191C118.948 67.5775 118.674 67.6645 118.41 67.7785C118.211 67.8634 118.02 67.9664 117.84 68.0863C117.694 68.1866 117.586 68.2662 117.524 68.3146C117.645 68.6804 117.733 69.0568 117.784 69.4388C117.842 69.8745 117.871 70.3136 117.871 70.7532V76.381H116.616V71.234C116.621 70.6667 116.592 70.0995 116.529 69.5356C116.493 69.1202 116.375 68.7158 116.182 68.3458C116.004 68.0439 115.739 67.8026 115.421 67.654C115.01 67.4771 114.565 67.3943 114.117 67.4118C113.605 67.407 113.093 67.4394 112.585 67.5087C112.313 67.5396 112.045 67.5975 111.785 67.6816V76.3983H110.531L110.524 66.7996Z" fill="#23D599"/>
<path d="M129.215 75.499C129.828 75.523 130.439 75.4046 130.998 75.1531C131.221 75.0444 131.406 74.8722 131.529 74.6584C131.653 74.4446 131.71 74.199 131.693 73.9528C131.7 73.7161 131.657 73.4807 131.568 73.261C131.473 73.0569 131.33 72.8789 131.151 72.7422C130.918 72.5603 130.662 72.4091 130.39 72.2925C130.077 72.1507 129.695 71.9847 129.222 71.791C128.85 71.6388 128.496 71.4831 128.162 71.3205C127.845 71.1725 127.548 70.9867 127.276 70.7671C127.021 70.5562 126.811 70.2976 126.657 70.0061C126.495 69.6712 126.416 69.3021 126.428 68.9304C126.42 68.5568 126.5 68.1866 126.66 67.8488C126.821 67.5109 127.058 67.2146 127.352 66.983C128.078 66.4483 128.97 66.1839 129.872 66.2359C130.439 66.224 131.005 66.2821 131.558 66.4088C131.879 66.4812 132.192 66.5843 132.493 66.7167L132.204 67.8304C131.95 67.7116 131.689 67.6088 131.422 67.5226C130.899 67.3733 130.356 67.3079 129.813 67.3289C129.544 67.3284 129.276 67.3574 129.014 67.4154C128.778 67.4677 128.552 67.5588 128.346 67.6852C128.158 67.8023 128 67.9609 127.884 68.1487C127.761 68.358 127.701 68.5981 127.71 68.8405C127.704 69.08 127.756 69.3175 127.863 69.5323C127.973 69.7258 128.123 69.8933 128.305 70.0234C128.537 70.1902 128.788 70.3306 129.052 70.442C129.34 70.57 129.67 70.7083 130.046 70.8605C130.421 71.0127 130.8 71.1718 131.154 71.3309C131.491 71.4799 131.805 71.673 132.089 71.9051C132.359 72.1289 132.582 72.4026 132.746 72.7111C132.926 73.0813 133.012 73.4899 132.997 73.9009C133.018 74.2988 132.936 74.6955 132.758 75.0525C132.581 75.4094 132.313 75.7146 131.982 75.9383C131.307 76.3995 130.381 76.6301 129.201 76.6301C128.526 76.6538 127.85 76.5804 127.196 76.4122C126.88 76.3148 126.57 76.1993 126.268 76.0663L126.598 74.9317C126.678 74.9791 126.762 75.0207 126.848 75.0562C127.019 75.1296 127.193 75.1942 127.37 75.2499C127.624 75.3293 127.884 75.3894 128.148 75.4298C128.501 75.4831 128.858 75.5063 129.215 75.499Z" fill="#23D599"/>
</svg>
