<svg>
  <symbol id="morganstanley" viewBox="0 0 189 48" xmlns="http://www.w3.org/2000/svg">
    <path d="M147.5 11.5286V28.6753C147.5 29.5225 147.939 30.0174 148.39 30.3291C148.875 30.6578 149.586 30.8223 150.544 30.8223C151.15 30.8223 151.951 30.6192 151.951 30.6192V29.0815C151.71 29.0966 151.497 29.1105 151.262 29.1105C149.835 29.1105 149.625 28.5475 149.625 27.921V11.5286H147.5ZM102.625 11.7026C101.024 11.7026 99.5761 12.2102 98.5482 13.1243C97.5501 14.0159 96.9979 15.2466 96.9979 16.5769C96.9979 18.042 97.5846 19.1868 98.8066 20.0874C99.8844 20.8828 101.31 21.3963 102.683 21.8863C105.069 22.7439 107.305 23.5267 107.305 25.716C107.305 26.6896 106.977 27.5244 106.358 28.0951C105.676 28.7227 104.696 29.0235 103.4 29.0235C101.13 29.0235 99.4764 27.753 98.5482 25.2808L96.5098 25.8321C96.9488 26.8346 97.6956 28.2815 98.7779 29.2556C99.9646 30.3315 101.438 30.8513 103.286 30.8513C105.474 30.8513 107.135 30.2809 108.224 29.1396C109.352 27.9514 109.602 26.4308 109.602 25.3678C109.602 23.8446 108.965 22.6684 107.678 21.7412C106.555 20.9271 105.102 20.4024 103.688 19.9134C101.383 19.1171 99.1841 18.3592 99.2086 16.4028C99.2167 15.4905 99.5298 14.7803 100.099 14.2848C100.678 13.7814 101.505 13.5305 102.568 13.5305C103.685 13.5305 104.68 13.8459 105.439 14.4589C106.136 15.0172 106.644 15.8457 106.874 16.7799L108.855 16.5188C107.986 13.5246 105.862 11.7026 102.625 11.7026ZM11.8125 11.9638V30.5902H13.9371V13.5595L13.9945 13.6175L19.0477 30.5902H20.6842L25.766 13.6175L25.7947 13.5595V30.5902H27.9193V11.9638H24.3879L19.8803 26.9346V26.9926L19.8516 26.9346L15.3439 11.9638H11.8125ZM112.961 12.3409V16.809H110.923V18.5207H112.961C112.961 18.5207 112.961 28.0946 112.961 28.6753C112.961 29.5225 113.343 30.0174 113.794 30.3291C114.279 30.6578 114.988 30.8223 115.947 30.8223C116.554 30.8223 117.383 30.6192 117.383 30.6192V29.0815C117.147 29.0966 116.9 29.1105 116.665 29.1105C115.237 29.1105 115.086 28.5475 115.086 27.921V18.5207H117.383V16.809H115.086V12.3409H112.961ZM36.5326 16.5478C34.7436 16.5478 33.2273 17.2763 32.1686 18.6368C31.186 19.9065 30.6469 21.7002 30.6469 23.6851C30.6469 25.6718 31.186 27.4622 32.1686 28.7334C33.2273 30.0975 34.7436 30.8223 36.5326 30.8223C38.329 30.8223 39.8407 30.0975 40.8967 28.7334C41.8794 27.4622 42.4184 25.6718 42.4184 23.6851C42.4184 21.7002 41.8794 19.9065 40.8967 18.6368C39.8407 17.2763 38.329 16.5478 36.5326 16.5478ZM159.1 16.5769C158.192 16.5769 157.347 16.7455 156.63 17.0701C155.929 17.3895 155.306 17.8705 154.822 18.4917C153.858 19.711 153.3 21.5212 153.3 23.7141C153.3 26.1547 153.994 28.017 155.252 29.2556C156.58 30.5649 158.271 30.8223 159.444 30.8223C162.493 30.8223 163.988 29.1556 164.612 27.6309L162.918 26.7895C162.506 27.7178 161.56 29.1396 159.444 29.1396C158.235 29.1396 157.246 28.6392 156.544 27.7179C155.867 26.8263 155.486 25.5923 155.482 24.1203H164.784V22.8147C164.784 20.5594 164.19 18.8776 163.09 17.8534C162.154 16.9834 160.841 16.5769 159.1 16.5769ZM58.2955 16.6059C55.8985 16.6059 52.4959 18.2357 52.4959 23.7141C52.4959 29.0334 55.8879 30.8223 58.1807 30.8223C59.5188 30.8223 60.7348 30.0732 61.5686 28.9945L61.6834 28.9365V31.5476C61.6834 33.379 60.1149 34.507 58.4391 34.507C56.8098 34.507 55.3675 34.1926 54.1898 33.6366V35.4934C55.1815 35.923 56.7953 36.1897 58.1807 36.1897C61.9521 36.1898 63.7506 34.0922 63.7506 31.0544V16.867H62.1715L61.7121 18.3176C60.9327 17.2913 59.9122 16.6059 58.2955 16.6059ZM72.0193 16.6059C69.0018 16.6059 67.5732 18.4325 66.9662 19.5652L68.6602 20.4646C68.8979 19.8174 69.7537 18.3176 72.0481 18.3176C73.8572 18.3176 74.7756 19.1245 74.7756 20.7257V21.219C74.7756 21.219 74.7904 21.3689 74.7469 21.4221C74.6797 21.5078 74.4892 21.5779 74.0291 21.6251C71.4961 21.9107 69.8125 22.3311 68.574 23.1338C67.2296 24.0071 66.392 25.2297 66.392 26.9055C66.392 28.096 66.9624 29.1121 67.7127 29.8359C68.4104 30.5024 69.3609 30.8492 70.4115 30.8803C72.6479 30.9528 74.1199 30.0123 74.833 28.9074C74.8883 29.6666 75.1576 30.1003 75.7518 30.4161C76.3098 30.7173 77.2251 30.6574 77.618 30.5612V29.1105C77.1444 29.0866 76.8428 28.8591 76.8428 28.2692V21.6251V20.7547C76.8428 19.3836 76.3103 18.259 75.2924 17.5343C74.4531 16.9325 73.2804 16.6059 72.0193 16.6059ZM86.6332 16.6059C85.2505 16.6059 83.8354 17.3297 82.6424 18.6948V16.867H80.5178V30.6192H82.6424V20.4066C83.3653 19.6259 84.9858 18.3176 86.4609 18.3176C87.9398 18.3176 88.5855 19.0507 88.5855 20.6967V30.6192H90.7102V20.6387C90.7102 17.6674 88.6191 16.6059 86.6332 16.6059ZM125.077 16.6059C122.061 16.6059 120.633 18.4325 120.024 19.5652L121.718 20.4646C121.957 19.8174 122.811 18.3176 125.106 18.3176C126.915 18.3176 127.833 19.1245 127.833 20.7257V21.219C127.833 21.219 127.819 21.3689 127.776 21.4221C127.71 21.5078 127.549 21.5779 127.087 21.6251C124.554 21.9102 122.87 22.3311 121.632 23.1338C120.288 24.0071 119.45 25.2297 119.45 26.9055C119.45 28.096 120.019 29.1116 120.771 29.8359C121.468 30.5024 122.42 30.8492 123.469 30.8803C125.704 30.9528 127.178 30.0123 127.891 28.9074C127.947 29.6662 128.214 30.1003 128.81 30.4161C129.367 30.7173 130.282 30.6574 130.676 30.5612V29.1105C130.203 29.0866 129.901 28.8591 129.901 28.2692V21.6251V20.7547C129.901 19.3836 129.34 18.259 128.321 17.5343C127.481 16.9325 126.337 16.6059 125.077 16.6059ZM139.691 16.6059C138.305 16.6059 136.893 17.3297 135.7 18.6948V16.867H133.576V30.6192H135.7V20.4066C136.424 19.6255 138.042 18.3176 139.519 18.3176C140.995 18.3176 141.643 19.0507 141.643 20.6967V30.6192H143.768V20.6387C143.768 17.6674 141.677 16.6059 139.691 16.6059ZM51.692 16.6639C49.5364 16.6639 48.2589 17.5084 47.1557 19.5072V19.3621V16.867H45.0311V30.5902H47.1557V22.8147C47.6802 19.99 49.16 18.6658 51.692 18.6658V16.6639ZM166.22 16.838L170.957 30.4742V30.5902C170.674 31.8971 169.855 33.5104 169.12 34.0138C168.47 34.4593 167.766 34.507 167.225 34.507C166.963 34.507 166.423 34.4178 166.191 34.3619V36.0157C166.485 36.0885 167.163 36.2188 167.598 36.2188C168.61 36.2188 169.464 35.9626 170.182 35.4354C171.041 34.8043 171.993 33.1593 172.45 31.7507L177.188 16.838H175.12L172.02 27.3988L171.991 27.6309L171.933 27.3988L168.287 16.838H166.22ZM36.5326 18.2596C38.8198 18.2596 40.1789 20.2883 40.1789 23.6851C40.1789 27.0827 38.8198 29.1105 36.5326 29.1105C34.2491 29.1105 32.8863 27.0827 32.8863 23.6851C32.8863 20.2883 34.2491 18.2596 36.5326 18.2596ZM58.4391 18.2886C59.6377 18.2886 60.69 18.812 61.6834 20.0584V26.6154C61.1335 28.197 59.5587 29.1105 58.4391 29.1105C56.2481 29.1105 54.7354 27.7319 54.7354 23.598C54.7354 20.122 56.0929 18.2886 58.4391 18.2886ZM159.157 18.2886C161.591 18.2886 162.679 19.5893 162.688 22.4085H155.539C155.725 19.5916 156.893 18.2886 159.157 18.2886ZM74.833 23.1338V26.6154C74.7351 27.8174 72.5122 29.2722 70.6986 29.1686C69.698 29.1131 68.7339 28.2989 68.6314 26.9636C68.4654 24.7321 70.1246 23.8057 73.8281 23.3949C74.0857 23.3711 74.5844 23.2787 74.833 23.1338ZM127.891 23.1338V26.6154C127.793 27.8169 125.57 29.2722 123.756 29.1686C122.758 29.1126 121.789 28.2984 121.689 26.9636C121.521 24.7321 123.182 23.8057 126.886 23.3949C127.142 23.3711 127.644 23.2787 127.891 23.1338Z"/>
  </symbol>

  <symbol id="deutschebank" viewBox="0 0 121 80" xmlns="http://www.w3.org/2000/svg">
    <path d="M3.93203 79.0328H0V66.982H3.93203C8.09201 66.982 10.3216 69.0323 10.3216 72.9991C10.3216 76.9322 8.46954 79.0328 3.93203 79.0328ZM3.6471 68.8152H2.3578V77.1988H3.61861C6.86681 77.2657 7.91393 75.666 7.91393 73.0157C7.91393 70.0987 6.41092 68.8152 3.6471 68.8152Z"/>
    <path d="M13.9259 73.9491C13.9901 72.8489 14.5243 71.832 15.7566 71.832C16.9533 71.832 17.5446 72.7318 17.4947 73.9491H13.9259ZM15.8279 70.4156C12.6865 70.4156 11.5966 72.6656 11.5966 74.782C11.5966 77.2994 12.8503 79.1822 15.5287 79.2656C17.6585 79.2828 19.5462 78.6325 19.6744 76.2825H17.4947C17.4947 77.2326 16.7325 77.8492 15.8421 77.8492C14.3391 77.8492 13.8618 76.7324 13.8405 75.3656L19.8596 75.349C20.0377 72.8489 18.9621 70.4156 15.8279 70.4156Z"/>
    <path d="M29.5259 79.0328H27.2749L27.2607 77.6659C26.8831 78.7489 25.836 79.2994 24.5538 79.2994C23.0295 79.2994 21.5906 78.3659 21.5763 76.1323V70.7153H23.8558V75.8154C23.8415 77.0155 24.3045 77.6824 25.4229 77.699C26.4344 77.699 27.2607 77.1154 27.2607 75.4992V70.7153H29.5259V79.0328Z"/>
    <path d="M32.4464 70.749V69.4318L34.6475 68.2654V70.749H36.7488V72.3653H34.6475V76.3824C34.6475 77.1988 34.9253 77.6659 35.7516 77.699C36.065 77.699 36.3499 77.732 36.7631 77.6156V79.0493C35.6874 79.1995 34.448 79.4826 33.4223 78.9321C32.6458 78.5161 32.4464 77.7823 32.4464 76.616V72.3653H30.6798V70.749H32.4464Z"/>
    <path d="M45.3039 75.4489C45.6672 76.1827 45.6529 77.1492 45.2041 77.8161C44.4277 79.0155 42.7395 79.3159 41.4359 79.2828C39.5839 79.1657 37.9384 78.6828 38.0168 76.4493H40.2677C40.2464 77.4158 40.8447 77.7658 41.6995 77.7989C42.5258 77.7989 43.3521 77.5157 43.3521 76.7489C43.3521 76.1323 42.7751 75.8657 42.0343 75.699C41.1866 75.5158 40.5812 75.4324 39.6338 75.0486C38.8787 74.6821 38.1308 74.0655 38.1308 72.8992C38.1308 71.9319 38.8787 71.1989 39.8546 70.7986C40.5099 70.5155 41.322 70.4321 42.02 70.4321C43.5872 70.4321 45.2896 70.9819 45.1899 72.9818H43.0743C43.0743 72.6822 43.0102 72.3487 42.7609 72.149C42.2979 71.7321 40.8732 71.6818 40.4316 72.3653C39.9329 73.5323 41.4716 73.6157 43.174 74.0821C44.2496 74.3322 44.9762 74.782 45.3039 75.4489Z"/>
    <path d="M50.9383 70.3984C52.7405 70.3984 54.6068 71.232 54.6068 73.5158L52.3915 73.4986C52.3915 72.4321 51.8145 71.7817 50.7246 71.832C50.4397 71.8486 50.1405 71.9485 49.8983 72.0821C49.2145 72.4824 49.0008 73.5992 49.0008 74.7159C49.0008 75.8988 49.2857 77.0493 49.7986 77.4654C50.1405 77.7989 50.7531 77.8995 51.2803 77.7989C52.1564 77.6494 52.42 76.782 52.4413 76.0325L54.6068 76.0159C54.6353 78.3989 52.7049 79.2994 50.689 79.2656C47.9964 79.1657 46.757 77.3993 46.757 74.782C46.757 72.1324 48.26 70.3984 50.9383 70.3984Z"/>
    <path d="M56.352 66.9985H58.6315V72.0318C59.2298 70.9653 60.1202 70.499 61.324 70.499C62.8484 70.499 64.2873 71.6488 64.2873 73.2988V79.0327H62.0364V73.9319C62.0364 72.7986 61.5591 72.049 60.4835 72.049C59.4791 72.049 58.6172 72.7152 58.6172 74.2488V79.0327H56.352V66.9985Z"/>
    <path d="M68.3832 73.9491C68.4473 72.8489 68.9744 71.832 70.2139 71.832C71.4034 71.832 72.0018 72.7318 71.9519 73.9491H68.3832ZM70.2851 70.4156C67.1438 70.4156 66.0539 72.6656 66.0539 74.782C66.0539 77.2994 67.3076 79.1822 69.9859 79.2656C72.1158 79.2828 74.0034 78.6325 74.1317 76.2825H71.9519C71.9519 77.2326 71.1898 77.8492 70.2993 77.8492C68.7963 77.8492 68.3191 76.7324 68.2977 75.3656L74.3169 75.349C74.4949 72.8489 73.4193 70.4156 70.2851 70.4156Z"/>
    <path d="M88.371 78.6828C87.6017 78.9322 86.6044 79.0328 85.536 79.0328H81.2193V67.015H85.8138C87.8653 67.015 90.0094 67.6654 90.0948 69.9823C90.1447 71.449 89.1546 72.3818 87.9151 72.7986C88.8696 73.0487 89.6461 73.3318 90.1732 74.2323C90.6362 75.0321 90.6718 76.0993 90.2943 76.9825C89.8954 77.8161 89.2828 78.3659 88.371 78.6828ZM85.8138 68.8152H83.4845V71.9319H85.8494C87.0888 71.9319 87.7299 71.4153 87.7299 70.3984C87.7299 69.4483 86.9891 68.8152 85.8138 68.8152ZM86.0488 73.7321L83.4845 73.7156V77.2491H85.9634C87.6159 77.2491 88.1431 76.432 88.1431 75.4159C88.1431 74.6326 87.5803 73.7156 86.0488 73.7321Z"/>
    <path d="M95.5797 77.8327C94.7392 77.7658 94.2406 77.349 94.2406 76.5492C94.2548 74.7993 96.4559 74.9825 97.5956 74.9825C97.6455 76.3659 97.5315 77.7989 95.5797 77.8327ZM99.7611 72.9991C99.7611 71.2988 97.9447 70.4487 95.8433 70.4652C93.8417 70.499 92.3885 71.1486 92.36 73.099H94.554C94.5041 72.1986 95.1167 71.7322 95.9288 71.7156C97.1468 71.7156 97.6953 72.2819 97.5814 73.6825C96.3704 73.7487 94.7534 73.6653 93.5496 74.2323C92.6734 74.6491 91.9967 75.4324 91.9967 76.6821C91.9967 78.2825 93.1008 79.2491 94.7178 79.2994C95.8789 79.4158 97.1967 78.8991 97.7096 77.8161L97.7951 79.0328H99.7611C99.7611 77.0156 99.7611 75.0321 99.7611 72.9991Z"/>
    <path d="M101.955 70.7153H104.234V72.0491C104.833 70.9654 105.923 70.499 107.148 70.499C108.516 70.499 109.919 71.2988 109.919 73.2988V79.0328H107.639V73.9319C107.654 72.8489 107.127 72.0491 106.087 72.0491C105.061 72.0491 104.22 72.7153 104.22 74.2488V79.0328H101.955V70.7153Z"/>
    <path d="M117.897 79.0327L114.428 74.2653L117.569 70.7153H120.248L116.992 74.182L120.825 79.0327H117.897ZM112.12 66.9985H114.364V79.0327H112.12V66.9985Z"/>
    <path d="M33.2775 0H87.6757V54.3982H33.2775V0ZM66.3331 12.8842L45.084 41.2878H54.6868L76.016 12.8842H66.3331ZM40.8502 46.864H80.1029V7.53554H40.8502V46.864Z"/>
  </symbol>

  <symbol id="jpmorgan" viewBox="0 0 131 28" xmlns="http://www.w3.org/2000/svg">
    <path d="M13.2497 1.03997H5.53945V1.66264H8.03915V14.3413C8.03915 18.1866 6.99783 19.2253 4.6024 19.2253C3.14402 19.2253 2.83123 18.0826 2.83123 17.5626C2.83123 16.212 2.72696 15.2773 1.47578 15.2773C0.225932 15.2773 0.0187378 16.524 0.0187378 16.94C0.0187378 18.7066 0.851524 20.0573 4.28961 20.0573C8.45754 20.0573 10.6444 18.7066 10.6444 14.0306V1.6613H13.1455V1.03997H13.2497V1.03997ZM14.2924 17.1466C13.8753 17.1466 13.4583 17.2533 13.2497 17.5626C12.9369 17.8746 12.8327 18.1866 12.8327 18.6026C12.8327 19.016 12.9369 19.3293 13.2497 19.6426C13.5625 19.9533 13.8753 20.056 14.2924 20.056C14.7081 20.056 15.0209 19.952 15.3337 19.6426C15.6465 19.3306 15.7508 19.016 15.7508 18.6026C15.7508 18.1866 15.6465 17.8746 15.3337 17.5626C15.0209 17.2506 14.7081 17.1466 14.2911 17.1466H14.2924ZM31.3785 17.1466C30.9615 17.1466 30.6487 17.2533 30.3359 17.5626C30.0244 17.8746 29.9202 18.1866 29.9202 18.6026C29.9202 19.016 30.0244 19.3293 30.3359 19.6426C30.6487 19.9533 30.9615 20.056 31.3785 20.056C31.7956 20.056 32.2113 19.952 32.4212 19.6426C32.7326 19.3293 32.8369 19.016 32.8369 18.6026C32.8369 18.1866 32.7326 17.8746 32.4199 17.5626C32.1071 17.2506 31.7956 17.1466 31.3772 17.1466H31.3785ZM25.9594 1.03997H18.4577V1.66264H20.6459V16.2133C20.6459 17.356 20.5416 17.6666 20.4374 17.9786C20.3331 18.396 20.0203 18.604 19.499 18.812C19.1875 18.916 18.6662 19.0186 17.9363 19.0186V19.6426H26.0637V19.0186C25.3338 19.0186 24.8138 18.916 24.4997 18.812C23.9797 18.604 23.6669 18.292 23.564 17.98C23.4249 17.615 23.3538 17.2278 23.3541 16.8373V11.8466H25.3338C31.1687 11.8466 32.8356 9.5613 32.8356 6.44263C32.8356 3.2213 31.8985 1.03864 25.9594 1.03864V1.03997ZM24.9168 11.12H23.3541V1.76664H24.7096C29.189 1.76664 30.2303 3.6373 30.2303 6.54663C30.2303 9.55997 28.4604 11.12 24.9168 11.12V11.12ZM56.9035 17.8746C56.7661 17.4733 56.6956 17.0521 56.695 16.628V1.66264H58.6733V1.03997H53.8838C53.7795 1.24797 48.1546 15.1733 48.1546 15.1733L48.0503 15.2786C47.946 15.2786 47.946 15.2786 47.946 15.1746C47.946 15.1746 41.904 1.14397 41.904 1.03997H36.5865V1.66397H38.879V17.46C38.879 17.7733 38.7747 18.0853 38.5662 18.396C38.3576 18.708 38.0448 18.916 37.732 19.0186C37.5235 19.1253 37.1078 19.1253 36.6894 19.1253V19.7466H41.9V19.1226C41.4829 19.1226 41.2744 19.0186 40.9629 19.0186C40.5459 18.9146 40.3373 18.7066 40.1288 18.3946C39.9203 18.1866 39.816 17.8746 39.816 17.46L39.7117 16.108V3.63597H40.0245C40.0245 3.63597 46.7964 19.432 46.9007 19.64H47.422L53.8811 3.7413H54.0897V16.628C54.0897 17.148 53.9854 17.5626 53.8811 17.9786C53.7769 18.3946 53.4654 18.6026 53.0483 18.8106C52.6118 18.955 52.154 19.0249 51.6942 19.0173V19.6413H58.9875V19.0173C58.5272 19.025 58.0689 18.9551 57.632 18.8106C57.3205 18.6026 57.0078 18.2906 56.9035 17.8746V17.8746ZM66.8007 6.02797C62.8413 6.02797 60.4458 8.6253 60.4458 13.0946C60.4458 19.7453 65.6551 20.1613 66.6964 20.1613C68.8846 20.1613 73.0526 18.8106 73.0526 12.992C73.0526 8.41863 70.343 6.02797 66.8007 6.02797V6.02797ZM66.6964 19.3293C63.7797 19.3293 63.2583 17.876 63.2583 13.1986C63.2583 9.5613 63.4669 6.85864 66.6964 6.85864C70.1345 6.85864 70.1345 9.66397 70.1345 12.9893C70.1345 17.6666 69.3017 19.3293 66.6964 19.3293ZM83.2639 6.23597C80.9701 6.23597 80.1386 7.58664 79.5117 9.0413H79.3032C79.3032 9.0413 78.9917 6.96263 78.8874 6.44263H74.3024V7.17063H76.8021V16.316C76.8021 17.2506 76.6992 17.876 76.492 18.2893C76.2821 18.7066 75.6565 19.0173 74.7195 19.0173H74.3024V19.8493H82.0127V19.0173H81.5957C80.553 19.0173 80.1386 18.8106 79.9274 18.3946C79.7202 17.9786 79.6159 17.3546 79.6159 16.42V11.432C79.6159 9.87197 80.8658 8.00263 82.3255 8.00263C83.8882 8.00263 83.7825 10.288 85.5551 9.3533C86.3892 8.8333 86.1807 6.23597 83.2639 6.23597V6.23597ZM113.581 18.2893C112.747 18.2893 112.54 17.876 112.435 17.044V9.7693C112.435 8.5213 112.226 7.79463 111.498 7.0653C110.769 6.33863 109.413 6.0253 107.435 6.0253C105.559 6.0253 104.205 6.33863 103.267 7.0653C102.434 7.69063 102.018 8.3133 102.018 9.2493C102.018 9.66263 102.123 9.97597 102.33 10.08C102.538 10.288 102.851 10.392 103.163 10.392C103.891 10.392 104.309 9.97864 104.517 9.0413C104.624 8.3133 104.829 7.89864 105.144 7.4813C105.558 7.06797 106.186 6.85864 106.913 6.85864C107.852 6.85864 108.58 7.0653 108.893 7.5853C109.206 8.1053 109.414 8.7293 109.414 9.55864V11.7426C107.016 11.9506 101.183 12.4693 101.496 16.8346C101.6 18.4973 103.06 20.056 105.038 20.056C107.226 20.056 108.579 18.8106 109.516 17.8733C109.622 18.8093 110.559 19.9533 112.123 19.9533C113.892 19.9533 114.935 19.1213 115.041 16.9386H114.624C114.624 17.7706 114.102 18.2906 113.581 18.2906V18.2893ZM109.623 16.836V16.94L109.519 17.044C108.269 18.188 107.228 18.604 106.498 18.604C104.622 18.604 104.309 17.044 104.309 16.3173C104.309 13.824 107.748 12.576 109.623 12.576V16.836V16.836ZM129.21 18.1866C129.002 17.772 128.689 17.1466 128.689 16.2133V10.184C128.689 9.3533 128.585 8.5213 128.272 8.00263C127.959 7.37863 127.439 6.96264 126.918 6.65064C126.292 6.33864 125.668 6.23597 124.939 6.23597C122.23 6.23597 121.187 7.89864 120.563 8.8333H120.354L119.833 6.44263H115.665V7.17063H117.75V16.316C117.75 17.044 117.645 17.5626 117.54 17.876C117.435 18.2893 117.126 18.6026 116.812 18.7066C116.603 18.8106 116.186 18.9146 115.665 18.9146V19.7453H122.228V18.9146C121.603 18.8106 121.081 18.7066 120.874 18.3946C120.666 18.0826 120.459 17.4586 120.459 16.524V12.9906C120.459 11.5373 120.459 10.08 120.98 9.2493C121.5 8.3133 122.541 7.79464 123.584 7.79464C124.626 7.79464 125.146 8.10663 125.461 8.7293C125.772 9.2493 125.875 10.808 125.875 11.8466V16.212C125.875 16.9386 125.982 17.4586 125.875 17.772C125.772 18.1853 125.668 18.4986 125.354 18.7053C125.146 18.9146 124.728 18.9146 124.312 19.0173V19.8493H130.67V19.0173C129.939 18.7066 129.419 18.4973 129.21 18.1866V18.1866ZM99.413 5.40397C98.9959 5.50797 98.7874 5.92397 98.5789 6.44397C98.4746 6.96397 98.2661 7.27464 97.9533 7.3773C97.6405 7.48264 97.329 7.48263 97.0162 7.27463C96.2877 6.65063 95.0365 5.92397 92.744 5.92397C88.9931 5.92397 87.4305 8.5213 87.4305 10.9106C87.4305 13.7173 88.4731 15.0693 90.8672 15.588C90.9728 15.588 90.9728 15.796 90.8672 15.796C88.8889 16.212 87.0134 16.836 87.0134 18.7066C87.0134 19.8506 87.639 20.4733 88.5774 20.8893C89.5131 21.304 90.8672 21.5133 92.5355 21.5133C93.9925 21.5133 95.0352 21.6173 95.6608 21.6173C96.2888 21.6981 96.8924 21.9107 97.4319 22.2413C97.849 22.5533 98.0575 23.0733 98.0575 23.6946C98.0575 24.6306 97.5362 25.2546 96.5992 25.8786C95.6634 26.3986 94.5139 26.6066 92.9526 26.6066C91.7027 26.6066 90.5571 26.5013 89.6187 25.8786C88.8902 25.4626 88.7846 24.632 88.8902 24.008C88.9958 23.384 88.7846 22.7613 88.0561 22.5533C87.8344 22.5045 87.6029 22.5289 87.3963 22.6227C87.1897 22.7164 87.0192 22.8746 86.9105 23.0733C86.7006 23.3826 86.5964 23.7986 86.5964 24.3186C86.5964 25.8773 87.8476 26.604 88.7846 26.916C90.243 27.3306 91.1827 27.436 92.4312 27.436C94.2037 27.436 95.5565 27.124 96.5992 26.708C97.6418 26.188 98.2674 25.5653 98.6831 24.8373C99.0989 24.1106 99.3087 23.3826 99.3087 22.6546C99.3087 21.72 99.0989 20.888 98.6831 20.3693C97.329 18.6026 95.4522 18.8093 91.2856 18.6026C89.3059 18.6026 88.8889 18.1866 88.8889 17.5626C88.8889 16.628 89.6187 16.316 92.5355 15.796C95.4522 15.38 98.1605 14.2373 98.1605 10.808C98.1605 9.76797 97.9533 8.9373 97.6391 8.31464C98.2661 8.4173 98.7874 8.4173 99.3074 8.31464C99.9343 8.10664 100.244 7.79464 100.454 7.48264C100.663 7.06664 100.766 6.65064 100.559 6.33864C100.663 5.50797 100.142 5.19597 99.413 5.40397V5.40397ZM92.8496 15.1733C91.0798 15.1733 90.1401 14.548 90.1401 11.016C90.1401 8.52264 90.9742 6.65064 92.8496 6.65064C95.0379 6.65064 95.6621 8.3133 95.6621 10.912C95.6621 14.6533 94.5165 15.1733 92.8496 15.1733Z"/>
  </symbol>

  <symbol id="anz" viewBox="0 0 102 31" xmlns="http://www.w3.org/2000/svg">
    <path d="M84.7764 9.06803C86.2903 9.06803 88.013 10.3334 88.013 12.0813C88.013 13.0659 87.6871 13.8265 87.2077 14.5213C86.9001 14.964 86.6656 15.4735 86.5691 15.8429C86.4648 16.2593 86.2367 17.268 87.5174 17.2849C88.3505 17.3051 90.4007 16.6068 92.057 14.6835C93.3313 13.1388 94.0887 11.1796 94.0887 9.04275C94.0887 4.04943 89.9244 0 84.7764 0C79.6269 0 75.4553 4.04943 75.4553 9.04275C75.4553 11.1796 76.2117 13.1388 77.4872 14.6835C79.1458 16.6068 81.1948 17.3048 82.0269 17.2849C83.3075 17.268 83.0756 16.2593 82.9764 15.8429C82.8821 15.4737 82.6466 14.964 82.3368 14.5213C81.8584 13.8265 81.5312 13.0659 81.5312 12.0813C81.535 10.3334 83.2555 9.06803 84.7764 9.06803V9.06803ZM101.249 18.2075C100.867 17.9032 100.198 17.4589 98.8228 17.255C96.9155 16.9804 95.2131 17.4111 94.1881 17.8028C92.8404 18.3164 91.1806 19.4839 90.034 21.0045C88.824 22.6115 88.1981 25.037 88.798 27.5656C88.9677 28.2773 89.1515 28.6781 89.4254 29.1773C89.7835 29.8554 90.7282 30.8019 91.5552 30.9728C92.2084 31.1028 92.7191 30.7411 92.9696 30.4677C94.6353 28.6094 100.949 21.4117 101.633 20.4926C102.305 19.5791 101.866 18.7018 101.249 18.2077V18.2075ZM75.3612 17.8028C74.3362 17.4111 72.6353 16.9806 70.7275 17.255C69.3529 17.4592 68.677 17.9032 68.3003 18.2075C67.6828 18.7018 67.2401 19.5794 67.916 20.4923C68.5965 21.4117 74.9089 28.6091 76.5748 30.4674C76.8253 30.7411 77.3361 31.1031 77.9905 30.9728C78.8224 30.8019 79.7633 29.8551 80.1203 29.177C80.3981 28.6781 80.5778 28.2771 80.7523 27.5656C81.3512 25.037 80.7154 22.6113 79.5168 21.0043C78.3687 19.4839 76.7063 18.3164 75.3612 17.8028V17.8028ZM64.2528 24.3854H56.4714L59.6647 20.3362H51.0194L47.939 24.2352C46.7873 25.7846 46.676 27.3484 46.676 28.4336V29.0472C46.676 29.7565 47.1322 30.142 47.8088 30.142H64.2528C64.9162 30.142 65.3634 29.7898 65.3634 29.0688V25.4626C65.3634 24.7366 64.9162 24.3854 64.2528 24.3854V24.3854ZM19.9561 10.0806C19.8323 9.40229 19.355 9.06803 18.7341 9.06803H16.5348C14.2465 9.06803 12.2268 10.237 11.0952 12.0025C11.0952 12.0025 8.99654 15.2342 6.64478 18.8716H21.5752L19.9561 10.0806V10.0806ZM44.5485 10.1415C44.5485 9.42045 44.1022 9.06803 43.4343 9.06803H38.9576C38.2944 9.06803 37.8469 9.42045 37.8469 10.1415V18.312L33.6037 10.9664C32.7555 9.61262 31.3278 9.09822 29.6616 9.06827H26.3529C25.6959 9.06827 25.2468 9.42045 25.2468 10.1417V18.8762H30.8082L31.6635 20.3365H25.2471V29.069C25.2471 29.7898 25.6959 30.1481 26.3532 30.1481H30.8406C31.5073 30.1481 31.9489 29.7898 31.9489 29.069L31.9464 20.8475L36.2294 28.2525C37.0686 29.5989 38.5016 30.1135 40.1566 30.1481H43.4343C44.1022 30.1481 44.5485 29.7898 44.5485 29.069V20.3365H39.0269L38.1742 18.8762H44.5485V10.1417V10.1415ZM21.8405 20.3362H14.4669C14.6555 21.3295 16.0156 28.7144 16.0959 29.1441C16.2213 29.809 16.6515 30.1479 17.2823 30.1479H22.3553C22.8202 30.1479 23.0544 30.0073 23.2728 29.7518C23.4214 29.5739 23.4833 29.3039 23.414 28.9088L21.8408 20.3362H21.8405ZM0.192467 28.8266C-0.0086099 29.1571 -0.0086097 29.5047 0.114228 29.7302C0.255671 29.994 0.570411 30.1481 0.910127 30.1481H6.17866C6.84331 30.1481 7.43711 29.8031 7.76791 29.2872L13.5821 20.3362H5.69521C2.98767 24.5158 0.260513 28.7301 0.192467 28.8266V28.8266ZM47.9563 14.8175H55.3695L52.1726 18.8713H60.8154L63.9676 14.8784C64.9411 13.6439 65.1664 12.5388 65.1664 11.5608V10.17C65.1664 9.45726 64.7189 9.06803 64.0374 9.06803H47.9563C47.293 9.06803 46.8493 9.42045 46.8493 10.1415V13.7477C46.8493 14.4668 47.293 14.8175 47.9563 14.8175"/>
  </symbol>

  <symbol id="DigitalOcean" viewBox="0 0 114 114" xmlns="http://www.w3.org/2000/svg">
    <path d="M56.9998 71.3306V60.317C68.6575 60.317 77.7066 48.756 73.2303 36.4865C71.588 31.978 67.949 28.339 63.4083 26.6967C51.1388 22.2526 39.5778 31.2696 39.5778 42.9272H28.5964C28.5964 24.3458 46.5659 9.8543 66.049 15.9407C74.5507 18.6136 81.3456 25.3763 83.9863 33.878C90.0727 53.3611 75.5812 71.3306 56.9998 71.3306Z"/>
    <path fill-rule="evenodd" clip-rule="evenodd" d="M57.0321 60.3815H46.0508V49.4001H57.0321V60.3815Z"/>
    <path fill-rule="evenodd" clip-rule="evenodd" d="M46.0506 68.7864H37.6455V60.3813H46.0506V68.7864Z"/>
    <path fill-rule="evenodd" clip-rule="evenodd" d="M37.6455 60.3814H30.593V53.3289H37.6455V60.3814Z"/>
    <path d="M10.0474 82.4729C8.63045 81.4746 6.82706 80.9916 4.76604 80.9916H0.257568V95.3221H4.79825C6.85926 95.3221 8.66265 94.8068 10.0796 93.7441C10.8525 93.1967 11.4643 92.4238 11.9152 91.4577C12.3338 90.4916 12.5593 89.3323 12.5593 88.0763C12.5593 86.8204 12.3338 85.6933 11.9152 84.7272C11.4643 83.7611 10.8525 82.9882 10.0474 82.4729ZM2.89825 83.4068H4.3152C5.89316 83.4068 7.1813 83.7289 8.1796 84.3407C9.27452 85.017 9.82198 86.2729 9.82198 88.0763C9.82198 89.9441 9.27452 91.2645 8.1796 91.9729C7.2457 92.5848 5.95757 92.9068 4.3474 92.9068H2.89825V83.4068Z"/>
    <path d="M15.6829 80.7985C15.2321 80.7985 14.8779 80.9595 14.5558 81.2493C14.266 81.5391 14.105 81.8934 14.105 82.3442C14.105 82.7951 14.266 83.1493 14.5558 83.4713C14.8457 83.7612 15.2321 83.9222 15.6829 83.9222C16.1016 83.9222 16.488 83.7612 16.8101 83.4713C17.0999 83.1815 17.2609 82.7951 17.2609 82.3442C17.2609 81.8934 17.0999 81.5391 16.8101 81.2493C16.488 80.9595 16.1016 80.7985 15.6829 80.7985Z"/>
    <path d="M16.9388 85.2103H14.3948V95.3222H16.9388V85.2103Z"/>
    <path d="M26.1812 86.0476C25.4083 85.3713 24.571 84.9526 23.6371 84.9526C22.2202 84.9526 21.0609 85.4357 20.1592 86.4018C19.2575 87.3357 18.7744 88.5594 18.7744 90.0408C18.7744 91.4577 19.2253 92.6814 20.127 93.6476C21.0287 94.5814 22.2202 95.0645 23.6049 95.0645C24.571 95.0645 25.4405 94.8069 26.1168 94.2594V94.4848C26.1168 95.3221 25.8914 95.9662 25.4405 96.417C24.9897 96.8679 24.3778 97.0933 23.6049 97.0933C22.4456 97.0933 21.7049 96.6425 20.8032 95.4187L19.0642 97.0933L19.0964 97.1577C19.4829 97.673 20.0303 98.1882 20.8032 98.6713C21.5439 99.1543 22.51 99.412 23.6371 99.412C25.1507 99.412 26.3744 98.9611 27.2761 98.0272C28.1778 97.0933 28.6287 95.8696 28.6287 94.356V85.1781H26.1168V86.0476H26.1812ZM25.5049 92.0374C25.0541 92.5526 24.4744 92.7781 23.7659 92.7781C23.0253 92.7781 22.4778 92.5204 22.027 92.0374C21.5761 91.5221 21.3829 90.8781 21.3829 90.073C21.3829 89.2357 21.6083 88.5916 22.027 88.0764C22.4456 87.5611 23.0575 87.3357 23.7659 87.3357C24.5066 87.3357 25.0541 87.5933 25.5049 88.0764C25.9558 88.5916 26.1812 89.2679 26.1812 90.073C26.1812 90.8781 25.9558 91.5221 25.5049 92.0374Z"/>
    <path d="M33.3949 85.2103H30.8508V95.3222H33.3949V85.2103Z"/>
    <path d="M32.139 80.7985C31.6882 80.7985 31.3339 80.9595 31.0119 81.2493C30.7221 81.5391 30.561 81.8934 30.561 82.3442C30.561 82.7951 30.7221 83.1493 31.0119 83.4713C31.3017 83.7612 31.6882 83.9222 32.139 83.9222C32.5576 83.9222 32.9441 83.7612 33.2661 83.4713C33.556 83.1815 33.717 82.7951 33.717 82.3442C33.717 81.8934 33.556 81.5391 33.2661 81.2493C32.9441 80.9595 32.5898 80.7985 32.139 80.7985Z"/>
    <path d="M38.9661 82.473H36.4543V85.2103H35.0051V87.5289H36.4543V91.7154C36.4543 93.0357 36.7119 93.9696 37.2272 94.5171C37.7424 95.0645 38.6763 95.3222 39.9644 95.3222C40.3831 95.3222 40.8017 95.3222 41.1882 95.29H41.317V92.9713L40.4475 93.0035C39.8356 93.0035 39.4492 92.9069 39.256 92.6815C39.0628 92.4561 38.9661 92.0052 38.9661 91.329V87.4968H41.3492V85.1781H38.9661V82.473Z"/>
    <path d="M55.8085 80.9595H53.2644V95.3222H55.8085V80.9595Z"/>
    <path d="M81.5066 91.7154C81.0558 92.2306 80.5727 92.6815 80.2185 92.9069C79.8643 93.1323 79.4134 93.2612 78.8981 93.2612C78.1575 93.2612 77.5456 93.0035 77.0626 92.4239C76.5795 91.8764 76.3219 91.1357 76.3219 90.2984C76.3219 89.429 76.5795 88.7205 77.0626 88.173C77.5456 87.6256 78.1575 87.3357 78.8981 87.3357C79.7032 87.3357 80.5727 87.851 81.3134 88.7205L82.988 87.1103C81.8931 85.6934 80.5083 85.0171 78.8337 85.0171C77.449 85.0171 76.2253 85.5323 75.227 86.5307C74.2287 87.529 73.7456 88.7849 73.7456 90.2984C73.7456 91.812 74.2609 93.0679 75.227 94.0662C76.2253 95.0645 77.4168 95.5798 78.8337 95.5798C80.6693 95.5798 82.1507 94.7747 83.1812 93.3256L81.5066 91.7154Z"/>
    <path d="M91.9728 86.6272C91.6186 86.112 91.1355 85.7255 90.5237 85.4357C89.9118 85.1459 89.2033 84.9849 88.4304 84.9849C87.0135 84.9849 85.8542 85.5001 84.9847 86.5306C84.1474 87.5611 83.6965 88.8171 83.6965 90.3306C83.6965 91.8764 84.1796 93.1323 85.0813 94.0984C86.0152 95.0645 87.2389 95.5476 88.7525 95.5476C90.4592 95.5476 91.8762 94.8391 92.9389 93.4865L93.0033 93.4221L91.3287 91.812C91.1677 92.0052 90.9423 92.1984 90.7491 92.3916C90.4914 92.6171 90.266 92.8103 90.0084 92.9391C89.622 93.1323 89.2033 93.2289 88.7203 93.2289C88.0118 93.2289 87.4321 93.0357 86.9813 92.6171C86.5626 92.2306 86.305 91.7154 86.2406 91.0713H92.9711L93.0033 90.1374C93.0033 89.4933 92.9067 88.8493 92.7457 88.2696C92.5847 87.6899 92.327 87.1425 91.9728 86.6272ZM86.4016 89.0103C86.5304 88.5272 86.7559 88.1086 87.0779 87.8188C87.4321 87.4645 87.883 87.3035 88.3982 87.3035C89.0101 87.3035 89.4931 87.4645 89.8152 87.8188C90.105 88.1408 90.2982 88.5272 90.3304 89.0103H86.4016Z"/>
    <path d="M101.73 85.9832C100.958 85.3391 99.8949 84.9849 98.5746 84.9849C97.7373 84.9849 96.9322 85.1781 96.2237 85.5323C95.5475 85.8544 94.9034 86.434 94.4847 87.1425L94.517 87.1747L96.1593 88.7205C96.8356 87.6577 97.5763 87.2713 98.5746 87.2713C99.122 87.2713 99.5407 87.4001 99.8949 87.6899C100.217 87.9798 100.41 88.334 100.41 88.7849V89.2679C99.7661 89.0747 99.1542 88.9781 98.5424 88.9781C97.2864 88.9781 96.2559 89.2679 95.4831 89.8476C94.7102 90.4272 94.3237 91.2967 94.3237 92.3916C94.3237 93.3577 94.6458 94.0984 95.322 94.6781C95.9983 95.2255 96.8034 95.5154 97.7695 95.5154C98.7356 95.5154 99.6373 95.1289 100.475 94.4527V95.2899H102.986V88.7849C102.89 87.5933 102.503 86.6272 101.73 85.9832ZM97.222 91.4577C97.5119 91.2645 97.9305 91.1679 98.4458 91.1679C99.0576 91.1679 99.7017 91.2967 100.378 91.5222V92.5205C99.8305 93.0357 99.0898 93.2933 98.1881 93.2933C97.7373 93.2933 97.4153 93.1967 97.1576 93.0035C96.9322 92.8103 96.8034 92.5849 96.8034 92.2628C96.8034 91.9086 96.9322 91.651 97.222 91.4577Z"/>
    <path d="M112.68 86.1764C111.971 85.3713 110.973 84.9849 109.717 84.9849C108.719 84.9849 107.881 85.2747 107.269 85.8544V85.2425H104.79V95.3222H107.334V89.751C107.334 88.9781 107.527 88.3662 107.881 87.9476C108.236 87.5289 108.719 87.3035 109.395 87.3035C109.975 87.3035 110.393 87.4967 110.715 87.8832C111.037 88.2696 111.198 88.8171 111.198 89.4611V95.3222H113.742V89.4611C113.742 88.0764 113.388 86.9493 112.68 86.1764Z"/>
    <path d="M50.0762 85.9832C49.3033 85.3391 48.2406 84.9849 46.9203 84.9849C46.083 84.9849 45.2779 85.1781 44.5694 85.5323C43.8932 85.8544 43.2491 86.434 42.8305 87.1425L42.8627 87.1747L44.505 88.7205C45.1813 87.6577 45.922 87.2713 46.9203 87.2713C47.4677 87.2713 47.8864 87.4001 48.2406 87.6899C48.5627 87.9798 48.7559 88.334 48.7559 88.7849V89.2679C48.1118 89.0747 47.4999 88.9781 46.8881 88.9781C45.6321 88.9781 44.6016 89.2679 43.8288 89.8476C43.0559 90.4272 42.6694 91.2967 42.6694 92.3916C42.6694 93.3577 42.9915 94.0984 43.6677 94.6781C44.344 95.2255 45.1491 95.5154 46.1152 95.5154C47.0813 95.5154 47.983 95.1289 48.8203 94.4527V95.2899H51.3321V88.7849C51.2355 87.5933 50.8491 86.6272 50.0762 85.9832ZM45.5677 91.4577C45.8576 91.2645 46.2762 91.1679 46.7915 91.1679C47.4033 91.1679 48.0474 91.2967 48.7237 91.5222V92.5205C48.1762 93.0357 47.4355 93.2933 46.5338 93.2933C46.083 93.2933 45.761 93.1967 45.5033 93.0035C45.2779 92.8103 45.1491 92.5849 45.1491 92.2628C45.1491 91.9086 45.2779 91.651 45.5677 91.4577Z"/>
    <path d="M65.0508 95.5476C60.961 95.5476 57.644 92.2306 57.644 88.1408C57.644 84.051 60.961 80.734 65.0508 80.734C69.1407 80.734 72.4576 84.051 72.4576 88.1408C72.4576 92.2306 69.1407 95.5476 65.0508 95.5476ZM65.0508 83.3425C62.4102 83.3425 60.2525 85.5001 60.2525 88.1408C60.2525 90.7815 62.4102 92.9391 65.0508 92.9391C67.6915 92.9391 69.8491 90.7815 69.8491 88.1408C69.8491 85.5001 67.6915 83.3425 65.0508 83.3425Z"/>
  </symbol>

  <symbol id="kkr" viewBox="0 0 142 34" xmlns="http://www.w3.org/2000/svg">
    <path d="M31.8776 34L15.7097 16.1085L5.58017 23.6682V34H0V0H5.58017V17.6051L29.1368 0H37.1788L19.9836 12.8655L39.0374 34H31.8776Z"/>
    <path d="M84.0903 34L67.9236 16.1085L57.7907 23.6682V34H52.2094V0H57.7907V17.6051L81.3507 0H89.3916L72.1952 12.8655L91.2535 34H84.0903Z"/>
    <path d="M135.534 34L126.431 21.0371H109.418V34H103.848V0H130.379C137.445 0 141.713 4.13226 141.713 10.7065C141.713 16.7135 137.998 19.9118 132.979 20.7541L142 34.0011H135.534V34ZM136.004 10.7054C136.004 6.94553 133.72 5.11432 129.038 5.11432H109.418V15.9148H129.539C133.72 15.9148 136.004 14.0377 136.004 10.7054Z"/>
  </symbol>
</svg>
