<svg width="41" height="35" viewBox="0 0 41 35" fill="none" xmlns="http://www.w3.org/2000/svg">
<path d="M1 11.5601L18.9639 23.1299C19.3506 23.3252 19.8087 23.4401 20.3024 23.4401C20.796 23.4401 21.2541 23.3252 21.6408 23.1299H21.6448L39.28 11.5601" stroke="#3C71E9" stroke-width="2" stroke-linecap="round" stroke-linejoin="round"/>
<path fill-rule="evenodd" clip-rule="evenodd" d="M20.8 17.5C20.8 17.8643 20.5043 18.16 20.14 18.16C19.7757 18.16 19.48 17.8643 19.48 17.5C19.48 17.1356 19.7757 16.84 20.14 16.84C20.5043 16.84 20.8 17.1356 20.8 17.5Z" stroke="#3C71E9" stroke-width="2" stroke-linecap="round" stroke-linejoin="round"/>
<path fill-rule="evenodd" clip-rule="evenodd" d="M37.3 34H2.98C1.88572 34 1 33.1143 1 32.02V8.26003C1 7.16575 1.88572 6.28003 2.98 6.28003H37.3C38.3943 6.28003 39.28 7.16575 39.28 8.26003V32.02C39.28 33.1143 38.3943 34 37.3 34Z" stroke="#3C71E9" stroke-width="2" stroke-linecap="round" stroke-linejoin="round"/>
<path fill-rule="evenodd" clip-rule="evenodd" d="M27.4 6.28H12.88V2.98C12.88 1.88572 13.7657 1 14.86 1H25.42C26.5143 1 27.4 1.88572 27.4 2.98V6.28Z" stroke="#3C71E9" stroke-width="2" stroke-linecap="round" stroke-linejoin="round"/>
</svg>
