<svg width="30" height="42" viewBox="0 0 30 42" fill="none" xmlns="http://www.w3.org/2000/svg">
<path fill-rule="evenodd" clip-rule="evenodd" d="M29 3L25 12.9979L29 23H2V41H1V1H2V3H29ZM27.5229 4H2V22H27.5231L23.923 12.9978L27.5229 4Z" fill="#3C71E9"/>
<path d="M25 12.9979L24.5358 12.8122L24.4615 12.9979L24.5357 13.1836L25 12.9979ZM29 3L29.4642 3.18573L29.7386 2.5H29V3ZM29 23V23.5H29.7385L29.4643 22.8143L29 23ZM2 23V22.5H1.5V23H2ZM2 41V41.5H2.5V41H2ZM1 41H0.5V41.5H1V41ZM1 1V0.5H0.5V1H1ZM2 1H2.5V0.5H2V1ZM2 3H1.5V3.5H2V3ZM2 4V3.5H1.5V4H2ZM27.5229 4L27.9871 4.18573L28.2615 3.5H27.5229V4ZM2 22H1.5V22.5H2V22ZM27.5231 22V22.5H28.2615L27.9873 21.8143L27.5231 22ZM23.923 12.9978L23.4587 12.8121L23.3845 12.9978L23.4587 13.1835L23.923 12.9978ZM25.4642 13.1837L29.4642 3.18573L28.5358 2.81427L24.5358 12.8122L25.4642 13.1837ZM29.4643 22.8143L25.4643 12.8123L24.5357 13.1836L28.5357 23.1857L29.4643 22.8143ZM2 23.5H29V22.5H2V23.5ZM2.5 41V23H1.5V41H2.5ZM1 41.5H2V40.5H1V41.5ZM0.5 1V41H1.5V1H0.5ZM2 0.5H1V1.5H2V0.5ZM2.5 3V1H1.5V3H2.5ZM29 2.5H2V3.5H29V2.5ZM2 4.5H27.5229V3.5H2V4.5ZM2.5 22V4H1.5V22H2.5ZM27.5231 21.5H2V22.5H27.5231V21.5ZM23.4587 13.1835L27.0588 22.1857L27.9873 21.8143L24.3872 12.8121L23.4587 13.1835ZM27.0587 3.81427L23.4587 12.8121L24.3872 13.1835L27.9871 4.18573L27.0587 3.81427Z" fill="#3C71E9"/>
</svg>
