<svg width="125" height="643" viewBox="0 0 125 643" fill="none" xmlns="http://www.w3.org/2000/svg">
<path fill-rule="evenodd" clip-rule="evenodd" d="M57.81 574.697C54.17 578.337 52.35 584.317 52.35 592.637V609.407C52.35 611.357 52.025 612.722 51.375 613.502C50.595 614.282 49.36 614.672 47.67 614.672H25.83C22.58 614.672 20.955 612.917 20.955 609.407V602.777C20.955 599.267 22.58 597.512 25.83 597.512H38.115L38.115 569.627H21.93C7.62998 569.627 0.47998 577.817 0.47998 594.197L0.47998 617.987C0.47998 634.367 7.62998 642.557 21.93 642.557H50.205C64.765 642.557 72.045 634.887 72.045 619.547V602.387C72.045 600.437 72.435 599.072 73.215 598.292C73.865 597.512 75.035 597.122 76.725 597.122H99.15C102.4 597.122 104.025 598.877 104.025 602.387V609.017C104.025 612.527 102.4 614.282 99.15 614.282H86.865V642.167H102.855C117.285 642.167 124.5 633.912 124.5 617.402V593.807C124.5 577.427 117.285 569.237 102.855 569.237H73.605C66.585 569.237 61.32 571.057 57.81 574.697ZM88.865 640.167H102.855C109.686 640.167 114.466 638.226 117.583 634.66C120.744 631.042 122.5 625.41 122.5 617.402V593.807C122.5 585.867 120.746 580.286 117.588 576.702C114.473 573.165 109.691 571.237 102.855 571.237H73.605C66.9121 571.237 62.2554 572.968 59.2497 576.085L59.2371 576.098L59.2242 576.111C56.1342 579.201 54.35 584.534 54.35 592.637V609.407C54.35 611.453 54.0345 613.435 52.9114 614.782L52.8533 614.852L52.7892 614.916C51.4757 616.23 49.6139 616.672 47.67 616.672H25.83C23.8555 616.672 22.0184 616.132 20.7062 614.715C19.4209 613.327 18.955 611.434 18.955 609.407V602.777C18.955 600.75 19.4209 598.858 20.7062 597.47C22.0184 596.052 23.8555 595.512 25.83 595.512H36.115L36.115 571.627H21.93C15.1643 571.627 10.4334 573.552 7.34912 577.085C4.21951 580.67 2.47998 586.254 2.47998 594.197L2.47998 617.987C2.47998 625.93 4.21951 631.514 7.34912 635.099C10.4334 638.632 15.1643 640.557 21.93 640.557H50.205C57.1493 640.557 61.997 638.733 65.1344 635.428C68.2903 632.103 70.045 626.934 70.045 619.547V602.387C70.045 600.315 70.4325 598.298 71.7378 596.942C72.9618 595.532 74.856 595.122 76.725 595.122H99.15C101.124 595.122 102.962 595.662 104.274 597.08C105.559 598.468 106.025 600.36 106.025 602.387V609.017C106.025 611.044 105.559 612.937 104.274 614.325C102.962 615.742 101.124 616.282 99.15 616.282H88.865V640.167ZM106.025 528.067H69.655L69.655 495.502H53.18V528.067H18.955L18.955 489.847H2.47998L2.47998 551.952H122.5L122.5 488.287H106.025L106.025 528.067ZM104.025 526.067H71.655V493.502H51.18V526.067H20.955L20.955 487.847H0.47998L0.47998 553.952H124.5L124.5 486.287H104.025V526.067ZM104.415 446.082C103.635 446.862 102.335 447.252 100.515 447.252H24.465C21.215 447.252 19.59 445.497 19.59 441.987L19.59 433.992C19.59 430.612 21.215 428.922 24.465 428.922H43.965V400.842H21.93C7.62998 400.842 0.47998 409.097 0.47998 425.607L0.47998 450.567C0.47998 466.947 7.62998 475.137 21.93 475.137H103.05C117.35 475.137 124.5 466.947 124.5 450.567V425.607C124.5 409.097 117.35 400.842 103.05 400.842H81.6V428.922H100.515C102.335 428.922 103.635 429.312 104.415 430.092C105.065 430.872 105.39 432.172 105.39 433.992V441.987C105.39 443.937 105.065 445.302 104.415 446.082ZM83.6 426.922H100.515C102.538 426.922 104.493 427.342 105.829 428.678L105.893 428.742L105.951 428.812C107.06 430.143 107.39 432.035 107.39 433.992V441.987C107.39 444.033 107.074 446.015 105.951 447.363L105.893 447.432L105.829 447.497C104.493 448.833 102.538 449.252 100.515 449.252H24.465C22.4905 449.252 20.6534 448.712 19.3412 447.295C18.0559 445.907 17.59 444.014 17.59 441.987L17.59 433.992C17.59 432.013 18.0646 430.158 19.3671 428.804C20.6836 427.435 22.5113 426.922 24.465 426.922H41.965V402.842H21.93C15.1691 402.842 10.44 404.781 7.35425 408.343C4.22094 411.961 2.47998 417.596 2.47998 425.607L2.47998 450.567C2.47998 458.511 4.21951 464.095 7.34912 467.68C10.4334 471.213 15.1643 473.137 21.93 473.137H103.05C109.816 473.137 114.547 471.213 117.631 467.68C120.76 464.095 122.5 458.511 122.5 450.567V425.607C122.5 417.596 120.759 411.961 117.626 408.343C114.54 404.781 109.811 402.842 103.05 402.842H83.6V426.922ZM2.47998 313.104L2.47998 336.989H99.15C101.124 336.989 102.962 337.53 104.274 338.947C105.559 340.335 106.025 342.228 106.025 344.254V353.614C106.025 355.593 105.55 357.449 104.248 358.803C102.931 360.172 101.104 360.684 99.15 360.684H2.47998L2.47998 384.569H102.855C109.691 384.569 114.473 382.641 117.588 379.105C120.746 375.52 122.5 369.939 122.5 361.999V335.869C122.5 327.861 120.744 322.229 117.583 318.612C114.466 315.046 109.686 313.104 102.855 313.104H2.47998ZM76.09 268.136V259.931L122.5 240.431V215.055L75.9024 236.621L75.3588 234.205C74.2674 229.354 72.167 225.914 69.1827 223.662C66.1825 221.398 62.066 220.166 56.64 220.166H21.93C15.1643 220.166 10.4334 222.09 7.34912 225.623C4.21951 229.208 2.47998 234.792 2.47998 242.736L2.47998 291.826H122.5V268.136H76.09ZM124.5 211.926V241.761L78.09 261.261V266.136H124.5V293.826H0.47998L0.47998 242.736C0.47998 226.356 7.62998 218.166 21.93 218.166H56.64C67.3351 218.166 74.0534 222.71 76.795 231.8C76.9859 232.433 77.1576 233.088 77.31 233.766L124.5 211.926ZM18.955 268.136L18.955 251.121C18.955 249.141 19.4296 247.286 20.7321 245.932C22.0486 244.563 23.8763 244.051 25.83 244.051H53.715C55.6589 244.051 57.5207 244.493 58.8342 245.806L58.8983 245.87L58.9564 245.94C60.0653 247.271 60.395 249.164 60.395 251.121V268.136H18.955ZM58.395 266.136H20.955L20.955 251.121C20.955 247.741 22.58 246.051 25.83 246.051H53.715C55.405 246.051 56.64 246.441 57.42 247.221C58.07 248.001 58.395 249.301 58.395 251.121V266.136ZM2.47998 176.144L2.47998 199.834H122.5V176.144H2.47998ZM0.47998 89.1197L84.33 57.9197H124.5V30.0347H84.525L0.47998 0.199707L0.47998 28.6697L58.785 44.0747L0.47998 60.6497L0.47998 89.1197ZM2.47998 86.2415L83.97 55.9197H122.5V32.0347H84.1805L2.47998 3.03198L2.47998 27.1295L66.3473 44.0042L2.47998 62.1604L2.47998 86.2415ZM0.47998 163.754H20.955L20.955 141.134H124.5V113.249H20.955L20.955 90.4344H0.47998L0.47998 163.754ZM2.47998 92.4344L2.47998 161.754H18.955L18.955 139.134H122.5V115.249H18.955V92.4344H2.47998ZM0.47998 338.989H99.15C102.4 338.989 104.025 340.744 104.025 344.254V353.614C104.025 356.994 102.4 358.684 99.15 358.684H0.47998L0.47998 386.569H102.855C117.285 386.569 124.5 378.379 124.5 361.999V335.869C124.5 319.359 117.285 311.104 102.855 311.104H0.47998L0.47998 338.989ZM0.47998 201.834H124.5V174.144H0.47998L0.47998 201.834Z" fill="#3C71E9"/>
</svg>
