<svg width="375" height="73" viewBox="0 0 375 73" fill="none" xmlns="http://www.w3.org/2000/svg">
<path fill-rule="evenodd" clip-rule="evenodd" d="M39.6158 33.7453C37.4908 31.6027 33.9998 30.5314 29.1427 30.5314H19.3525C18.2142 30.5314 17.4173 30.3401 16.9619 29.9575C16.5066 29.4984 16.2789 28.7715 16.2789 27.7767V14.9214C16.2789 13.0084 17.3034 12.0519 19.3525 12.0519H23.2231C25.2721 12.0519 26.2967 13.0084 26.2967 14.9214V22.1525H42.5756V12.6258C42.5756 4.2086 37.7944 0 28.2319 0L14.3437 0C4.78122 0 0 4.2086 0 12.6258L0 29.2689C0 37.8391 4.47765 42.1242 13.4329 42.1242H23.4507C24.5891 42.1242 25.386 42.3538 25.8413 42.8129C26.2967 43.1955 26.5244 43.8842 26.5244 44.8789V58.0786C26.5244 59.9916 25.4998 60.9481 23.4507 60.9481H19.5802C17.5311 60.9481 16.5066 59.9916 16.5066 58.0786V50.8475H0.227677V60.2594C0.227677 68.7531 5.04684 73 14.6852 73H28.4596C38.0221 73 42.8033 68.7531 42.8033 60.2594V43.0425C42.8033 38.9104 41.7408 35.8113 39.6158 33.7453ZM1.39525 52.0247V60.2594C1.39525 64.2805 2.52872 67.094 4.61041 68.9285C6.72214 70.7894 10.0103 71.8228 14.6852 71.8228H28.4596C33.0947 71.8228 36.3529 70.7903 38.4456 68.9315C40.51 67.0978 41.6357 64.2834 41.6357 60.2594V43.0425C41.6357 39.1029 40.625 36.3619 38.8053 34.5927L38.7977 34.5853L38.7902 34.5777C36.9863 32.7589 33.873 31.7087 29.1427 31.7087H19.3525C18.1582 31.7087 17.0012 31.523 16.2145 30.8619L16.1738 30.8277L16.1363 30.79C15.3695 30.0168 15.1113 28.9209 15.1113 27.7767V14.9214C15.1113 13.7592 15.4267 12.6778 16.2541 11.9055C17.0644 11.1489 18.1694 10.8747 19.3525 10.8747H23.2231C24.4062 10.8747 25.5112 11.1489 26.3215 11.9055C27.1489 12.6778 27.4643 13.7592 27.4643 14.9214V20.9753H41.408V12.6258C41.408 8.64338 40.2843 5.85874 38.2218 4.04327C36.1291 2.20114 32.8692 1.17723 28.2319 1.17723H14.3437C9.70642 1.17723 6.44655 2.20114 4.35378 4.04327C2.2913 5.85874 1.16757 8.64338 1.16757 12.6258V29.2689C1.16757 33.3564 2.23236 36.2098 4.16202 38.0565C6.1031 39.9141 9.12051 40.947 13.4329 40.947H23.4507C24.6606 40.947 25.838 41.1751 26.6295 41.9434C27.4524 42.6639 27.6919 43.7788 27.6919 44.8789V58.0786C27.6919 59.2408 27.3765 60.3222 26.5492 61.0945C25.7389 61.8511 24.6339 62.1253 23.4507 62.1253H19.5802C18.3971 62.1253 17.2921 61.8511 16.4817 61.0945C15.6544 60.3222 15.339 59.2408 15.339 58.0786V52.0247H1.39525ZM66.8376 62.1253V40.7174H85.8486V31.02H66.8376V10.8747H89.1499V1.17723H52.8938V71.8228H90.0606V62.1253H66.8376ZM68.0052 60.9481V41.8947H87.0162V29.8428H68.0052V12.0519H90.3175V0L51.7263 0V73H91.2282V60.9481H68.0052ZM114.699 61.1777C114.244 60.7186 114.016 59.9534 114.016 58.8821V14.1179C114.016 12.2049 115.041 11.2484 117.09 11.2484H121.757C123.731 11.2484 124.717 12.2049 124.717 14.1179V25.5959H141.11V12.6258C141.11 4.2086 136.291 0 126.652 0L112.081 0C102.519 0 97.7375 4.2086 97.7375 12.6258V60.3742C97.7375 68.7914 102.519 73 112.081 73H126.652C136.291 73 141.11 68.7914 141.11 60.3742V47.7484H124.717V58.8821C124.717 59.9534 124.49 60.7186 124.034 61.1777C123.579 61.5603 122.82 61.7516 121.757 61.7516H117.09C115.952 61.7516 115.155 61.5603 114.699 61.1777ZM125.885 48.9257V58.8821C125.885 60.0729 125.64 61.2236 124.86 62.0101L124.822 62.0479L124.782 62.082C124.005 62.7347 122.9 62.9288 121.757 62.9288H117.09C115.896 62.9288 114.739 62.7431 113.952 62.082L113.911 62.0479L113.874 62.0101C113.094 61.2236 112.849 60.0729 112.849 58.8821V14.1179C112.849 12.9557 113.164 11.8744 113.992 11.102C114.802 10.3455 115.907 10.0712 117.09 10.0712H121.757C122.913 10.0712 123.996 10.3506 124.786 11.1172C125.586 11.8921 125.885 12.968 125.885 14.1179V24.4187H139.942V12.6258C139.942 8.64626 138.811 5.86259 136.731 4.0463C134.619 2.20198 131.329 1.17723 126.652 1.17723H112.081C107.444 1.17723 104.184 2.20114 102.091 4.04327C100.029 5.85874 98.905 8.64338 98.905 12.6258V60.3742C98.905 64.3566 100.029 67.1413 102.091 68.9567C104.184 70.7989 107.444 71.8228 112.081 71.8228H126.652C131.329 71.8228 134.619 70.798 136.731 68.9537C138.811 67.1374 139.942 64.3537 139.942 60.3742V48.9257H125.885ZM192.33 1.17723H178.387V58.0786C178.387 59.2408 178.071 60.3222 177.244 61.0945C176.433 61.8511 175.329 62.1253 174.145 62.1253H168.681C167.526 62.1253 166.443 61.846 165.652 61.0793C164.853 60.3044 164.554 59.2286 164.554 58.0786V1.17723H150.61V60.2594C150.61 64.2834 151.736 67.0978 153.8 68.9315C155.893 70.7903 159.151 71.8228 163.786 71.8228H179.04C183.715 71.8228 187.003 70.7894 189.115 68.9285C191.197 67.094 192.33 64.2805 192.33 60.2594V1.17723ZM218.583 44.5052H223.372L234.756 71.8228H249.57L236.98 44.3948L238.391 44.0748C241.223 43.4324 243.231 42.196 244.546 40.4394C245.868 38.6734 246.587 36.2505 246.587 33.0566V12.6258C246.587 8.64338 245.463 5.85874 243.401 4.04327C241.308 2.20114 238.048 1.17723 233.411 1.17723H204.753V71.8228H218.583V44.5052ZM251.397 73H233.98L222.596 45.6824H219.75V73H203.585V0L233.411 0C242.973 0 247.754 4.2086 247.754 12.6258V33.0566C247.754 39.3519 245.101 43.3064 239.795 44.9201C239.425 45.0325 239.043 45.1336 238.647 45.2233L251.397 73ZM218.583 10.8747H228.516C229.671 10.8747 230.754 11.154 231.545 11.9207C232.344 12.6956 232.643 13.7714 232.643 14.9214V31.3349C232.643 32.4791 232.385 33.575 231.618 34.3482L231.581 34.3859L231.54 34.4201C230.763 35.0728 229.658 35.2669 228.516 35.2669H218.583V10.8747ZM219.75 34.0896V12.0519H228.516C230.489 12.0519 231.475 13.0084 231.475 14.9214V31.3349C231.475 32.3297 231.248 33.0566 230.792 33.5157C230.337 33.8983 229.578 34.0896 228.516 34.0896H219.75ZM272.286 1.17723H258.456V71.8228H272.286V1.17723ZM323.09 0L341.304 49.3553V73H357.583V49.4701L375 0L358.38 0L349.386 34.3192L339.71 0L323.09 0ZM324.77 1.17723L342.471 49.1434V71.8228H356.415V49.2674L373.347 1.17723H359.279L349.428 38.7705L338.828 1.17723H324.77ZM279.519 0V12.0519H292.724V73H309.003V12.0519H322.322V0L279.519 0ZM321.155 1.17723H280.686V10.8747H293.892V71.8228H307.835V10.8747H321.155V1.17723ZM177.219 0V58.0786C177.219 59.9916 176.194 60.9481 174.145 60.9481H168.681C166.708 60.9481 165.721 59.9916 165.721 58.0786V0L149.442 0V60.2594C149.442 68.7531 154.224 73 163.786 73H179.04C188.679 73 193.498 68.7531 193.498 60.2594V0L177.219 0ZM257.288 0V73H273.453V0L257.288 0Z" fill="#3C71E9"/>
</svg>
