<svg width="375" height="73" viewBox="0 0 375 73" fill="none" xmlns="http://www.w3.org/2000/svg">
<path d="M26.5244 58.0786V44.8789C26.5244 43.8842 26.2967 43.1955 25.8413 42.8129C25.386 42.3538 24.5891 42.1242 23.4507 42.1242H13.4329C4.47765 42.1242 0 37.8391 0 29.2689L0 12.6258C0 4.2086 4.78122 0 14.3437 0L28.2319 0C37.7944 0 42.5756 4.2086 42.5756 12.6258V22.1525H26.2967V14.9214C26.2967 13.0084 25.2721 12.0519 23.2231 12.0519H19.3525C17.3035 12.0519 16.2789 13.0084 16.2789 14.9214V27.7767C16.2789 28.7715 16.5066 29.4984 16.9619 29.9575C17.4173 30.3401 18.2142 30.5314 19.3525 30.5314H29.1427C33.9998 30.5314 37.4908 31.6027 39.6158 33.7453C41.7408 35.8113 42.8033 38.9104 42.8033 43.0425V60.2594C42.8033 68.7531 38.0221 73 28.4596 73H14.6852C5.04684 73 0.227677 68.7531 0.227677 60.2594V50.8475H16.5066V58.0786C16.5066 59.9916 17.5311 60.9481 19.5802 60.9481H23.4507C25.4998 60.9481 26.5244 59.9916 26.5244 58.0786Z" fill="#3C71E9"/>
<path d="M68.0052 60.9481H91.2282V73H51.7263V0L90.3175 0V12.0519H68.0052V29.8428H87.0162V41.8947H68.0052V60.9481Z" fill="#3C71E9"/>
<path d="M141.11 25.5959H124.717V14.1179C124.717 12.2049 123.731 11.2484 121.757 11.2484H117.09C115.041 11.2484 114.016 12.2049 114.016 14.1179V58.8821C114.016 59.9534 114.244 60.7186 114.699 61.1777C115.155 61.5603 115.952 61.7516 117.09 61.7516H121.757C122.82 61.7516 123.579 61.5603 124.034 61.1777C124.49 60.7186 124.717 59.9534 124.717 58.8821V47.7484H141.11V60.3742C141.11 68.7914 136.291 73 126.652 73H112.081C102.519 73 97.7375 68.7914 97.7375 60.3742V12.6258C97.7375 4.2086 102.519 0 112.081 0L126.652 0C136.291 0 141.11 4.2086 141.11 12.6258V25.5959Z" fill="#3C71E9"/>
<path d="M177.219 0L193.498 0V60.2594C193.498 68.7531 188.679 73 179.04 73H163.786C154.224 73 149.442 68.7531 149.442 60.2594V0L165.721 0V58.0786C165.721 59.9916 166.708 60.9481 168.681 60.9481H174.145C176.194 60.9481 177.219 59.9916 177.219 58.0786V0Z" fill="#3C71E9"/>
<path d="M219.75 45.6824V73H203.585V0L233.411 0C242.973 0 247.754 4.2086 247.754 12.6258V33.0566C247.754 39.7904 244.719 43.8459 238.647 45.2233L251.397 73H233.98L222.596 45.6824H219.75ZM219.75 12.0519V34.0896H228.516C229.578 34.0896 230.337 33.8983 230.792 33.5157C231.248 33.0566 231.475 32.3297 231.475 31.3349V14.9214C231.475 13.0084 230.489 12.0519 228.516 12.0519H219.75Z" fill="#3C71E9"/>
<path d="M257.288 0L273.453 0V73H257.288V0Z" fill="#3C71E9"/>
<path d="M322.322 0V12.0519H309.003V73H292.724V12.0519H279.519V0L322.322 0Z" fill="#3C71E9"/>
<path d="M357.583 73H341.304V49.3553L323.09 0L339.71 0L349.386 34.3192L358.38 0L375 0L357.583 49.4701V73Z" fill="#3C71E9"/>
</svg>
