<svg width="36" height="42" viewBox="0 0 36 42" fill="none" xmlns="http://www.w3.org/2000/svg">
<path d="M26.6436 31.6699C26.3839 31.9697 26.1248 32.2603 25.866 32.5436C30.8843 33.2925 34 34.6973 34 36.0001C34 37.8922 27.4292 40.0001 18 40.0001C8.5708 40.0001 2 37.8922 2 36.0001C2 34.6973 5.11572 33.2925 10.134 32.5436C9.87524 32.2603 9.61615 31.9697 9.35638 31.6699C4.60333 32.4553 1 33.9188 1 36.0001C1 39.2476 9.75879 41.0001 18 41.0001C26.2412 41.0001 35 39.2476 35 36.0001C35 33.9188 31.3967 32.4553 26.6436 31.6699Z" fill="#3C71E9" stroke="#3C71E9"/>
<path fill-rule="evenodd" clip-rule="evenodd" d="M18 7C22.4111 7 26 10.5889 26 15C26 19.4111 22.4111 23 18 23C13.5889 23 10 19.4111 10 15C10 10.5889 13.5889 7 18 7ZM18 8C14.1401 8 11 11.1401 11 15C11 18.8599 14.1401 22 18 22C21.8599 22 25 18.8599 25 15C25 11.1401 21.8599 8 18 8Z" fill="#3C71E9"/>
<path d="M26.5 15C26.5 10.3127 22.6873 6.5 18 6.5V7.5C22.135 7.5 25.5 10.865 25.5 15H26.5ZM18 23.5C22.6873 23.5 26.5 19.6873 26.5 15H25.5C25.5 19.135 22.135 22.5 18 22.5V23.5ZM9.5 15C9.5 19.6873 13.3127 23.5 18 23.5V22.5C13.865 22.5 10.5 19.135 10.5 15H9.5ZM18 6.5C13.3127 6.5 9.5 10.3127 9.5 15H10.5C10.5 10.865 13.865 7.5 18 7.5V6.5ZM11.5 15C11.5 11.4163 14.4163 8.5 18 8.5V7.5C13.864 7.5 10.5 10.864 10.5 15H11.5ZM18 21.5C14.4163 21.5 11.5 18.5837 11.5 15H10.5C10.5 19.136 13.864 22.5 18 22.5V21.5ZM24.5 15C24.5 18.5837 21.5837 21.5 18 21.5V22.5C22.136 22.5 25.5 19.136 25.5 15H24.5ZM18 8.5C21.5837 8.5 24.5 11.4163 24.5 15H25.5C25.5 10.864 22.136 7.5 18 7.5V8.5Z" fill="#3C71E9"/>
<path fill-rule="evenodd" clip-rule="evenodd" d="M32 15C32 27 18 37 18 37C18 37 4 27 4 15C4 7.26794 10.2681 1 18 1C25.7319 1 32 7.26794 32 15ZM31 15C31 7.83179 25.1682 2 18 2C10.8318 2 5 7.83179 5 15C5 24.9727 15.4022 33.7177 18 35.7454C20.5978 33.7177 31 24.9727 31 15Z" fill="#3C71E9"/>
<path d="M18 37L17.7094 37.4069L18 37.6145L18.2906 37.4069L18 37ZM18 35.7454L17.6923 36.1395L18 36.3796L18.3077 36.1395L18 35.7454ZM18 37C18.2906 37.4069 18.2908 37.4067 18.291 37.4066C18.2911 37.4065 18.2914 37.4063 18.2917 37.4061C18.2923 37.4057 18.2931 37.4051 18.2941 37.4044C18.2961 37.403 18.2989 37.4009 18.3026 37.3983C18.3099 37.393 18.3206 37.3853 18.3345 37.3752C18.3622 37.355 18.4028 37.3252 18.4554 37.2861C18.5605 37.208 18.7137 37.0926 18.908 36.942C19.2965 36.6407 19.8498 36.198 20.5129 35.6296C21.8385 34.4934 23.6067 32.8517 25.3763 30.8293C28.9005 26.8016 32.5 21.1849 32.5 15H31.5C31.5 20.8151 28.0995 26.1984 24.6237 30.1707C22.8933 32.1483 21.1615 33.7566 19.8621 34.8704C19.2127 35.427 18.6723 35.8593 18.2952 36.1518C18.1066 36.298 17.959 36.4092 17.8591 36.4834C17.8091 36.5205 17.7711 36.5484 17.7459 36.5667C17.7332 36.5759 17.7238 36.5827 17.7177 36.5871C17.7146 36.5894 17.7124 36.591 17.711 36.592C17.7103 36.5925 17.7098 36.5928 17.7096 36.593C17.7094 36.5931 17.7094 36.5931 17.7093 36.5932C17.7093 36.5932 17.7094 36.5931 18 37ZM3.5 15C3.5 21.1849 7.09953 26.8016 10.6237 30.8293C12.3933 32.8517 14.1615 34.4934 15.4871 35.6296C16.1502 36.198 16.7035 36.6407 17.092 36.942C17.2863 37.0926 17.4395 37.208 17.5446 37.2861C17.5972 37.3252 17.6378 37.355 17.6655 37.3752C17.6794 37.3853 17.6901 37.393 17.6974 37.3983C17.7011 37.4009 17.7039 37.403 17.7059 37.4044C17.7069 37.4051 17.7077 37.4057 17.7083 37.4061C17.7086 37.4063 17.7089 37.4065 17.709 37.4066C17.7092 37.4067 17.7094 37.4069 18 37C18.2906 36.5931 18.2907 36.5932 18.2907 36.5932C18.2906 36.5931 18.2906 36.5931 18.2904 36.593C18.2902 36.5928 18.2897 36.5925 18.289 36.592C18.2876 36.591 18.2854 36.5894 18.2823 36.5871C18.2762 36.5827 18.2668 36.5759 18.2541 36.5667C18.2289 36.5484 18.1909 36.5205 18.1409 36.4834C18.041 36.4092 17.8934 36.298 17.7048 36.1518C17.3277 35.8593 16.7873 35.427 16.1379 34.8704C14.8385 33.7566 13.1067 32.1483 11.3763 30.1707C7.90047 26.1984 4.5 20.8151 4.5 15H3.5ZM18 0.5C9.99193 0.5 3.5 6.9918 3.5 15H4.5C4.5 7.54409 10.5442 1.5 18 1.5V0.5ZM32.5 15C32.5 6.9918 26.0081 0.5 18 0.5V1.5C25.4558 1.5 31.5 7.54409 31.5 15H32.5ZM18 2.5C24.8921 2.5 30.5 8.10793 30.5 15H31.5C31.5 7.55564 25.4444 1.5 18 1.5V2.5ZM5.5 15C5.5 8.10793 11.1079 2.5 18 2.5V1.5C10.5556 1.5 4.5 7.55564 4.5 15H5.5ZM18.3077 35.3512C17.0243 34.3495 13.8083 31.6841 10.9175 28.0413C8.01892 24.3886 5.5 19.8193 5.5 15H4.5C4.5 20.1534 7.18219 24.9429 10.1342 28.6629C13.0939 32.3926 16.3779 35.1135 17.6923 36.1395L18.3077 35.3512ZM30.5 15C30.5 19.8193 27.9811 24.3886 25.0825 28.0413C22.1917 31.6841 18.9757 34.3495 17.6923 35.3512L18.3077 36.1395C19.6221 35.1135 22.9061 32.3926 25.8658 28.6629C28.8178 24.9429 31.5 20.1534 31.5 15H30.5Z" fill="#3C71E9"/>
</svg>
