<svg width="102" height="31" viewBox="0 0 102 31" fill="none" xmlns="http://www.w3.org/2000/svg">
<g clip-path="url(#clip0)">
<path d="M84.7764 9.06803C86.2903 9.06803 88.013 10.3334 88.013 12.0813C88.013 13.0659 87.6871 13.8265 87.2077 14.5213C86.9001 14.964 86.6656 15.4735 86.5691 15.8429C86.4648 16.2593 86.2367 17.268 87.5173 17.2849C88.3505 17.3051 90.4007 16.6068 92.057 14.6835C93.3313 13.1388 94.0887 11.1796 94.0887 9.04275C94.0887 4.04943 89.9244 0 84.7764 0C79.6269 0 75.4553 4.04943 75.4553 9.04275C75.4553 11.1796 76.2117 13.1388 77.4872 14.6835C79.1458 16.6068 81.1948 17.3048 82.0268 17.2849C83.3075 17.268 83.0756 16.2593 82.9764 15.8429C82.8821 15.4737 82.6467 14.964 82.3368 14.5213C81.8584 13.8265 81.5312 13.0659 81.5312 12.0813C81.535 10.3334 83.2555 9.06803 84.7764 9.06803ZM101.249 18.2075C100.867 17.9032 100.198 17.4589 98.8228 17.255C96.9155 16.9804 95.2131 17.4111 94.1881 17.8028C92.8404 18.3164 91.1806 19.4839 90.034 21.0045C88.824 22.6115 88.1981 25.037 88.798 27.5656C88.9677 28.2773 89.1515 28.6781 89.4254 29.1773C89.7835 29.8554 90.7282 30.8019 91.5552 30.9728C92.2084 31.1028 92.7191 30.7411 92.9696 30.4677C94.6353 28.6094 100.949 21.4117 101.633 20.4926C102.305 19.5791 101.866 18.7018 101.249 18.2077V18.2075ZM75.3612 17.8028C74.3362 17.4111 72.6353 16.9806 70.7275 17.255C69.3529 17.4592 68.677 17.9032 68.3003 18.2075C67.6828 18.7017 67.2402 19.5794 67.916 20.4923C68.5965 21.4117 74.9089 28.6091 76.5748 30.4674C76.8253 30.7411 77.3361 31.1031 77.9905 30.9728C78.8224 30.8019 79.7633 29.8551 80.1203 29.177C80.3981 28.6781 80.5778 28.2771 80.7523 27.5656C81.3512 25.037 80.7154 22.6113 79.5168 21.0043C78.3687 19.4839 76.7063 18.3164 75.3612 17.8028ZM64.2528 24.3854H56.4714L59.6647 20.3362H51.0194L47.939 24.2352C46.7873 25.7846 46.676 27.3484 46.676 28.4336V29.0472C46.676 29.7565 47.1322 30.142 47.8088 30.142H64.2528C64.9162 30.142 65.3634 29.7898 65.3634 29.0688V25.4626C65.3634 24.7366 64.9162 24.3854 64.2528 24.3854ZM19.9561 10.0806C19.8323 9.40229 19.355 9.06803 18.7341 9.06803H16.5348C14.2465 9.06803 12.2268 10.237 11.0952 12.0025C11.0952 12.0025 8.99654 15.2342 6.64478 18.8716H21.5752L19.9561 10.0806ZM44.5485 10.1415C44.5485 9.42045 44.1022 9.06803 43.4343 9.06803H38.9576C38.2944 9.06803 37.8469 9.42045 37.8469 10.1415V18.312L33.6037 10.9664C32.7555 9.61262 31.3278 9.09822 29.6616 9.06827H26.3529C25.6959 9.06827 25.2468 9.42045 25.2468 10.1417V18.8762H30.8082L31.6635 20.3365H25.2471V29.069C25.2471 29.7898 25.6959 30.1481 26.3532 30.1481H30.8406C31.5073 30.1481 31.9489 29.7898 31.9489 29.069L31.9464 20.8475L36.2294 28.2525C37.0686 29.5989 38.5016 30.1135 40.1566 30.1481H43.4343C44.1022 30.1481 44.5485 29.7898 44.5485 29.069V20.3365H39.0269L38.1742 18.8762H44.5485V10.1417V10.1415ZM21.8405 20.3362H14.4669C14.6555 21.3295 16.0156 28.7144 16.0959 29.1441C16.2213 29.809 16.6515 30.1479 17.2823 30.1479H22.3553C22.8202 30.1479 23.0544 30.0073 23.2728 29.7518C23.4214 29.5739 23.4833 29.3039 23.414 28.9088L21.8408 20.3362H21.8405ZM0.192467 28.8266C-0.0086099 29.1571 -0.0086097 29.5047 0.114228 29.7302C0.255671 29.994 0.570411 30.1481 0.910127 30.1481H6.17866C6.84331 30.1481 7.43711 29.8031 7.76791 29.2872L13.5821 20.3362H5.69521C2.98767 24.5158 0.260513 28.7301 0.192467 28.8266ZM47.9563 14.8175H55.3695L52.1726 18.8713H60.8154L63.9676 14.8784C64.9411 13.6439 65.1664 12.5388 65.1664 11.5608V10.17C65.1664 9.45726 64.7189 9.06803 64.0374 9.06803H47.9563C47.293 9.06803 46.8493 9.42045 46.8493 10.1415V13.7477C46.8493 14.4668 47.293 14.8175 47.9563 14.8175Z" fill="#7685A9"/>
</g>
<defs>
<clipPath id="clip0">
<rect width="102" height="31" fill="white"/>
</clipPath>
</defs>
</svg>
