<svg width="131" height="28" viewBox="0 0 131 28" fill="none" xmlns="http://www.w3.org/2000/svg">
<path d="M13.2497 1.03997H5.53944V1.66264H8.03914V14.3413C8.03914 18.1866 6.99782 19.2253 4.60239 19.2253C3.14401 19.2253 2.83122 18.0826 2.83122 17.5626C2.83122 16.212 2.72695 15.2773 1.47577 15.2773C0.225921 15.2773 0.0187273 16.524 0.0187273 16.94C0.0187273 18.7066 0.851513 20.0573 4.2896 20.0573C8.45753 20.0573 10.6444 18.7066 10.6444 14.0306V1.6613H13.1455V1.03997H13.2497ZM14.2924 17.1466C13.8753 17.1466 13.4583 17.2533 13.2497 17.5626C12.9369 17.8746 12.8327 18.1866 12.8327 18.6026C12.8327 19.016 12.9369 19.3293 13.2497 19.6426C13.5625 19.9533 13.8753 20.056 14.2924 20.056C14.7081 20.056 15.0209 19.952 15.3337 19.6426C15.6465 19.3306 15.7508 19.016 15.7508 18.6026C15.7508 18.1866 15.6465 17.8746 15.3337 17.5626C15.0209 17.2506 14.7081 17.1466 14.291 17.1466H14.2924ZM31.3785 17.1466C30.9615 17.1466 30.6487 17.2533 30.3359 17.5626C30.0244 17.8746 29.9201 18.1866 29.9201 18.6026C29.9201 19.016 30.0244 19.3293 30.3359 19.6426C30.6487 19.9533 30.9615 20.056 31.3785 20.056C31.7956 20.056 32.2113 19.952 32.4212 19.6426C32.7326 19.3293 32.8369 19.016 32.8369 18.6026C32.8369 18.1866 32.7326 17.8746 32.4198 17.5626C32.107 17.2506 31.7956 17.1466 31.3772 17.1466H31.3785ZM25.9594 1.03997H18.4576V1.66264H20.6459V16.2133C20.6459 17.356 20.5416 17.6666 20.4374 17.9786C20.3331 18.396 20.0203 18.604 19.499 18.812C19.1875 18.916 18.6662 19.0186 17.9363 19.0186V19.6426H26.0637V19.0186C25.3338 19.0186 24.8138 18.916 24.4997 18.812C23.9797 18.604 23.6669 18.292 23.564 17.98C23.4249 17.615 23.3538 17.2278 23.3541 16.8373V11.8466H25.3338C31.1687 11.8466 32.8356 9.5613 32.8356 6.44264C32.8356 3.2213 31.8985 1.03864 25.9594 1.03864V1.03997ZM24.9167 11.12H23.3541V1.76664H24.7096C29.189 1.76664 30.2303 3.6373 30.2303 6.54664C30.2303 9.55997 28.4604 11.12 24.9167 11.12ZM56.9035 17.8746C56.766 17.4733 56.6956 17.0521 56.6949 16.628V1.66264H58.6733V1.03997H53.8838C53.7795 1.24797 48.1545 15.1733 48.1545 15.1733L48.0503 15.2786C47.946 15.2786 47.946 15.2786 47.946 15.1746C47.946 15.1746 41.904 1.14397 41.904 1.03997H36.5864V1.66397H38.8789V17.46C38.8789 17.7733 38.7747 18.0853 38.5661 18.396C38.3576 18.708 38.0448 18.916 37.732 19.0186C37.5235 19.1253 37.1078 19.1253 36.6894 19.1253V19.7466H41.9V19.1226C41.4829 19.1226 41.2744 19.0186 40.9629 19.0186C40.5458 18.9146 40.3373 18.7066 40.1288 18.3946C39.9203 18.1866 39.816 17.8746 39.816 17.46L39.7117 16.108V3.63597H40.0245C40.0245 3.63597 46.7964 19.432 46.9007 19.64H47.422L53.8811 3.7413H54.0897V16.628C54.0897 17.148 53.9854 17.5626 53.8811 17.9786C53.7769 18.3946 53.4654 18.6026 53.0483 18.8106C52.6118 18.955 52.154 19.0249 51.6942 19.0173V19.6413H58.9874V19.0173C58.5272 19.025 58.0689 18.9551 57.632 18.8106C57.3205 18.6026 57.0077 18.2906 56.9035 17.8746ZM66.8007 6.02797C62.8413 6.02797 60.4458 8.6253 60.4458 13.0946C60.4458 19.7453 65.6551 20.1613 66.6964 20.1613C68.8846 20.1613 73.0526 18.8106 73.0526 12.992C73.0526 8.41863 70.343 6.02797 66.8007 6.02797ZM66.6964 19.3293C63.7796 19.3293 63.2583 17.876 63.2583 13.1986C63.2583 9.5613 63.4668 6.85864 66.6964 6.85864C70.1345 6.85864 70.1345 9.66397 70.1345 12.9893C70.1345 17.6666 69.3017 19.3293 66.6964 19.3293ZM83.2639 6.23597C80.9701 6.23597 80.1386 7.58664 79.5117 9.0413H79.3031C79.3031 9.0413 78.9917 6.96264 78.8874 6.44264H74.3024V7.17063H76.8021V16.316C76.8021 17.2506 76.6992 17.876 76.492 18.2893C76.2821 18.7066 75.6565 19.0173 74.7195 19.0173H74.3024V19.8493H82.0127V19.0173H81.5956C80.553 19.0173 80.1386 18.8106 79.9274 18.3946C79.7202 17.9786 79.6159 17.3546 79.6159 16.42V11.432C79.6159 9.87197 80.8658 8.00264 82.3255 8.00264C83.8881 8.00264 83.7825 10.288 85.555 9.3533C86.3892 8.8333 86.1806 6.23597 83.2639 6.23597ZM113.581 18.2893C112.747 18.2893 112.54 17.876 112.435 17.044V9.7693C112.435 8.5213 112.226 7.79463 111.498 7.0653C110.769 6.33863 109.413 6.0253 107.435 6.0253C105.559 6.0253 104.205 6.33863 103.267 7.0653C102.434 7.69063 102.018 8.3133 102.018 9.2493C102.018 9.66263 102.123 9.97597 102.33 10.08C102.538 10.288 102.851 10.392 103.163 10.392C103.891 10.392 104.309 9.97863 104.517 9.0413C104.624 8.3133 104.829 7.89864 105.144 7.4813C105.558 7.06797 106.186 6.85864 106.913 6.85864C107.852 6.85864 108.58 7.0653 108.893 7.5853C109.206 8.1053 109.414 8.7293 109.414 9.55863V11.7426C107.016 11.9506 101.183 12.4693 101.496 16.8346C101.6 18.4973 103.06 20.056 105.038 20.056C107.226 20.056 108.579 18.8106 109.516 17.8733C109.622 18.8093 110.559 19.9533 112.123 19.9533C113.892 19.9533 114.935 19.1213 115.041 16.9386H114.624C114.624 17.7706 114.102 18.2906 113.581 18.2906V18.2893ZM109.623 16.836V16.94L109.519 17.044C108.269 18.188 107.228 18.604 106.498 18.604C104.622 18.604 104.309 17.044 104.309 16.3173C104.309 13.824 107.748 12.576 109.623 12.576V16.836ZM129.21 18.1866C129.002 17.772 128.689 17.1466 128.689 16.2133V10.184C128.689 9.3533 128.585 8.5213 128.272 8.00264C127.959 7.37863 127.439 6.96264 126.918 6.65064C126.292 6.33863 125.668 6.23597 124.939 6.23597C122.23 6.23597 121.187 7.89863 120.563 8.8333H120.354L119.833 6.44264H115.665V7.17063H117.75V16.316C117.75 17.044 117.645 17.5626 117.54 17.876C117.435 18.2893 117.126 18.6026 116.812 18.7066C116.603 18.8106 116.186 18.9146 115.665 18.9146V19.7453H122.228V18.9146C121.603 18.8106 121.081 18.7066 120.874 18.3946C120.666 18.0826 120.459 17.4586 120.459 16.524V12.9906C120.459 11.5373 120.459 10.08 120.98 9.2493C121.5 8.3133 122.541 7.79464 123.584 7.79464C124.626 7.79464 125.146 8.10664 125.461 8.7293C125.772 9.2493 125.875 10.808 125.875 11.8466V16.212C125.875 16.9386 125.982 17.4586 125.875 17.772C125.772 18.1853 125.668 18.4986 125.354 18.7053C125.146 18.9146 124.728 18.9146 124.312 19.0173V19.8493H130.67V19.0173C129.939 18.7066 129.419 18.4973 129.21 18.1866ZM99.413 5.40397C98.9959 5.50797 98.7874 5.92397 98.5789 6.44397C98.4746 6.96397 98.2661 7.27464 97.9533 7.3773C97.6405 7.48264 97.329 7.48264 97.0162 7.27463C96.2877 6.65063 95.0365 5.92397 92.744 5.92397C88.9931 5.92397 87.4305 8.5213 87.4305 10.9106C87.4305 13.7173 88.4731 15.0693 90.8672 15.588C90.9728 15.588 90.9728 15.796 90.8672 15.796C88.8889 16.212 87.0134 16.836 87.0134 18.7066C87.0134 19.8506 87.639 20.4733 88.5774 20.8893C89.5131 21.304 90.8672 21.5133 92.5355 21.5133C93.9925 21.5133 95.0352 21.6173 95.6608 21.6173C96.2887 21.6981 96.8924 21.9107 97.4319 22.2413C97.849 22.5533 98.0575 23.0733 98.0575 23.6946C98.0575 24.6306 97.5362 25.2546 96.5991 25.8786C95.6634 26.3986 94.5139 26.6066 92.9525 26.6066C91.7027 26.6066 90.5571 26.5013 89.6187 25.8786C88.8902 25.4626 88.7846 24.632 88.8902 24.008C88.9958 23.384 88.7846 22.7613 88.0561 22.5533C87.8344 22.5045 87.6029 22.5289 87.3963 22.6227C87.1897 22.7164 87.0192 22.8746 86.9105 23.0733C86.7006 23.3826 86.5964 23.7986 86.5964 24.3186C86.5964 25.8773 87.8475 26.604 88.7846 26.916C90.243 27.3306 91.1827 27.436 92.4312 27.436C94.2037 27.436 95.5565 27.124 96.5991 26.708C97.6418 26.188 98.2674 25.5653 98.6831 24.8373C99.0988 24.1106 99.3087 23.3826 99.3087 22.6546C99.3087 21.72 99.0988 20.888 98.6831 20.3693C97.329 18.6026 95.4522 18.8093 91.2856 18.6026C89.3059 18.6026 88.8889 18.1866 88.8889 17.5626C88.8889 16.628 89.6187 16.316 92.5355 15.796C95.4522 15.38 98.1605 14.2373 98.1605 10.808C98.1605 9.76797 97.9533 8.9373 97.6391 8.31464C98.2661 8.4173 98.7874 8.4173 99.3074 8.31464C99.9343 8.10664 100.244 7.79464 100.454 7.48264C100.663 7.06664 100.766 6.65064 100.559 6.33863C100.663 5.50797 100.141 5.19597 99.413 5.40397ZM92.8496 15.1733C91.0798 15.1733 90.14 14.548 90.14 11.016C90.14 8.52263 90.9742 6.65064 92.8496 6.65064C95.0378 6.65064 95.6621 8.3133 95.6621 10.912C95.6621 14.6533 94.5165 15.1733 92.8496 15.1733Z" fill="#7685A9"/>
</svg>
