<svg width="128" height="569" viewBox="0 0 128 569" fill="none" xmlns="http://www.w3.org/2000/svg">
<path d="M127.5 543.671V568.871H0.299993V537.671L72.3 516.671L0.299993 495.671V464.471H127.5V489.671H42.1L99.9 506.071V527.271L42.3 543.671H127.5ZM0.299993 445.81V417.41H127.5V445.81H0.299993ZM101.5 354.554H78.5C76.7667 354.554 75.5667 354.954 74.9 355.754C74.1 356.554 73.7 357.954 73.7 359.954V377.554C73.7 393.287 66.2333 401.154 51.3 401.154H22.3C7.63333 401.154 0.299993 392.754 0.299993 375.954V351.554C0.299993 334.754 7.63333 326.354 22.3 326.354H38.9V354.954H26.3C22.9667 354.954 21.3 356.754 21.3 360.354V367.154C21.3 370.754 22.9667 372.554 26.3 372.554H48.7C50.4333 372.554 51.7 372.154 52.5 371.354C53.1667 370.554 53.5 369.154 53.5 367.154V349.954C53.5 341.421 55.3667 335.287 59.1 331.554C62.7 327.821 68.1 325.954 75.3 325.954H105.3C120.1 325.954 127.5 334.354 127.5 351.154V375.354C127.5 392.287 120.1 400.754 105.3 400.754H88.9V372.154H101.5C104.833 372.154 106.5 370.354 106.5 366.754V359.954C106.5 356.354 104.833 354.554 101.5 354.554ZM101.5 266.077H78.5C76.7667 266.077 75.5667 266.477 74.9 267.277C74.1 268.077 73.7 269.477 73.7 271.477L73.7 289.077C73.7 304.811 66.2333 312.677 51.3 312.677H22.3C7.63333 312.677 0.299993 304.277 0.299993 287.477V263.077C0.299993 246.277 7.63333 237.877 22.3 237.877H38.9V266.477H26.3C22.9667 266.477 21.3 268.277 21.3 271.877V278.677C21.3 282.277 22.9667 284.077 26.3 284.077H48.7C50.4333 284.077 51.7 283.677 52.5 282.877C53.1667 282.077 53.5 280.677 53.5 278.677L53.5 261.477C53.5 252.944 55.3667 246.811 59.1 243.077C62.7 239.344 68.1 237.477 75.3 237.477H105.3C120.1 237.477 127.5 245.877 127.5 262.677V286.877C127.5 303.811 120.1 312.277 105.3 312.277H88.9L88.9 283.677H101.5C104.833 283.677 106.5 281.877 106.5 278.277V271.477C106.5 267.877 104.833 266.077 101.5 266.077ZM0.299993 221.201V192.801H127.5V221.201H0.299993ZM0.299993 149.545V122.745C0.299993 105.945 7.63333 97.5445 22.3 97.5445H105.3C120.1 97.5445 127.5 105.945 127.5 122.745V149.545C127.5 166.478 120.1 174.945 105.3 174.945H22.3C7.63333 174.945 0.299993 166.478 0.299993 149.545ZM101.5 126.145H26.3C22.9667 126.145 21.3 127.878 21.3 131.345V140.945C21.3 144.545 22.9667 146.345 26.3 146.345H101.5C104.833 146.345 106.5 144.545 106.5 140.945V131.345C106.5 127.878 104.833 126.145 101.5 126.145ZM0.299993 27.1945V0.994525H127.5V26.5945L51.3 54.3945H127.5V80.3945H0.299993L0.299993 54.5945L76.3 27.1945H0.299993Z" fill="#3C71E9"/>
</svg>
