<svg width="375" height="85" viewBox="0 0 375 85" fill="none" xmlns="http://www.w3.org/2000/svg">
<path fill-rule="evenodd" clip-rule="evenodd" d="M18.8778 0L-2 0V85H14.8628V28.066L25.837 66.5566H40.0232L50.9974 27.9324V85H67.8603V0L46.9825 0L32.9301 48.1132L18.8778 0ZM47.9862 1.33648L32.9301 52.8863L17.874 1.33648H-0.661681V83.6635H13.5245V28.066L16.15 27.7001L26.8475 65.2201H39.0118L49.7099 27.5676L52.3358 27.9324V83.6635H66.5219V1.33648H47.9862ZM98.0132 1.33648H81.6857V83.6635H98.0132V1.33648ZM130.171 34.8821C129.635 34.3475 129.368 33.501 129.368 32.3428V17.3742C129.368 15.1468 130.572 14.033 132.981 14.033H137.531C139.94 14.033 141.145 15.1468 141.145 17.3742V25.794H160.283V14.7013C160.283 4.90042 154.662 0 143.42 0L127.092 0C115.85 0 110.23 4.90042 110.23 14.7013V34.0802C110.23 44.0592 115.494 49.0487 126.022 49.0487H137.799C139.137 49.0487 140.074 49.316 140.609 49.8506C141.145 50.2961 141.412 51.098 141.412 52.2563V67.6258C141.412 69.8532 140.208 70.967 137.799 70.967H133.249C130.84 70.967 129.635 69.8532 129.635 67.6258V59.206H110.497V70.1651C110.497 80.055 116.163 85 127.494 85H143.688C154.929 85 160.55 80.055 160.55 70.1651V50.1179C160.55 45.3066 159.301 41.6981 156.803 39.2925C154.305 36.7977 150.201 35.5503 144.491 35.5503H132.981C131.643 35.5503 130.706 35.3276 130.171 34.8821ZM111.836 60.5424V70.1651C111.836 74.8537 113.17 78.1405 115.627 80.285C118.118 82.4595 121.994 83.6635 127.494 83.6635H143.688C149.141 83.6635 152.981 82.4605 155.45 80.2884C157.887 78.1449 159.212 74.857 159.212 70.1651V50.1179C159.212 45.5252 158.022 42.3232 155.874 40.2545L155.865 40.2461L155.857 40.2375C153.727 38.1102 150.055 36.8868 144.491 36.8868H132.981C131.579 36.8868 130.229 36.6704 129.314 35.9088L129.267 35.87L129.224 35.8271C128.332 34.936 128.029 33.6707 128.029 32.3428V17.3742C128.029 16.0269 128.398 14.7784 129.362 13.8877C130.306 13.0149 131.595 12.6965 132.981 12.6965H137.531C138.918 12.6965 140.207 13.0149 141.151 13.8877C142.114 14.7784 142.483 16.0269 142.483 17.3742V24.4576H158.944V14.7013C158.944 10.0576 157.621 6.80441 155.187 4.68211C152.718 2.52953 148.876 1.33648 143.42 1.33648H127.092C121.636 1.33648 117.794 2.52953 115.325 4.68211C112.891 6.80441 111.568 10.0576 111.568 14.7013V34.0802C111.568 38.8454 112.821 42.1784 115.099 44.3372C117.39 46.5085 120.947 47.7123 126.022 47.7123H137.799C139.219 47.7123 140.592 47.9778 141.513 48.8635C142.469 49.6926 142.751 50.9785 142.751 52.2563V67.6258C142.751 68.9731 142.382 70.2216 141.418 71.1123C140.474 71.9851 139.185 72.3035 137.799 72.3035H133.249C131.862 72.3035 130.573 71.9851 129.629 71.1123C128.666 70.2216 128.297 68.9731 128.297 67.6258V60.5424H111.836ZM216.008 39.2925C213.51 36.7977 209.406 35.5503 203.695 35.5503H192.186C190.848 35.5503 189.911 35.3276 189.375 34.8821C188.84 34.3475 188.572 33.501 188.572 32.3428V17.3742C188.572 15.1468 189.777 14.033 192.186 14.033H196.736C199.145 14.033 200.35 15.1468 200.35 17.3742V25.794H219.488V14.7013C219.488 4.90042 213.867 0 202.625 0L186.297 0C175.055 0 169.434 4.90042 169.434 14.7013V34.0802C169.434 44.0592 174.699 49.0487 185.227 49.0487H197.004C198.342 49.0487 199.279 49.316 199.814 49.8506C200.35 50.2961 200.617 51.098 200.617 52.2563V67.6258C200.617 69.8532 199.413 70.967 197.004 70.967H192.454C190.045 70.967 188.84 69.8532 188.84 67.6258V59.206H169.702V70.1651C169.702 80.055 175.368 85 186.699 85H202.892C214.134 85 219.755 80.055 219.755 70.1651V50.1179C219.755 45.3066 218.506 41.6981 216.008 39.2925ZM171.04 60.5424V70.1651C171.04 74.8537 172.375 78.1405 174.832 80.285C177.323 82.4595 181.199 83.6635 186.699 83.6635H202.892C208.346 83.6635 212.186 82.4605 214.655 80.2884C217.091 78.1449 218.417 74.857 218.417 70.1651V50.1179C218.417 45.5252 217.227 42.3232 215.079 40.2545L215.07 40.2461L215.062 40.2375C212.931 38.1102 209.26 36.8868 203.695 36.8868H192.186C190.783 36.8868 189.434 36.6704 188.519 35.9088L188.472 35.87L188.429 35.8271C187.537 34.936 187.234 33.6707 187.234 32.3428V17.3742C187.234 16.0269 187.603 14.7784 188.567 13.8877C189.51 13.0149 190.8 12.6965 192.186 12.6965H196.736C198.122 12.6965 199.412 13.0149 200.356 13.8877C201.319 14.7784 201.688 16.0269 201.688 17.3742V24.4576H218.149V14.7013C218.149 10.0576 216.826 6.80441 214.392 4.68211C211.923 2.52953 208.081 1.33648 202.625 1.33648H186.297C180.841 1.33648 176.999 2.52953 174.53 4.68211C172.096 6.80441 170.773 10.0576 170.773 14.7013V34.0802C170.773 38.8454 172.026 42.1784 174.304 44.3372C176.595 46.5085 180.152 47.7123 185.227 47.7123H197.004C198.424 47.7123 199.797 47.9778 200.718 48.8636C201.674 49.6927 201.956 50.9786 201.956 52.2563V67.6258C201.956 68.9731 201.587 70.2216 200.623 71.1123C199.679 71.9851 198.39 72.3035 197.004 72.3035H192.454C191.067 72.3035 189.778 71.9851 188.834 71.1123C187.871 70.2216 187.502 68.9731 187.502 67.6258V60.5424H171.04ZM248.313 1.33648H231.985V83.6635H248.313V1.33648ZM296.53 1.33648H278.596C273.094 1.33648 269.217 2.53048 266.725 4.68554C264.27 6.80878 262.938 10.0609 262.938 14.7013V70.1651C262.938 74.8537 264.273 78.1405 266.73 80.285C269.221 82.4595 273.096 83.6635 278.596 83.6635H296.53C301.983 83.6635 305.823 82.4605 308.292 80.2884C310.729 78.1449 312.054 74.857 312.054 70.1651V14.7013C312.054 10.0576 310.731 6.80441 308.297 4.68211C305.828 2.52953 301.986 1.33648 296.53 1.33648ZM295.593 17.3742V67.6258C295.593 68.9592 295.243 70.2014 294.312 71.0951C293.391 71.9793 292.128 72.3035 290.775 72.3035H284.351C282.965 72.3035 281.676 71.9851 280.732 71.1123C279.768 70.2216 279.399 68.9731 279.399 67.6258V17.3742C279.399 16.0269 279.768 14.7784 280.732 13.8877C281.676 13.0149 282.965 12.6965 284.351 12.6965H290.775C292.128 12.6965 293.391 13.0207 294.312 13.9049C295.243 14.7986 295.593 16.0408 295.593 17.3742ZM360.869 85H378V0L360.468 0V50.7862L342.133 0L324.869 0V85H342.267V34.0802L360.869 85ZM340.929 83.6635V34.0802L343.524 33.6221L361.806 83.6635H376.662V1.33648H361.806V50.7862L359.209 51.2394L341.193 1.33648H326.207V83.6635H340.929ZM80.3474 0V85H99.3515V0L80.3474 0ZM230.647 0V85H249.651V0L230.647 0ZM296.53 0L278.596 0C267.265 0 261.6 4.90042 261.6 14.7013V70.1651C261.6 80.055 267.265 85 278.596 85H296.53C307.772 85 313.393 80.055 313.393 70.1651V14.7013C313.393 4.90042 307.772 0 296.53 0ZM294.255 17.3742V67.6258C294.255 69.8532 293.095 70.967 290.775 70.967H284.351C281.942 70.967 280.738 69.8532 280.738 67.6258V17.3742C280.738 15.1468 281.942 14.033 284.351 14.033H290.775C293.095 14.033 294.255 15.1468 294.255 17.3742Z" fill="#3C71E9"/>
</svg>
