<svg width="128" height="569" viewBox="0 0 128 569" fill="none" xmlns="http://www.w3.org/2000/svg">
<path fill-rule="evenodd" clip-rule="evenodd" d="M0.299988 537.671L0.299988 568.871H127.5V543.671H42.3L99.9 527.271V506.071L42.1 489.671H127.5V464.471H0.299988L0.299988 495.671L72.3 516.671L0.299988 537.671ZM2.29999 494.171L79.4428 516.671L2.29999 539.171L2.29999 566.871H125.5V545.671H42.3L41.7523 541.748L97.9 525.761V507.583L41.5541 491.595L42.1 487.671H125.5V466.471H2.29999L2.29999 494.171ZM2.29999 419.41L2.29999 443.81H125.5V419.41H2.29999ZM52.5 371.354C51.7 372.154 50.4333 372.554 48.7 372.554H26.3C22.9667 372.554 21.3 370.754 21.3 367.154L21.3 360.354C21.3 356.754 22.9667 354.954 26.3 354.954H38.9V326.354H22.3C7.63332 326.354 0.299988 334.754 0.299988 351.554L0.299988 375.954C0.299988 392.754 7.63332 401.154 22.3 401.154H51.3C66.2333 401.154 73.7 393.287 73.7 377.554V359.954C73.7 357.954 74.1 356.554 74.9 355.754C75.5667 354.954 76.7667 354.554 78.5 354.554H101.5C104.833 354.554 106.5 356.354 106.5 359.954V366.754C106.5 370.354 104.833 372.154 101.5 372.154H88.9V400.754H105.3C120.1 400.754 127.5 392.287 127.5 375.354V351.154C127.5 334.354 120.1 325.954 105.3 325.954H75.3C68.1 325.954 62.7 327.821 59.1 331.554C55.3667 335.287 53.5 341.421 53.5 349.954V367.154C53.5 369.154 53.1667 370.554 52.5 371.354ZM90.9 398.754H105.3C112.316 398.754 117.235 396.759 120.444 393.088C123.698 389.365 125.5 383.573 125.5 375.354V351.154C125.5 343.004 123.7 337.266 120.449 333.576C117.242 329.935 112.321 327.954 105.3 327.954H75.3C68.4272 327.954 63.6354 329.732 60.5397 332.942L60.5271 332.955L60.5142 332.968C57.3308 336.151 55.5 341.638 55.5 349.954V367.154C55.5 369.25 55.1761 371.267 54.0364 372.634L53.9784 372.704L53.9142 372.768C52.5807 374.102 50.6872 374.554 48.7 374.554H26.3C24.2838 374.554 22.4155 374.002 21.0825 372.563C19.7764 371.152 19.3 369.226 19.3 367.154L19.3 360.354C19.3 358.282 19.7764 356.356 21.0825 354.945C22.4155 353.505 24.2838 352.954 26.3 352.954H36.9V328.354H22.3C15.3509 328.354 10.4826 330.331 7.30662 333.969C4.08535 337.659 2.29999 343.401 2.29999 351.554L2.29999 375.954C2.29999 384.107 4.08535 389.849 7.30662 393.539C10.4826 397.177 15.3509 399.154 22.3 399.154H51.3C58.431 399.154 63.4187 397.281 66.6494 393.877C69.8986 390.454 71.7 385.138 71.7 377.554V359.954C71.7 357.832 72.0974 355.78 73.4228 354.404C74.6635 352.974 76.5879 352.554 78.5 352.554H101.5C103.516 352.554 105.385 353.105 106.718 354.545C108.024 355.956 108.5 357.882 108.5 359.954V366.754C108.5 368.826 108.024 370.752 106.718 372.163C105.385 373.602 103.516 374.154 101.5 374.154H90.9V398.754ZM59.1 243.077C55.3667 246.811 53.5 252.944 53.5 261.477V278.677C53.5 280.677 53.1667 282.077 52.5 282.877C51.7 283.677 50.4333 284.077 48.7 284.077H26.3C22.9667 284.077 21.3 282.277 21.3 278.677V271.877C21.3 268.277 22.9667 266.477 26.3 266.477H38.9V237.877H22.3C7.63332 237.877 0.299988 246.277 0.299988 263.077L0.299988 287.477C0.299988 304.277 7.63332 312.677 22.3 312.677H51.3C66.2333 312.677 73.7 304.811 73.7 289.077V271.477C73.7 269.477 74.1 268.077 74.9 267.277C75.5667 266.477 76.7667 266.077 78.5 266.077H101.5C104.833 266.077 106.5 267.877 106.5 271.477V278.277C106.5 281.877 104.833 283.677 101.5 283.677H88.9V312.277H105.3C120.1 312.277 127.5 303.811 127.5 286.877V262.677C127.5 245.877 120.1 237.477 105.3 237.477H75.3C68.1 237.477 62.7 239.344 59.1 243.077ZM90.9 310.277H105.3C112.316 310.277 117.235 308.283 120.444 304.611C123.698 300.888 125.5 295.097 125.5 286.877V262.677C125.5 254.528 123.7 248.789 120.449 245.099C117.242 241.458 112.321 239.477 105.3 239.477H75.3C68.4272 239.477 63.6354 241.255 60.5397 244.466L60.5271 244.479L60.5142 244.492C57.3308 247.675 55.5 253.161 55.5 261.477V278.677C55.5 280.773 55.1761 282.79 54.0364 284.158L53.9784 284.227L53.9142 284.292C52.5807 285.625 50.6872 286.077 48.7 286.077H26.3C24.2838 286.077 22.4155 285.526 21.0825 284.086C19.7764 282.676 19.3 280.749 19.3 278.677V271.877C19.3 269.806 19.7764 267.879 21.0825 266.469C22.4155 265.029 24.2838 264.477 26.3 264.477H36.9V239.877H22.3C15.3509 239.877 10.4826 241.855 7.30662 245.493C4.08535 249.182 2.29999 254.924 2.29999 263.077L2.29999 287.477C2.29999 295.631 4.08535 301.372 7.30662 305.062C10.4826 308.7 15.3509 310.677 22.3 310.677H51.3C58.431 310.677 63.4187 308.804 66.6494 305.4C69.8986 301.977 71.7 296.661 71.7 289.077V271.477C71.7 269.355 72.0974 267.303 73.4229 265.927C74.6636 264.497 76.5879 264.077 78.5 264.077H101.5C103.516 264.077 105.385 264.629 106.718 266.069C108.024 267.479 108.5 269.406 108.5 271.477V278.277C108.5 280.349 108.024 282.276 106.718 283.686C105.385 285.126 103.516 285.677 101.5 285.677H90.9V310.277ZM2.29999 194.801L2.29999 219.201H125.5V194.801H2.29999ZM2.29999 122.745L2.29999 149.545C2.29999 157.768 4.08678 163.562 7.31176 167.285C10.4891 170.954 15.3558 172.945 22.3 172.945H105.3C112.316 172.945 117.235 170.95 120.444 167.278C123.698 163.555 125.5 157.764 125.5 149.545V122.745C125.5 114.595 123.7 108.856 120.449 105.167C117.242 101.525 112.321 99.5445 105.3 99.5445H22.3C15.3509 99.5445 10.4826 101.522 7.30662 105.16C4.08535 108.85 2.29999 114.591 2.29999 122.745ZM26.3 124.145H101.5C103.495 124.145 105.354 124.667 106.692 126.058C108.015 127.435 108.5 129.322 108.5 131.345V140.945C108.5 143.016 108.024 144.943 106.718 146.353C105.385 147.793 103.516 148.345 101.5 148.345H26.3C24.2838 148.345 22.4155 147.793 21.0825 146.353C19.7764 144.943 19.3 143.016 19.3 140.945L19.3 131.345C19.3 129.322 19.785 127.435 21.1083 126.058C22.4457 124.667 24.3046 124.145 26.3 124.145ZM127.5 26.5945V0.994507H0.299988L0.299988 27.1945H76.3L0.299988 54.5945L0.299988 80.3945H127.5V54.3945H51.3L127.5 26.5945ZM125.5 56.3945H51.3L50.6145 52.5157L125.5 25.1952V2.99451H2.29999L2.29999 25.1945H76.3L76.9783 29.076L2.29999 55.9995L2.29999 78.3945H125.5V56.3945ZM0.299988 445.81H127.5V417.41H0.299988L0.299988 445.81ZM0.299988 221.201H127.5L127.5 192.801H0.299988L0.299988 221.201ZM0.299988 122.745L0.299988 149.545C0.299988 166.478 7.63332 174.945 22.3 174.945H105.3C120.1 174.945 127.5 166.478 127.5 149.545V122.745C127.5 105.945 120.1 97.5445 105.3 97.5445H22.3C7.63332 97.5445 0.299988 105.945 0.299988 122.745ZM26.3 126.145H101.5C104.833 126.145 106.5 127.878 106.5 131.345V140.945C106.5 144.545 104.833 146.345 101.5 146.345H26.3C22.9667 146.345 21.3 144.545 21.3 140.945L21.3 131.345C21.3 127.878 22.9667 126.145 26.3 126.145Z" fill="#3C71E9"/>
</svg>
