<svg>
  <symbol id="logo-icon" viewBox="0 0 94 58" xmlns="http://www.w3.org/2000/svg">
    <g clip-path="url(#clip0)">
      <path d="M0 0H28.1708L44.8592 29.1699L28.3654 58H0.0486542V43.6335H19.6077L29.1439 29.1699L19.9482 14.2695H0.0486542L0 0Z" />
      <path d="M32.8416 0H48.4596L65.148 29.1699L48.6542 58H32.8416L49.4327 29.1699L32.8416 0Z" />
      <path d="M53.0818 0H94V13.9782H76.8737L94 43.2937V57.9515L53.0818 58L61.5963 43.2937H77.7495L53.0818 0Z" />
    </g>
  </symbol>

  <symbol id="jp-morgan" viewBox="0 0 109 23" fill="#7685A9" xmlns="http://www.w3.org/2000/svg">
    <path d="M11.0247 0.854306H4.60932V1.36578H6.68922V11.7804C6.68922 14.9391 5.82278 15.7923 3.82964 15.7923C2.61618 15.7923 2.35591 14.8536 2.35591 14.4265C2.35591 13.317 2.26916 12.5493 1.22809 12.5493C0.188145 12.5493 0.0157471 13.5733 0.0157471 13.915C0.0157471 15.3662 0.708676 16.4757 3.56937 16.4757C7.03735 16.4757 8.85698 15.3662 8.85698 11.5252V1.36469H10.938V0.854306H11.0247ZM11.8923 14.0848C11.5453 14.0848 11.1983 14.1724 11.0247 14.4265C10.7645 14.6828 10.6777 14.9391 10.6777 15.2808C10.6777 15.6203 10.7645 15.8777 11.0247 16.1351C11.285 16.3903 11.5453 16.4746 11.8923 16.4746C12.2382 16.4746 12.4985 16.3892 12.7587 16.1351C13.019 15.8788 13.1058 15.6203 13.1058 15.2808C13.1058 14.9391 13.019 14.6828 12.7587 14.4265C12.4985 14.1702 12.2382 14.0848 11.8912 14.0848H11.8923ZM26.109 14.0848C25.762 14.0848 25.5017 14.1724 25.2415 14.4265C24.9823 14.6828 24.8956 14.9391 24.8956 15.2808C24.8956 15.6203 24.9823 15.8777 25.2415 16.1351C25.5017 16.3903 25.762 16.4746 26.109 16.4746C26.456 16.4746 26.8019 16.3892 26.9766 16.1351C27.2357 15.8777 27.3225 15.6203 27.3225 15.2808C27.3225 14.9391 27.2357 14.6828 26.9755 14.4265C26.7152 14.1702 26.456 14.0848 26.1079 14.0848H26.109ZM21.6 0.854306H15.3581V1.36578H17.1788V13.3181C17.1788 14.2567 17.092 14.5119 17.0053 14.7682C16.9185 15.111 16.6583 15.2819 16.2245 15.4527C15.9653 15.5382 15.5316 15.6225 14.9243 15.6225V16.1351H21.6867V15.6225C21.0794 15.6225 20.6468 15.5382 20.3854 15.4527C19.9527 15.2819 19.6925 15.0256 19.6068 14.7693C19.4911 14.4695 19.4319 14.1514 19.4322 13.8307V9.73121H21.0794C25.9344 9.73121 27.3214 7.85397 27.3214 5.29221C27.3214 2.64612 26.5417 0.85321 21.6 0.85321V0.854306ZM20.7324 9.13431H19.4322V1.45121H20.56C24.2872 1.45121 25.1536 2.98783 25.1536 5.37764C25.1536 7.85288 23.681 9.13431 20.7324 9.13431ZM47.3473 14.6828C47.233 14.3531 47.1744 14.0071 47.1738 13.6587V1.36578H48.82V0.854306H44.8348C44.748 1.02516 40.0677 12.4638 40.0677 12.4638L39.9809 12.5504C39.8942 12.5504 39.8942 12.5504 39.8942 12.4649C39.8942 12.4649 34.8668 0.939734 34.8668 0.854306H30.4423V1.36688H32.3498V14.3422C32.3498 14.5995 32.2631 14.8558 32.0896 15.111C31.916 15.3673 31.6558 15.5382 31.3955 15.6225C31.222 15.7101 30.8761 15.7101 30.528 15.7101V16.2205H34.8635V15.7079C34.5165 15.7079 34.343 15.6225 34.0838 15.6225C33.7368 15.5371 33.5633 15.3662 33.3898 15.1099C33.2163 14.9391 33.1295 14.6828 33.1295 14.3422L33.0428 13.2316V2.98673H33.303C33.303 2.98673 38.9376 15.962 39.0244 16.1329H39.4582L44.8326 3.07326H45.0061V13.6587C45.0061 14.0859 44.9193 14.4265 44.8326 14.7682C44.7458 15.1099 44.4866 15.2808 44.1396 15.4516C43.7764 15.5703 43.3955 15.6276 43.0129 15.6214V16.134H49.0813V15.6214C48.6984 15.6277 48.3171 15.5703 47.9535 15.4516C47.6944 15.2808 47.4341 15.0245 47.3473 14.6828ZM55.5824 4.95159C52.2879 4.95159 50.2948 7.08511 50.2948 10.7564C50.2948 16.2194 54.6292 16.5611 55.4956 16.5611C57.3164 16.5611 60.7844 15.4516 60.7844 10.672C60.7844 6.91535 58.5299 4.95159 55.5824 4.95159ZM55.4956 15.8777C53.0687 15.8777 52.635 14.6839 52.635 10.8418C52.635 7.85397 52.8085 5.63392 55.4956 5.63392C58.3563 5.63392 58.3563 7.9383 58.3563 10.6698C58.3563 14.5119 57.6634 15.8777 55.4956 15.8777ZM69.2808 5.12245C67.3722 5.12245 66.6804 6.23193 66.1587 7.42683H65.9852C65.9852 7.42683 65.7261 5.71935 65.6393 5.29221H61.8243V5.89021H63.9042V13.4024C63.9042 14.1702 63.8186 14.6839 63.6462 15.0234C63.4716 15.3662 62.951 15.6214 62.1713 15.6214H61.8243V16.3048H68.2397V15.6214H67.8927C67.0252 15.6214 66.6804 15.4516 66.5046 15.1099C66.3322 14.7682 66.2455 14.2556 66.2455 13.4879V9.39059C66.2455 8.10916 67.2854 6.57364 68.5 6.57364C69.8002 6.57364 69.7124 8.45088 71.1872 7.68312C71.8812 7.25597 71.7077 5.12245 69.2808 5.12245ZM94.5065 15.0234C93.8125 15.0234 93.6401 14.6839 93.5533 14.0004V8.02483C93.5533 6.99969 93.3787 6.40278 92.7737 5.80369C92.1664 5.20678 91.0386 4.9494 89.3924 4.9494C87.8319 4.9494 86.7052 5.20678 85.9244 5.80369C85.2315 6.31735 84.8856 6.82883 84.8856 7.59769C84.8856 7.93721 84.9724 8.19459 85.1448 8.28002C85.3183 8.45088 85.5785 8.53631 85.8377 8.53631C86.4439 8.53631 86.792 8.19678 86.9644 7.42683C87.0534 6.82883 87.2247 6.48821 87.486 6.1454C87.8308 5.80588 88.3536 5.63392 88.9587 5.63392C89.7394 5.63392 90.3456 5.80369 90.6059 6.23083C90.8661 6.65797 91.0397 7.17054 91.0397 7.85178V9.64578C89.0443 9.81664 84.1905 10.2427 84.4507 13.8285C84.5375 15.1943 85.7521 16.4746 87.3982 16.4746C89.2189 16.4746 90.3445 15.4516 91.1242 14.6817C91.2121 15.4505 91.9917 16.3903 93.2931 16.3903C94.7657 16.3903 95.6332 15.7068 95.7211 13.9139H95.3741C95.3741 14.5974 94.9403 15.0245 94.5065 15.0245V15.0234ZM91.2132 13.8296V13.915L91.1264 14.0004C90.0865 14.9402 89.22 15.2819 88.6127 15.2819C87.0523 15.2819 86.792 14.0004 86.792 13.4035C86.792 11.3554 89.6527 10.3303 91.2132 10.3303V13.8296ZM107.511 14.9391C107.337 14.5984 107.077 14.0848 107.077 13.3181V8.36545C107.077 7.68312 106.99 6.99969 106.73 6.57364C106.47 6.06107 106.037 5.71935 105.603 5.46307C105.083 5.20678 104.563 5.12245 103.957 5.12245C101.703 5.12245 100.835 6.48821 100.316 7.25597H100.142L99.7085 5.29221H96.2405V5.89021H97.9756V13.4024C97.9756 14.0004 97.8878 14.4265 97.801 14.6839C97.7131 15.0234 97.4562 15.2808 97.1948 15.3662C97.0213 15.4516 96.6743 15.5371 96.2405 15.5371V16.2194H101.702V15.5371C101.181 15.4516 100.747 15.3662 100.575 15.1099C100.401 14.8536 100.229 14.3411 100.229 13.5733V10.6709C100.229 9.47711 100.229 8.28002 100.663 7.59769C101.095 6.82883 101.962 6.40278 102.829 6.40278C103.697 6.40278 104.13 6.65907 104.391 7.17054C104.65 7.59769 104.736 8.87802 104.736 9.73121V13.317C104.736 13.9139 104.825 14.3411 104.736 14.5984C104.65 14.938 104.563 15.1954 104.302 15.3651C104.13 15.5371 103.782 15.5371 103.436 15.6214V16.3048H108.725V15.6214C108.117 15.3662 107.684 15.1943 107.511 14.9391ZM82.7178 4.43902C82.3708 4.52445 82.1973 4.86616 82.0238 5.29331C81.937 5.72045 81.7635 5.97564 81.5033 6.05997C81.243 6.1465 80.9839 6.1465 80.7236 5.97564C80.1174 5.46307 79.0763 4.86616 77.1688 4.86616C74.0479 4.86616 72.7477 6.99969 72.7477 8.96235C72.7477 11.2678 73.6152 12.3784 75.6073 12.8044C75.6951 12.8044 75.6951 12.9753 75.6073 12.9753C73.9611 13.317 72.4007 13.8296 72.4007 15.3662C72.4007 16.3059 72.9212 16.8174 73.702 17.1591C74.4806 17.4997 75.6073 17.6717 76.9953 17.6717C78.2077 17.6717 79.0752 17.7571 79.5958 17.7571C80.1183 17.8235 80.6206 17.9982 81.0695 18.2697C81.4165 18.526 81.59 18.9531 81.59 19.4635C81.59 20.2324 81.1562 20.7449 80.3766 21.2575C79.598 21.6846 78.6415 21.8555 77.3424 21.8555C76.3024 21.8555 75.3492 21.769 74.5684 21.2575C73.9622 20.9158 73.8744 20.2334 73.9622 19.7209C74.0501 19.2083 73.8744 18.6968 73.2682 18.526C73.0838 18.4859 72.8911 18.5059 72.7192 18.5829C72.5473 18.66 72.4055 18.7899 72.315 18.9531C72.1404 19.2072 72.0536 19.5489 72.0536 19.9761C72.0536 21.2564 73.0947 21.8533 73.8744 22.1096C75.0878 22.4502 75.8698 22.5367 76.9086 22.5367C78.3834 22.5367 79.509 22.2804 80.3766 21.9387C81.2441 21.5116 81.7646 21.0001 82.1106 20.4021C82.4565 19.8052 82.6311 19.2072 82.6311 18.6092C82.6311 17.8414 82.4565 17.158 82.1106 16.732C80.9838 15.2808 79.4223 15.4505 75.9554 15.2808C74.3082 15.2808 73.9611 14.9391 73.9611 14.4265C73.9611 13.6587 74.5684 13.4024 76.9953 12.9753C79.4223 12.6336 81.6757 11.695 81.6757 8.87802C81.6757 8.02373 81.5033 7.3414 81.2419 6.82993C81.7635 6.91426 82.1973 6.91426 82.63 6.82993C83.1516 6.65907 83.4097 6.40278 83.5843 6.1465C83.7578 5.80478 83.8434 5.46307 83.671 5.20678C83.7578 4.52445 83.324 4.26816 82.7178 4.43902ZM77.2567 12.4638C75.7841 12.4638 75.0022 11.9502 75.0022 9.04888C75.0022 7.00078 75.6962 5.46307 77.2567 5.46307C79.0775 5.46307 79.5969 6.82883 79.5969 8.96345C79.5969 12.0367 78.6437 12.4638 77.2567 12.4638Z"/>
  </symbol>

  <symbol id="credit-agricole" viewBox="0 0 139 28" fill="#7685A9" xmlns="http://www.w3.org/2000/svg">
    <g clip-path="url(#clip0)">
      <path d="M15.946 21.3356L16.2762 21.3014L16.6237 21.2497L17.4401 21.1464L18.3431 20.9567L19.2638 20.7503L20.1673 20.492L21.1053 20.2163L22.0431 19.8893L22.7555 19.6652L23.0508 19.5277L23.3288 19.3555L23.5717 19.1316L23.7975 18.8906L23.9715 18.5978L28.4705 9.23004L35.6791 27.0355L35.7662 27.2423L35.8878 27.4315L36.0441 27.604L36.2176 27.7417L36.4263 27.8623L36.6345 27.9309L36.8603 27.9828H37.0861L43.218 28L31.9968 4.15009H25.3609L15.946 21.3356Z" />
      <path d="M47.3872 5.57934V1.27429L36.4262 7.19803L36.3217 7.24969L36.0959 7.33555L35.853 7.40467H35.6272L35.4361 7.37023L35.2274 7.30135L35.0539 7.23247L34.9844 7.19803L35.071 7.47355L35.245 8.0246L35.4708 8.59287L35.7661 9.16113L36.1135 9.67774L36.4781 10.1082L36.8255 10.4182L37.1382 10.5904L37.4335 10.6593H37.729L38.0067 10.6248L38.2154 10.556L38.3889 10.4871L38.4583 10.4354L47.3872 5.57934Z" />
      <path d="M69.3609 20.3542H69.2393L69.1351 20.3715L69.0311 20.3887L68.9616 20.4234L68.8748 20.4745L68.8053 20.5264L68.7358 20.5951L68.6837 20.6812L67.8499 22.076H71.6191V24.5387L71.3238 24.6246L71.0632 24.6937L70.82 24.7451L70.5595 24.797L70.3165 24.8487L69.9863 24.8829L69.7257 24.9176L69.5001 24.9348H68.7529L68.4926 24.9001L68.1278 24.8657L67.9018 24.8315L67.6759 24.7796L67.4501 24.7284L67.2243 24.6593L67.0161 24.5732L66.7555 24.4354L66.5471 24.3149L66.3734 24.1771L66.1994 24.0394L66.026 23.8841L65.8696 23.7292L65.7133 23.5572L65.5915 23.3675L65.4351 23.1092L65.3311 22.9028L65.244 22.679L65.1746 22.4549L65.1224 22.231L65.0706 21.9899L65.0358 21.7663L65.0182 21.5252V20.8362L65.053 20.6125L65.1053 20.4059L65.1746 20.1818L65.244 19.9754L65.3311 19.7688L65.4351 19.5619L65.5222 19.4413L65.6609 19.2522L65.8173 19.0797L65.9739 18.9075L66.1476 18.7528L66.3213 18.615L66.5645 18.46L66.7727 18.3395L66.9985 18.2189L67.2419 18.1328L67.4677 18.0465L67.7975 17.9606L68.0581 17.9087L68.3189 17.8745L68.5618 17.8401L68.8224 17.8229L69.083 17.8054L69.3438 17.7882H69.5867L69.8473 17.8054L70.1078 17.8229L70.3684 17.8573L70.629 17.892L70.8895 17.926L71.1501 17.9779L71.4107 18.0123L71.6712 18.0637L71.9318 18.1328L72.1923 18.1843L72.4529 18.2534L72.6961 18.322L72.9566 18.3911L73.0782 18.4253V16.6344L72.7829 16.5483L72.5397 16.4625L72.2792 16.3934L72.0186 16.3419L71.7754 16.29L71.5149 16.2386L71.2543 16.187L70.7853 16.1183L70.5247 16.0836L70.2642 16.0492L70.0036 16.0317L69.7431 16.0145L69.5001 15.9973H68.1797L67.9194 16.0145L67.6588 16.0317L67.3983 16.0664L67.1548 16.1009L66.9116 16.1351L66.6511 16.2042L66.4081 16.2728L66.0778 16.3592L65.8349 16.428L65.6091 16.5139L65.3659 16.6175L65.1574 16.7208L64.9314 16.8241L64.7232 16.9619L64.5145 17.0824L64.2715 17.2549L64.0804 17.4094L63.8894 17.5643L63.7154 17.7368L63.5419 17.926L63.368 18.0984L63.2293 18.2876L63.0903 18.4945L62.9511 18.7009L62.8298 18.9075L62.6734 19.2003L62.5866 19.4074L62.4995 19.6482L62.4129 19.8721L62.3607 20.1132L62.2913 20.3542L62.2565 20.5951L62.2218 20.8362L62.2044 21.1464V21.6285L62.2389 21.8694L62.2736 22.1279L62.3084 22.3688L62.3779 22.6098L62.43 22.8509L62.5171 23.075L62.6039 23.2989L62.7253 23.5572L62.8298 23.7811L62.9511 23.9875L63.0727 24.1943L63.2119 24.4007L63.368 24.5904L63.5072 24.7796L63.6807 24.952L63.8894 25.1412L64.0976 25.2964L64.3063 25.4342L64.5321 25.572L64.7579 25.6925L64.9835 25.813L65.2095 25.9336L65.4527 26.0194L65.6786 26.1228L65.9215 26.2091L66.1994 26.295L66.46 26.3469L66.7206 26.3983L66.9814 26.433L67.2419 26.4674L67.5025 26.5021L67.7804 26.5188L68.0234 26.5533L68.3015 26.5707H68.5618L69.0135 26.5879L69.274 26.5707H69.5172L69.7778 26.5533L70.0557 26.536L70.3165 26.5188L70.5769 26.4846L70.8374 26.4502L71.0982 26.4155L71.3759 26.3983L71.6191 26.3469L71.8799 26.3124L72.1402 26.2605L72.4008 26.2091L72.6613 26.1744L72.9219 26.1058L73.1825 26.0367L73.443 25.9852L73.7036 25.9161L73.9294 25.8475V20.3542H69.3609ZM79.7139 3.96064L79.9049 3.97786L80.1308 4.02952L80.3045 4.08118L80.4434 4.13284L80.5998 4.21894L80.7214 4.30504L80.843 4.40836L80.9646 4.52891L81.0861 4.68389L81.1559 4.83887L81.2251 4.97663L81.2599 5.13161L81.2946 5.30381V5.5449L81.2772 5.69988L81.2425 5.83764L81.1906 5.99262L81.1035 6.13038L80.9993 6.26814L80.8951 6.4059L80.7214 6.56089L80.5653 6.66421L80.3913 6.75031L80.2176 6.80197L80.0439 6.87085L79.8702 6.90529L79.6791 6.92251H77.9594L77.8726 6.93973L77.7683 6.97417L77.6989 6.99139L77.6122 7.04305L77.5425 7.11193L77.4904 7.18081L77.4557 7.21525L76.674 8.62731L79.1409 8.61009L81.642 12.3124H84.595L81.7289 7.99016L81.9723 7.92128L82.1805 7.83518L82.389 7.73186L82.6669 7.5941L82.858 7.47355L83.0317 7.35301L83.2054 7.21525L83.3619 7.06027L83.5007 6.88807L83.6744 6.66421L83.796 6.492L83.9002 6.30258L83.9697 6.11316L84.0392 5.94096L84.0913 5.75154L84.1089 5.52768L84.1263 5.32103V5.16605L84.1089 4.95941L84.0739 4.75277L84.0218 4.54613L83.9523 4.33948L83.8828 4.13284L83.7786 3.9262L83.657 3.73678L83.518 3.54736L83.3793 3.37515L83.2227 3.22017L83.0664 3.06519L82.8927 2.92743L82.7016 2.78967L82.5105 2.68635L82.3021 2.58303L82.0936 2.49692L81.8852 2.42804L81.6768 2.35916L81.4509 2.3075L81.2251 2.29028L80.9993 2.27306L80.7735 2.25584L80.5824 2.27306H73.2522V12.3124H75.8923V3.96064L79.5575 3.94342L79.7139 3.96064ZM92.2555 1.65314L93.6973 0H91.2307L90.4142 1.65314H92.2555ZM119.354 12.3469H122.012V4.08118H124.982L125.069 4.06396L125.173 4.04674L125.243 4.02952L125.312 3.99508L125.364 3.96064L125.399 3.90898L125.451 3.85732L125.468 3.80566L125.503 3.73678L125.52 3.70234L125.538 3.68512L126.024 2.32472H116.47L116.383 2.35916L116.314 2.37638L116.244 2.42804L116.175 2.4797L116.123 2.53137L116.071 2.60025L116.036 2.66913L116.019 2.70357L115.341 4.08118H119.354V12.3469ZM84.595 21.8868L84.8035 21.8177L85.0119 21.7491L85.203 21.6458L85.4636 21.508L85.6373 21.4047L85.7936 21.2669L85.95 21.1292L86.0889 20.9739L86.2105 20.8022L86.3321 20.6298L86.4363 20.4401L86.5058 20.2337L86.5753 20.0271L86.6274 19.8202L86.6621 19.5966L86.6798 19.3727V19.183L86.6621 18.9592L86.6274 18.7528L86.5927 18.5459L86.5232 18.3395L86.4537 18.1498L86.3495 17.9432L86.2626 17.8054L86.141 17.6162L86.0021 17.444L85.8457 17.2888L85.6894 17.1338L85.4288 16.9446L85.2204 16.8241L85.0119 16.7208L84.7861 16.6175L84.4213 16.4972L84.1781 16.428L83.9176 16.3761L83.6744 16.3247L83.4312 16.29L83.1706 16.2556L82.9101 16.2386L82.6495 16.2214H76.1702V26.2777H78.8279V18.0465H82.3716L82.4932 18.0637L82.6669 18.0812L82.8406 18.1156L82.9972 18.167L83.2054 18.2708L83.3443 18.3395L83.4486 18.4253L83.5528 18.5117L83.657 18.6664L83.7267 18.8042L83.796 18.9592L83.8481 19.1144L83.8828 19.2522L83.9002 19.3899V19.476L83.8828 19.6138L83.8655 19.7688L83.8133 19.8893L83.7441 20.0445L83.657 20.199L83.5528 20.3196L83.3793 20.5092L83.2227 20.5951L83.0664 20.6984L82.9101 20.7675L82.7192 20.8362L82.5453 20.8708L82.3716 20.9053H80.6693L80.5998 20.9225L80.5303 20.9567L80.4434 20.9914L80.3739 21.0258L80.3045 21.0773L80.235 21.1292L80.1831 21.1811L80.1308 21.2322L80.096 21.3014L79.4014 22.5926H81.7115L84.3692 26.2777H87.2528L84.3518 21.9555L84.595 21.8868ZM53.6406 16.2042L48.4813 26.2777H51.3303L52.3899 24.0047H55.4819L55.6033 23.9702L55.7249 23.936L55.8291 23.8841L55.9336 23.8155L56.0202 23.7292L56.107 23.6431L56.1765 23.54L56.1941 23.5053L56.9932 22.197H53.2237L55.3427 17.7882L59.1645 26.2438H61.9091L57.219 16.2042H53.6406ZM114.16 2.29028H111.572V12.3469H114.16V2.29028ZM62.4476 10.8831L62.6387 11.0554L62.8298 11.2103L63.0208 11.3653L63.2293 11.5031L63.4377 11.6406L63.6459 11.7786L63.8718 11.8991L64.0976 12.0025L64.2715 12.0713L64.5145 12.1402L64.7579 12.2263L65.0011 12.2952L65.2617 12.3641L65.5046 12.4157L65.7654 12.4502L66.0084 12.5018L66.3213 12.5363L66.5816 12.5535L66.8421 12.5707H67.1027L67.3635 12.5879H67.6241L67.8846 12.5707L68.2668 12.5535L68.5273 12.5363L68.7877 12.5191L69.0311 12.4846L69.2914 12.4502L69.5349 12.3985L69.7778 12.3469L70.0384 12.2952L70.2816 12.2435L70.5421 12.1574L70.7853 12.1058L71.0285 12.0197L71.2717 11.9336L71.4628 11.8819V9.9877L71.3585 10.0394L71.1156 10.1255L70.8722 10.2288L70.629 10.2977L70.3858 10.3838L70.1426 10.4526L69.882 10.5043L69.5172 10.5732L69.2914 10.6076L69.0311 10.6421L68.7877 10.6765L68.5447 10.6937L68.2839 10.7109H67.7628L67.5198 10.7282L67.2938 10.7109L67.0508 10.6937L66.825 10.6593L66.5816 10.6076L66.356 10.5387L66.0954 10.4699L65.8868 10.401L65.6786 10.3149L65.4875 10.2116L65.2964 10.091L65.1224 9.97048L64.9487 9.83272L64.7232 9.62608L64.5842 9.45387L64.445 9.28167L64.3063 9.09225L64.202 8.90283L64.1152 8.69619L64.0281 8.48954L63.9412 8.16236L63.8894 7.9385L63.8546 7.69742V7.00861L63.8894 6.78475L63.9412 6.45756L63.9936 6.25092L64.0628 6.02706L64.1323 5.82042L64.2368 5.631L64.341 5.44157L64.5145 5.20049L64.6708 5.02829L64.8271 4.87331L65.0182 4.71833L65.1922 4.58057L65.3833 4.4428L65.6957 4.2706L65.9044 4.16728L66.1476 4.08118L66.3734 4.0123L66.6163 3.94342L66.9466 3.87454L67.1896 3.85732L67.4501 3.82288H68.2144L68.5795 3.8401L68.84 3.85732L69.1006 3.89176L69.3609 3.9262L69.5867 3.96064L69.8473 4.0123L70.0905 4.06396L70.3513 4.13284L70.5942 4.1845L70.8374 4.2706L71.0808 4.33948L71.2022 4.39114L71.4977 4.47724L71.5149 2.60025L71.3585 2.56581L71.1156 2.49692L70.8722 2.41082L70.6116 2.34194L70.3684 2.29028L70.1078 2.2214L69.8647 2.16974L69.6043 2.11808L69.309 2.06642L69.0482 2.03198L68.8053 1.99754L68.5447 1.9631L68.2839 1.94588L68.0234 1.92866H67.0161L66.7727 1.94588L66.5123 1.9631L66.2518 1.99754L66.0084 2.03198L65.7654 2.08364L65.5222 2.1353L65.2788 2.20418L65.0358 2.27306L64.7579 2.35916L64.5321 2.44526L64.3063 2.53137L64.0628 2.63469L63.8546 2.75523L63.6288 2.87577L63.4201 2.99631L63.2119 3.13407L63.0208 3.28905L62.8298 3.44403L62.6558 3.59902L62.4823 3.77122L62.3084 3.94342L62.1521 4.13284L61.996 4.32226L61.8568 4.52891L61.718 4.71833L61.6138 4.94219L61.4922 5.14883L61.353 5.47601L61.2664 5.69988L61.1967 5.92374L61.1272 6.16482L61.0753 6.4059L61.0232 6.64699L61.0058 6.99139L60.9885 7.23247V7.71464L61.0232 7.95572L61.0579 8.1968L61.0924 8.43788L61.1619 8.66175L61.2316 8.90283L61.353 9.24723L61.4575 9.47109L61.5617 9.67774L61.6833 9.9016L61.8049 10.1082L61.9438 10.2977L62.0826 10.4871L62.2389 10.6937L62.4476 10.8831ZM89.1809 26.2777H91.856V16.2386H89.1983L89.1809 26.2777ZM121.126 16.2386H118.642V26.2777H126.545L127.31 24.4868H121.126V16.2386ZM96.963 10.5904H88.8511V3.99508H96.5808L95.9381 2.27306H86.2802V12.3124H96.0944L96.963 10.5904ZM134.136 24.4526H130.853V17.9606H138.583L137.975 16.2042H128.196V26.2605H138.184L138.983 24.4526H134.136Z"/>
      <path d="M132.729 20.2681L132.66 20.2854H132.573L132.469 20.3023L132.382 20.3368L132.312 20.3887L132.226 20.4401L132.156 20.5092L132.139 20.5437L131.131 22.0246H135.561L135.63 22.0074L135.717 21.9899L135.804 21.9555L135.891 21.9213L135.96 21.8694L136.03 21.8007L136.064 21.7491L137.141 20.2681H132.729ZM117.669 20.9225L117.651 20.681L117.617 20.4918L117.582 20.2507L117.53 20.0268L117.46 19.7857L117.391 19.5614L117.286 19.3375L117.2 19.1137L117.078 18.9068L116.956 18.7004L116.8 18.494L116.644 18.3043L116.488 18.1151L116.314 17.9255L116.14 17.7535L115.949 17.5811L115.758 17.4261L115.532 17.2711L115.324 17.1334L115.098 16.9961L114.872 16.8755L114.629 16.7717L114.403 16.6512L114.177 16.5653L113.933 16.4795L113.69 16.3931L113.447 16.3245L113.204 16.2554L112.943 16.2039L112.7 16.152L112.44 16.1006L112.179 16.0834L111.936 16.0662L111.692 16.049H111.467L111.38 16.0317H111.258L111.05 16.049H110.842L110.598 16.0662L110.355 16.0834L110.094 16.1006L109.851 16.1348L109.591 16.1867L109.347 16.2386L109.104 16.29L108.861 16.3592L108.618 16.4278L108.392 16.5137L108.166 16.6175L107.922 16.7208L107.714 16.8241L107.471 16.9791L107.28 17.0996L107.072 17.2546L106.881 17.4091L106.689 17.5641L106.515 17.7365L106.342 17.9257L106.186 18.0982L106.012 18.322L105.873 18.5117L105.734 18.7181L105.612 18.9245L105.508 19.1488L105.423 19.3727L105.318 19.5966L105.249 19.8376L105.162 20.1651L105.127 20.4061L105.093 20.6644L105.058 20.9055V21.5941L105.093 21.8524L105.11 22.0935L105.162 22.3346L105.214 22.5761L105.266 22.8L105.353 23.0583L105.44 23.2994L105.544 23.5232L105.648 23.7296L105.77 23.954L105.909 24.1604L106.117 24.4706L106.273 24.6598L106.447 24.8322L106.621 25.0214L106.795 25.1938L106.986 25.3488L107.212 25.5208L107.42 25.6585L107.629 25.7791L107.854 25.9168L108.08 26.0202L108.324 26.1407L108.55 26.227L108.793 26.3304L109.123 26.4162L109.366 26.4853L109.627 26.5368L109.887 26.5887L110.13 26.6233L110.391 26.6575L110.634 26.6748L110.895 26.7094H111.155L111.381 26.7267H111.659L111.92 26.7094L112.18 26.6922L112.441 26.675L112.684 26.6403L113.101 26.5717L113.344 26.5198L113.587 26.4684L113.831 26.3992L114.074 26.3306L114.317 26.2273L114.543 26.1409L114.769 26.0376L115.099 25.8657L115.325 25.7446L115.533 25.6241L115.724 25.4868L115.916 25.3318L116.106 25.1768L116.28 25.0044L116.454 24.8324L116.68 24.5569L116.819 24.3505L116.958 24.1436L117.08 23.9198L117.184 23.7134L117.288 23.489L117.375 23.248L117.462 23.0241L117.514 22.783L117.583 22.5419L117.618 22.3008L117.653 22.0598L117.688 21.8015L117.705 21.5604V21.4226L117.688 21.1815L117.669 20.9225ZM114.82 21.3528V21.5597L114.803 21.8007L114.768 22.0418L114.733 22.231L114.681 22.4721L114.629 22.7132L114.542 22.9375L114.455 23.1614L114.368 23.3852L114.247 23.6091L114.125 23.7988L113.969 23.9707L113.813 24.1257L113.657 24.2807L113.483 24.4357L113.275 24.5562L113.083 24.6767L112.875 24.7626L112.667 24.8317L112.458 24.9004L112.25 24.9523L111.92 25.0037L111.677 25.0209H111.225L110.982 24.9862L110.756 24.952L110.53 24.9001L110.304 24.8315L110.078 24.7624L109.852 24.6765L109.591 24.5387L109.401 24.4182L109.227 24.2804L109.053 24.1255L108.897 23.9705L108.653 23.6777L108.532 23.5053L108.427 23.3161L108.323 23.1092L108.236 22.9028L108.15 22.679L108.08 22.4546L108.028 22.2308L107.976 21.9038L107.941 21.6627V21.1973L107.976 20.9048L108.011 20.6465L108.045 20.4054L108.098 20.1811L108.167 19.94L108.254 19.7336L108.341 19.5097L108.462 19.3201L108.567 19.1137L108.723 18.9412L108.862 18.7693L109.018 18.6143L109.192 18.4765L109.452 18.2869L109.643 18.1835L109.852 18.0802L110.06 17.9944L110.269 17.9252L110.477 17.8738L110.824 17.8219L111.154 17.7872H111.38L111.485 17.77L111.832 17.8047L112.249 17.8738L112.457 17.9252L112.683 17.9944L112.892 18.0802L113.083 18.1661L113.291 18.2866L113.465 18.4072L113.639 18.5449L113.812 18.6999L113.969 18.8549L114.125 19.0273L114.246 19.2165L114.368 19.4062L114.455 19.6126L114.542 19.819L114.628 20.0259L114.681 20.2323L114.715 20.4047L114.75 20.6458L114.785 20.8869L114.82 21.1107V21.3528H114.82ZM90.8485 6.38869H90.7616L90.6576 6.40591L90.5358 6.42313L90.4489 6.47479L90.3447 6.50923L90.2755 6.57811L90.1884 6.66421L89.1114 8.1107H93.402L93.5062 8.09348L93.6104 8.07626L93.6973 8.04182L93.8015 7.99016L93.8883 7.92128L93.9581 7.86962L94.0273 7.78352L94.0794 7.73186L95.0174 6.38869H90.8485ZM105.527 12.1402L105.874 12.0541L106.117 11.968L106.343 11.8819L106.569 11.7958L106.795 11.6753L107.142 11.4859L107.351 11.3653L107.542 11.2448L107.75 11.107L107.924 10.952L108.098 10.7798L108.254 10.6248L108.462 10.3838L108.601 10.1943L108.723 10.0049L108.845 9.79852L108.966 9.57466L109.053 9.3508L109.157 9.09249L109.209 8.83419L109.279 8.59311L109.331 8.35203L109.366 8.11094L109.383 7.8701L109.401 7.6118L109.418 7.38794L109.435 7.16383V6.97417L109.418 6.75031L109.383 6.50923L109.348 6.26815L109.296 6.04428L109.226 5.8032L109.157 5.5791L109.07 5.35524L108.966 5.13114L108.862 4.92473L108.74 4.71809L108.601 4.51145L108.427 4.27037L108.271 4.08094L108.097 3.90874L107.923 3.73654L107.732 3.58156L107.541 3.46102L107.35 3.32326L107.159 3.20272L106.951 3.08218L106.76 2.97861L106.551 2.87529L106.343 2.78919L106.117 2.70333L105.909 2.63445L105.683 2.56557L105.475 2.49669L105.248 2.44503L105.022 2.39337L104.796 2.35893L104.588 2.32449L104.362 2.30727L104.154 2.29005L103.928 2.27283H103.858L103.719 2.29005H98.3519V12.3296H104.293L104.536 12.3124L104.779 12.278L105.022 12.2435L105.283 12.1919L105.527 12.1402ZM104.901 10.4354L104.693 10.5043L104.484 10.556L104.276 10.5904L104.068 10.6248H100.958V3.96064H103.512L103.755 3.97786H103.86L103.981 3.99484L104.19 4.0465L104.415 4.09817L104.624 4.16705L104.832 4.25291L105.041 4.35647L105.232 4.45979L105.423 4.58033L105.614 4.71809L105.77 4.87307L105.909 4.99337L106.065 5.16582L106.187 5.33802L106.309 5.52744L106.395 5.71686L106.5 5.9235L106.569 6.11293L106.622 6.33679L106.656 6.47479L106.708 6.69865L106.743 6.92251V7.5599L106.708 7.78376L106.673 8.00762L106.604 8.23148L106.552 8.42091L106.482 8.64477L106.396 8.86863L106.291 9.07527L106.17 9.28191L106.048 9.48832L105.909 9.67798L105.77 9.85018L105.631 10.0049L105.457 10.1255L105.284 10.246L105.093 10.3493L104.901 10.4354ZM103.859 24.108L103.668 24.1771L103.407 24.2458L103.164 24.3149L102.904 24.3835L102.643 24.4354L102.4 24.4868L102.139 24.5387L101.879 24.556L101.653 24.5904L101.392 24.6246L101.149 24.6418L100.906 24.6593H100.646L100.402 24.6418L100.142 24.6246L99.8118 24.6074L99.5859 24.5732L99.343 24.5387L99.1343 24.4868L98.9087 24.4007L98.7 24.3321L98.4568 24.2116L98.2484 24.108L98.0747 23.9875L97.8836 23.8669L97.7099 23.7292L97.5014 23.5053L97.3625 23.3336L97.2235 23.1611L97.1019 22.9715L96.9977 22.7823L96.9108 22.5759L96.8066 22.231L96.7547 21.9899L96.7374 21.7491L96.7198 21.5252V21.2841L96.7374 21.0431L96.7547 20.819L96.7895 20.5951L96.824 20.3715L96.8935 20.1648L96.963 19.9579L97.0498 19.7688L97.1888 19.5277L97.3104 19.338L97.4493 19.1488L97.6057 18.9939L97.762 18.8389L97.936 18.6837L98.1268 18.5459L98.3353 18.4253L98.5437 18.322L98.7695 18.2189L98.9953 18.1328L99.2212 18.0637L99.4817 18.0123L99.7251 17.9779L99.9681 17.9432L100.229 17.926L100.472 17.9087L100.802 17.926L101.045 17.9432L101.323 17.9779L101.584 17.9951L101.827 18.0465L102.087 18.0812L102.348 18.1328L102.591 18.2017L102.852 18.2708L103.095 18.3395L103.355 18.4081L103.599 18.4945L103.842 18.5806H103.859L104.137 18.6837V16.755L104.05 16.7208L103.859 16.6517L103.807 16.6344L103.564 16.5483L103.304 16.4625L103.06 16.3934L102.747 16.3247L102.504 16.2728L102.244 16.2214L101.983 16.187L101.723 16.1523L101.219 16.1009L100.958 16.0836L100.698 16.0664L100.437 16.0492L100.124 16.0317H99.6207L99.3601 16.0492L99.0996 16.0664L98.7 16.1183L98.4395 16.1523L98.1965 16.2042L97.9531 16.2556L97.7099 16.3247L97.4841 16.4106L97.1717 16.5311L96.9456 16.6175L96.7198 16.738L96.5116 16.8586L96.2855 16.9791L96.0944 17.1169L95.8512 17.306L95.6602 17.4613L95.4864 17.6162L95.2954 17.7882L95.139 17.9779L94.9829 18.167L94.7569 18.4426L94.6182 18.6664L94.4963 18.8733L94.3747 19.0972L94.2879 19.3208L94.201 19.4932L94.1142 19.7343L94.0447 19.9579L93.9926 20.199L93.9405 20.4401L93.8883 20.8362L93.871 21.0773V21.5599L93.8883 21.8694L93.9231 22.1105L93.9752 22.3515L94.0273 22.5926L94.0794 22.8337L94.201 23.1439L94.2879 23.3675L94.3921 23.5914L94.5137 23.7983L94.6353 24.0219L94.809 24.2977L94.9656 24.4868L95.1217 24.6765L95.278 24.8657L95.4691 25.0381L95.7123 25.2445L95.9033 25.3995L96.1118 25.5547L96.3202 25.6753L96.5634 25.8303L96.7895 25.9336L97.0324 26.0367L97.2756 26.1228L97.5014 26.2091L97.7446 26.2777L98.231 26.3811L98.4916 26.4155L98.7521 26.4502L99.0127 26.4846L99.2733 26.5021L99.6728 26.5188L99.9334 26.536H100.454L100.715 26.5188H100.976L101.254 26.4846L101.497 26.4674L101.723 26.4502L101.983 26.4155L102.244 26.3811L102.504 26.3296L102.747 26.2777L103.008 26.2091L103.269 26.14L103.512 26.0713L103.755 26.0022L103.859 25.968L103.877 25.9508L104.154 25.8649L104.172 23.9875L103.911 24.0913L103.859 24.108Z" fill="#7685A9"/>
      <path d="M47.3872 12.7773V7.68016L43.7741 9.71214L40.2826 11.658L37.0167 13.4489L34.0463 15.0504L31.3714 16.4625L28.974 17.6848L26.7855 18.7355L24.8224 19.6137L22.9813 20.3886L21.2269 21.0258L19.4896 21.5938L17.8049 22.076L16.1199 22.472L14.4871 22.8167L12.9408 23.075L11.4819 23.2816L10.1791 23.4194L9.01504 23.488L8.04252 23.5399L7.19111 23.5053L5.90592 23.3675L5.01977 23.1611L4.37705 22.9028L3.85617 22.5584L3.43928 22.1623L3.10899 21.6971L2.91791 21.181L2.84843 20.5778L2.91791 19.8548L3.17872 19.0285L3.59561 18.1328L4.15148 17.2201L4.84631 16.3075L5.62775 15.4292L6.4268 14.6197L7.24347 13.9139L8.12937 13.2251L9.1195 12.4846L10.1444 11.813L11.1345 11.2103L12.1594 10.642L13.219 10.1082L14.2784 9.64326L15.3556 9.21276L16.3805 8.86835L17.3359 8.57561L18.187 8.38619L18.9687 8.26565L19.7504 8.23121L20.5668 8.30009L21.0011 8.35175L20.7753 7.55962L20.3757 6.21645L20.0628 5.26934L19.8199 4.70107L19.6288 4.39111L19.4377 4.20169L19.229 4.06393L18.8992 3.94338L18.3781 3.89172L17.6312 3.92616L16.6931 4.04671L15.6335 4.27057L14.5389 4.58053L13.3925 4.99358L12.281 5.45876L11.2211 5.94092L10.1962 6.47475L9.18899 7.04302L8.16411 7.68016L7.1045 8.38619L6.06226 9.12666L5.14161 9.86712L4.32494 10.5387L3.59561 11.2275L2.88317 11.9508L2.22333 12.7429L1.61535 13.5695L1.07686 14.4132L0.642589 15.3259L0.294933 16.2386L0.103855 17.1682L0.0172424 18.0637L0.0867253 19.0285L0.260191 20.0445L0.538364 21.06L0.902908 22.0246L1.31981 22.9028L1.80643 23.6777L2.37966 24.4354L3.03951 25.124L3.75171 25.7269L4.51602 26.2437L5.36743 26.6566L6.37493 27.0182L7.57327 27.3456L8.8587 27.5692L10.1791 27.7072L11.4819 27.7417L12.7326 27.6725L13.8617 27.5867L14.9387 27.4315L16.0157 27.2423L17.0924 27.0354L18.1002 26.7943L19.0903 26.5532L20.1325 26.2437L21.2093 25.9335L22.2865 25.5891L23.3806 25.2103L24.4752 24.797L25.5696 24.3663L26.6639 23.9016L27.7757 23.3847L28.9569 22.8167L29.6343 22.4548L30.5202 21.9899L31.7362 21.3355L33.5078 20.3886L35.9573 19.0452L39.2056 17.2716L43.0966 15.119L47.3872 12.7773Z" />
    </g>
  </symbol>

  <symbol id="bnp" viewBox="0 0 165 34" fill="#7685A9" xmlns="http://www.w3.org/2000/svg">
    <path d="M33.9519 0H0V34H33.9519V0Z" />
    <path d="M26.4567 8.92794C24.3527 10.1657 23.7216 10.2711 21.4336 11.6406C22.7485 10.1921 23.2219 9.58635 24.0372 8.37488C21.9333 8.48023 18.8826 8.74359 16.6998 9.21764C18.5933 8.19053 22.354 7.08441 24.3527 6.82105C23.8794 6.18898 20.1712 4.16109 19.2508 3.76605C22.1962 4.00308 25.7992 5.1092 27.5612 6.16264C28.245 5.95195 28.9551 5.92562 30.2437 5.82027C29.9281 6.37333 29.9018 6.7157 28.6395 7.53212C28.9814 8.45389 28.1661 13.5894 27.4823 14.9326C27.456 12.8257 27.2719 10.1131 26.4567 8.92794Z" fill="white"/>
    <path d="M11.1244 27.3106C9.91464 26.8629 9.04678 26.3362 8.10001 25.4407C8.3893 24.6507 8.70489 24.0449 9.23087 23.2548C8.25781 23.4129 7.52144 23.5182 6.67987 23.6762C5.9961 22.4648 5.68051 21.306 5.33863 19.6995C5.15454 21.4113 5.07564 22.6228 5.31233 23.9923C4.54966 24.2029 3.99738 24.3873 3.36621 24.677C4.26037 25.2301 4.97044 25.6514 5.9698 26.0992C6.49578 27.2579 7.04806 28.0217 7.96852 28.9171C7.75813 28.1534 7.70553 27.574 7.78443 26.7576C8.91528 27.0999 9.86204 27.2843 11.1244 27.3106Z" fill="white"/>
    <path d="M14.254 10.2711C13.8858 10.7714 13.4387 11.6669 13.3335 12.0883C16.4368 12.5096 18.9352 14.1161 18.9352 14.1161C16.2264 13.6421 14.8063 13.6948 13.7806 13.7738C12.7812 13.8791 12.5708 13.9845 12.5708 13.9845C11.8345 15.591 11.3874 18.3563 11.3874 18.3563C10.8877 17.1711 10.1776 14.7745 10.1776 14.7745C8.81011 15.512 5.65424 18.4616 5.65424 18.4616C7.38996 15.0116 9.15199 13.4314 9.15199 13.4314C8.54712 12.8257 6.96918 12.5096 5.81203 12.457C6.4169 12.2199 7.96854 11.9302 9.15199 11.8776C10.3354 11.8512 11.0455 11.9039 11.0455 11.9039C12.0975 11.0611 13.7017 10.3501 14.254 10.2711Z" fill="white"/>
    <path d="M17.5413 25.1773C16.989 25.9147 16.5156 26.4941 15.9108 27.1789C14.8588 27.4686 14.0435 27.5739 13.0179 27.5739C13.6491 27.89 14.2539 28.1006 14.9114 28.2323C14.2539 28.8117 13.7017 29.2331 13.0705 29.6545C14.1224 29.3911 15.5163 28.9434 16.5682 28.3377C17.1205 28.364 17.6202 28.3377 17.9884 28.2587C17.8832 27.9426 17.8306 27.7056 17.7517 27.3106C18.7247 26.5468 19.4348 25.8621 20.2501 25.0457C19.3822 25.6514 18.6459 26.0991 17.6465 26.5732C17.5939 26.0728 17.5676 25.6777 17.5413 25.1773Z" fill="white"/>
    <path d="M46.7068 12.4043C48.9948 12.4307 49.8364 12.8784 49.8364 14.1425C49.8364 14.4849 49.7312 14.8009 49.5208 15.038C49.0737 15.5647 48.2322 15.828 47.1539 15.7754H47.1013L46.4701 17.4345H47.1013C48.3637 17.4082 49.4682 17.8032 50.0205 18.488C50.2835 18.804 50.415 19.1727 50.415 19.5678C50.415 20.8582 49.2578 21.543 46.9961 21.543C46.6279 21.543 45.9968 21.543 45.6023 21.5167C45.5497 19.7785 45.4971 17.4345 45.4971 16.7235C45.4971 15.907 45.5497 14.0635 45.6023 12.5097C45.8916 12.4307 46.3123 12.4043 46.7068 12.4043ZM42.4727 11.2192C42.5516 12.457 42.6042 15.591 42.6042 16.7235C42.6042 17.7769 42.6042 21.2796 42.4201 22.8071V22.9388H47.8903C50.5728 22.9388 53.4393 22.096 53.4393 19.6995C53.4393 18.1983 52.3611 17.0922 50.3361 16.4864C51.8351 16.0914 52.8345 15.0643 52.8345 13.8792C52.8345 11.9303 50.5991 11.1929 48.4689 11.1402H42.4201L42.4727 11.2192Z" />
    <path d="M66.1154 11.0875H63.4592L63.5644 14.0635C63.617 15.5383 63.6696 17.0395 63.7748 18.5143C63.5907 18.0666 63.4329 17.8296 62.644 16.6445C62.644 16.5918 59.8563 12.3253 58.9095 11.1139L58.8832 11.0875H55.7536V11.1929C55.8588 12.4307 55.8851 15.5383 55.8851 16.6971C55.8851 17.7506 55.8851 21.2533 55.7273 22.7808L55.701 22.9125H58.4624V22.7808C58.3046 19.9101 58.3046 16.9868 58.3046 14.1689C58.4098 14.5112 58.515 14.8009 58.9621 15.4593C58.9884 15.5383 63.7485 22.4648 63.9852 22.8598L64.0115 22.9125H66.2206V22.7808C66.0628 21.2533 66.0365 17.7506 66.0365 16.6971C66.0365 15.5647 66.1154 12.4307 66.1943 11.1929L66.2206 11.0875H66.1154Z" />
    <path d="M73.3476 12.536C74.8992 12.5096 75.9512 12.8257 76.4771 13.4577C76.7138 13.7474 76.8453 14.0898 76.8453 14.5112C76.8453 16.223 74.9255 16.5918 73.3213 16.5918L72.6638 16.5654C72.6638 16.5654 72.506 16.5391 72.4008 16.5391C72.4008 16.144 72.4008 15.6173 72.4008 15.0379C72.4008 14.3005 72.4008 13.4051 72.4271 12.5887C72.6375 12.5623 72.9794 12.536 73.3476 12.536ZM69.2975 11.2192C69.4027 12.457 69.4553 15.5646 69.4553 16.7234C69.4553 17.7769 69.4553 21.2796 69.2975 22.8071V22.9124H72.5849L72.5586 22.7808C72.4534 21.701 72.4008 19.6204 72.3745 18.0139C72.5323 18.0139 73.0057 18.0402 73.0057 18.0402H73.4791C77.7921 18.0402 79.896 16.9078 79.896 14.4849C79.896 11.7459 76.9505 11.1138 74.5047 11.0612H69.3238V11.2192H69.2975Z" />
    <path d="M90.1789 12.536C91.7305 12.5096 92.7825 12.8257 93.3085 13.4577C93.5452 13.7474 93.6767 14.0898 93.6767 14.5112C93.6767 16.223 91.7568 16.5918 90.1789 16.5918L89.5214 16.5654C89.5214 16.5654 89.3373 16.5391 89.2585 16.5391C89.2322 16.144 89.2322 15.6173 89.2322 15.0379C89.2322 14.2742 89.2322 13.4051 89.2585 12.5887C89.4425 12.5623 89.8107 12.536 90.1789 12.536ZM86.1289 11.2192C86.2341 12.457 86.2867 15.5646 86.2867 16.7234C86.2867 17.7769 86.2867 21.2796 86.1026 22.8071V22.9124H89.3899L89.3636 22.7808C89.2585 21.701 89.2059 19.6204 89.2059 18.0139C89.3637 18.0139 89.7844 18.0402 89.7844 18.0402H90.2578C94.5708 18.0402 96.701 16.9078 96.701 14.4849C96.701 11.7459 93.7292 11.1138 91.2835 11.0612H86.1289V11.2192Z" />
    <path d="M101.908 14.5639C102.171 15.117 102.855 16.6971 103.618 18.567C103.486 18.567 103.355 18.567 103.355 18.567L101.908 18.5933C101.908 18.5933 100.409 18.567 100.172 18.567C100.777 17.0922 101.409 15.7227 101.908 14.5639ZM101.093 11.0875H101.04L101.014 11.1402C100.409 12.8257 96.4643 21.4113 95.8332 22.7281L95.7806 22.8861H98.6209L98.6472 22.8071C98.8838 21.9907 99.2257 21.0953 99.5939 20.1208C99.6991 20.1208 101.935 20.0945 101.935 20.0945L103.854 20.1208C103.854 20.1208 104.17 20.1472 104.249 20.1472C104.749 21.4113 105.117 22.3594 105.301 22.8598L105.327 22.9125H108.562L103.328 11.1139H103.276H101.093V11.0875Z" />
    <path d="M109.877 11.2192C109.982 12.457 110.008 15.591 110.008 16.7234C110.008 17.7769 110.008 21.2796 109.824 22.8071V22.9124H113.138L113.112 22.7808C112.927 21.2533 112.927 17.7505 112.927 16.6971C112.927 15.8807 112.954 14.0371 113.033 12.5623C113.296 12.536 113.664 12.5096 113.927 12.5096C115.452 12.4833 116.53 12.7993 117.03 13.4314C117.267 13.7211 117.372 14.0898 117.372 14.4849C117.372 15.8543 116.11 16.5391 114.926 16.5918C114.532 16.6181 114.242 16.5654 114.242 16.5654L114.006 16.5127L114.137 16.7234C115.321 18.4353 117.056 21.4113 117.793 22.8071L117.819 22.9124H121.343L121.264 22.7544C121.106 22.5437 118.818 19.1727 117.845 17.7242C117.845 17.7242 117.793 17.6715 117.767 17.6452C119.581 17.0921 120.449 16.0914 120.449 14.5375C120.449 11.8249 117.504 11.1665 115.031 11.1138H109.903L109.877 11.2192Z" />
    <path d="M125.998 11.0875H122.868L122.895 11.1929C122.974 12.4307 123.053 15.5383 123.053 16.6971C123.053 17.7506 123.026 21.2533 122.895 22.7808V22.9125H126.156L126.13 22.7808C125.998 21.2533 125.972 17.7506 125.972 16.6971C125.972 15.5647 126.051 12.4307 126.13 11.1929V11.0875H125.998Z" />
    <path d="M133.309 12.4043C135.623 12.4307 136.439 12.8784 136.439 14.1425C136.439 14.4849 136.333 14.8009 136.123 15.038C135.702 15.5647 134.808 15.828 133.73 15.7754H133.677L133.046 17.4345H133.677C134.94 17.4082 136.018 17.8032 136.596 18.488C136.859 18.804 136.991 19.1727 136.991 19.5678C136.991 20.8582 135.834 21.543 133.572 21.543C133.204 21.543 132.599 21.543 132.205 21.5167C132.099 19.7785 132.099 17.4345 132.099 16.7235C132.099 15.907 132.126 14.0635 132.205 12.5097C132.494 12.4307 132.915 12.4043 133.309 12.4043ZM129.075 11.2192C129.18 12.457 129.233 15.591 129.233 16.7235C129.233 17.7769 129.233 21.2796 129.075 22.8071L129.049 22.9388H134.545C137.228 22.9388 140.094 22.096 140.094 19.6995C140.094 18.1983 139.016 17.0922 136.965 16.4864C138.464 16.0914 139.489 15.0643 139.489 13.8792C139.489 11.9303 137.254 11.1929 135.15 11.1402H129.101L129.075 11.2192Z" />
    <path d="M146.774 14.5639C147.037 15.117 147.721 16.6971 148.484 18.567C148.378 18.567 148.221 18.567 148.221 18.567L146.774 18.5933C146.774 18.5933 145.275 18.567 145.038 18.567C145.67 17.0658 146.274 15.7227 146.774 14.5639ZM148.142 11.0875H145.933L145.906 11.1402C145.249 12.9311 141.094 21.9907 140.752 22.7281L140.699 22.9125H143.513L143.539 22.8335C143.776 22.017 144.092 21.1216 144.46 20.1208C144.539 20.1208 146.774 20.0945 146.774 20.0945L148.694 20.1208C148.694 20.1208 149.036 20.1208 149.115 20.1208C149.614 21.385 150.009 22.3594 150.167 22.8335L150.193 22.9125H153.454L148.221 11.1139H148.142V11.0875Z" />
    <path d="M154.348 14.1425C154.348 16.2231 156.426 17.0395 158.267 17.8032C159.687 18.3826 161.186 18.962 161.186 19.9628C161.186 20.2525 161.133 20.5159 160.949 20.7002C160.607 21.0953 159.897 21.2796 158.793 21.2269C157.688 21.1743 156.452 20.8319 155.085 20.1998L154.532 19.9365V20.3842V22.4911L154.901 22.5964L155.164 22.6491C155.847 22.8071 157.162 23.1232 158.503 23.1232C161.975 23.1232 164.026 21.7273 164.026 19.4624C164.026 17.3029 161.896 16.4864 160.003 15.7227C158.609 15.1696 157.189 14.5902 157.189 13.6685C157.189 13.4051 157.189 12.6414 158.977 12.6414C160.292 12.6414 161.58 13.1681 162.317 13.4578L162.974 13.7475V13.2998V11.1665L162.317 11.0348C161.633 10.9032 160.529 10.6661 159.371 10.6661C156.347 10.6661 154.348 12.0883 154.348 14.1425Z" />
  </symbol>

  <symbol id="anz" viewBox="0 0 102 31" fill="#7685A9" xmlns="http://www.w3.org/2000/svg">
    <g clip-path="url(#clip0)">
      <path d="M84.7764 9.06803C86.2903 9.06803 88.013 10.3334 88.013 12.0813C88.013 13.0659 87.6871 13.8265 87.2077 14.5213C86.9001 14.964 86.6656 15.4735 86.5691 15.8429C86.4648 16.2593 86.2367 17.268 87.5173 17.2849C88.3505 17.3051 90.4007 16.6068 92.057 14.6835C93.3313 13.1388 94.0887 11.1796 94.0887 9.04275C94.0887 4.04943 89.9244 0 84.7764 0C79.6269 0 75.4553 4.04943 75.4553 9.04275C75.4553 11.1796 76.2117 13.1388 77.4872 14.6835C79.1458 16.6068 81.1948 17.3048 82.0268 17.2849C83.3075 17.268 83.0756 16.2593 82.9764 15.8429C82.8821 15.4737 82.6467 14.964 82.3368 14.5213C81.8584 13.8265 81.5312 13.0659 81.5312 12.0813C81.535 10.3334 83.2555 9.06803 84.7764 9.06803ZM101.249 18.2075C100.867 17.9032 100.198 17.4589 98.8228 17.255C96.9155 16.9804 95.2131 17.4111 94.1881 17.8028C92.8404 18.3164 91.1806 19.4839 90.034 21.0045C88.824 22.6115 88.1981 25.037 88.798 27.5656C88.9677 28.2773 89.1515 28.6781 89.4254 29.1773C89.7835 29.8554 90.7282 30.8019 91.5552 30.9728C92.2084 31.1028 92.7191 30.7411 92.9696 30.4677C94.6353 28.6094 100.949 21.4117 101.633 20.4926C102.305 19.5791 101.866 18.7018 101.249 18.2077V18.2075ZM75.3612 17.8028C74.3362 17.4111 72.6353 16.9806 70.7275 17.255C69.3529 17.4592 68.677 17.9032 68.3003 18.2075C67.6828 18.7017 67.2402 19.5794 67.916 20.4923C68.5965 21.4117 74.9089 28.6091 76.5748 30.4674C76.8253 30.7411 77.3361 31.1031 77.9905 30.9728C78.8224 30.8019 79.7633 29.8551 80.1203 29.177C80.3981 28.6781 80.5778 28.2771 80.7523 27.5656C81.3512 25.037 80.7154 22.6113 79.5168 21.0043C78.3687 19.4839 76.7063 18.3164 75.3612 17.8028ZM64.2528 24.3854H56.4714L59.6647 20.3362H51.0194L47.939 24.2352C46.7873 25.7846 46.676 27.3484 46.676 28.4336V29.0472C46.676 29.7565 47.1322 30.142 47.8088 30.142H64.2528C64.9162 30.142 65.3634 29.7898 65.3634 29.0688V25.4626C65.3634 24.7366 64.9162 24.3854 64.2528 24.3854ZM19.9561 10.0806C19.8323 9.40229 19.355 9.06803 18.7341 9.06803H16.5348C14.2465 9.06803 12.2268 10.237 11.0952 12.0025C11.0952 12.0025 8.99654 15.2342 6.64478 18.8716H21.5752L19.9561 10.0806ZM44.5485 10.1415C44.5485 9.42045 44.1022 9.06803 43.4343 9.06803H38.9576C38.2944 9.06803 37.8469 9.42045 37.8469 10.1415V18.312L33.6037 10.9664C32.7555 9.61262 31.3278 9.09822 29.6616 9.06827H26.3529C25.6959 9.06827 25.2468 9.42045 25.2468 10.1417V18.8762H30.8082L31.6635 20.3365H25.2471V29.069C25.2471 29.7898 25.6959 30.1481 26.3532 30.1481H30.8406C31.5073 30.1481 31.9489 29.7898 31.9489 29.069L31.9464 20.8475L36.2294 28.2525C37.0686 29.5989 38.5016 30.1135 40.1566 30.1481H43.4343C44.1022 30.1481 44.5485 29.7898 44.5485 29.069V20.3365H39.0269L38.1742 18.8762H44.5485V10.1417V10.1415ZM21.8405 20.3362H14.4669C14.6555 21.3295 16.0156 28.7144 16.0959 29.1441C16.2213 29.809 16.6515 30.1479 17.2823 30.1479H22.3553C22.8202 30.1479 23.0544 30.0073 23.2728 29.7518C23.4214 29.5739 23.4833 29.3039 23.414 28.9088L21.8408 20.3362H21.8405ZM0.192467 28.8266C-0.0086099 29.1571 -0.0086097 29.5047 0.114228 29.7302C0.255671 29.994 0.570411 30.1481 0.910127 30.1481H6.17866C6.84331 30.1481 7.43711 29.8031 7.76791 29.2872L13.5821 20.3362H5.69521C2.98767 24.5158 0.260513 28.7301 0.192467 28.8266ZM47.9563 14.8175H55.3695L52.1726 18.8713H60.8154L63.9676 14.8784C64.9411 13.6439 65.1664 12.5388 65.1664 11.5608V10.17C65.1664 9.45726 64.7189 9.06803 64.0374 9.06803H47.9563C47.293 9.06803 46.8493 9.42045 46.8493 10.1415V13.7477C46.8493 14.4668 47.293 14.8175 47.9563 14.8175Z"/>
    </g>
  </symbol>

  <symbol id="ten-shadow-1" viewBox="0 0 324 300" fill="none" xmlns="http://www.w3.org/2000/svg">
    <path d="M39.0837 48.462H1V1H105.421V298.598H40.0837V49.462V48.462H39.0837ZM257.663 238.36V61.2386C257.663 57.1385 256.553 53.8852 254.164 51.6725C251.79 49.4733 248.323 48.462 243.949 48.462H226.526C222.152 48.462 218.686 49.4733 216.311 51.6725C213.923 53.8852 212.812 57.1385 212.812 61.2386V238.36C212.812 242.46 213.923 245.713 216.311 247.926C218.686 250.125 222.152 251.136 226.526 251.136H243.949C248.323 251.136 251.79 250.125 254.164 247.926C256.553 245.713 257.663 242.46 257.663 238.36ZM323 51.8173V247.31C323 264.55 318.115 277.307 308.506 285.776C298.872 294.266 284.32 298.598 264.668 298.598H206.278C186.468 298.598 171.796 294.265 162.084 285.773C152.398 277.304 147.475 264.548 147.475 247.31V51.8173C147.475 34.7393 152.396 22.1016 162.081 13.7101C171.793 5.29481 186.466 1 206.278 1H264.668C284.322 1 298.876 5.29409 308.509 13.7075C318.117 22.0984 323 34.7369 323 51.8173Z" stroke="#3C71E9" stroke-opacity="0.3" stroke-width="2"/>
  </symbol>

  <symbol id="ten-shadow-2" viewBox="0 0 324 300" fill="none" xmlns="http://www.w3.org/2000/svg">
    <path d="M39.0837 48.462H1V1H105.421V298.598H40.0837V49.462V48.462H39.0837ZM257.663 238.36V61.2386C257.663 57.1385 256.553 53.8852 254.164 51.6725C251.79 49.4733 248.323 48.462 243.949 48.462H226.526C222.152 48.462 218.686 49.4733 216.311 51.6725C213.923 53.8852 212.812 57.1385 212.812 61.2386V238.36C212.812 242.46 213.923 245.713 216.311 247.926C218.686 250.125 222.152 251.136 226.526 251.136H243.949C248.323 251.136 251.79 250.125 254.164 247.926C256.553 245.713 257.663 242.46 257.663 238.36ZM323 51.8173V247.31C323 264.55 318.115 277.307 308.506 285.776C298.872 294.266 284.32 298.598 264.668 298.598H206.278C186.468 298.598 171.796 294.265 162.084 285.773C152.398 277.304 147.475 264.548 147.475 247.31V51.8173C147.475 34.7393 152.396 22.1016 162.081 13.7101C171.793 5.29481 186.466 1 206.278 1H264.668C284.322 1 298.876 5.29409 308.509 13.7075C318.117 22.0984 323 34.7369 323 51.8173Z" stroke="#3C71E9" stroke-opacity="0.1" stroke-width="2"/>
  </symbol>
</svg>
