<svg width="478" height="442" viewBox="0 0 478 442" fill="none" xmlns="http://www.w3.org/2000/svg">
<defs>
    <filter id="f1" x="0" y="0" width="200%" height="200%">
      <feOffset result="offOut" in="SourceGraphic" dx="0" dy="30" />
      <feBlend in="SourceGraphic" in2="offOut" mode="normal" />
    </filter>
  </defs>
<path filter="url(#f1)" d="M57.6605 71.9717H1V1H156.003V441H58.6605V72.9717V71.9717H57.6605ZM379.657 351.654V90.3459C379.657 84.3799 378.044 79.7272 374.648 76.5816C371.266 73.4495 366.289 71.9717 359.9 71.9717H334.196C327.808 71.9717 322.83 73.4495 319.449 76.5816C316.053 79.7272 314.439 84.3799 314.439 90.3459V351.654C314.439 357.62 316.053 362.273 319.449 365.418C322.83 368.551 327.808 370.028 334.196 370.028H359.9C366.289 370.028 371.266 368.551 374.648 365.418C378.044 362.273 379.657 357.62 379.657 351.654ZM477 76.4465V364.858C477 390.383 469.765 409.354 455.456 421.964C441.122 434.596 419.52 441 390.467 441H304.324C275.038 441 253.261 434.596 238.812 421.962C224.388 409.35 217.096 390.381 217.096 364.858V76.4465C217.096 51.1588 224.386 32.3638 238.808 19.8674C253.258 7.34724 275.037 1 304.324 1H390.467C419.521 1 441.125 7.34653 455.459 19.8648C469.767 32.3605 477 51.1564 477 76.4465Z" stroke="#3C71E9" stroke-opacity="0.3" stroke-width="2"/>
</svg>
