<svg viewBox="0 0 40 40" fill="none" xmlns="http://www.w3.org/2000/svg">
<path fill-rule="evenodd" clip-rule="evenodd" d="M20 0C8.97266 0 0 8.97266 0 20C0 31.0273 8.97266 40 20 40C31.0273 40 40 31.0273 40 20C40 8.97266 31.0273 0 20 0ZM37.9493 19H27.9821C27.8538 12.4986 26.4808 5.90856 23.9817 2.45873C31.679 4.2058 37.5006 10.8917 37.9493 19ZM14.0186 21C14.2112 31.0639 17.2531 38 20 38C22.7469 38 25.7888 31.0639 25.9814 21H14.0186ZM14.0186 19C14.2112 8.93613 17.2531 1.99998 20 1.99998C22.7469 1.99998 25.7888 8.93613 25.9814 19H14.0186ZM12.018 19C12.1462 12.4986 13.5192 5.90856 16.0183 2.45873C8.32105 4.2058 2.4994 10.8917 2.05066 19H12.018ZM2.05066 21H12.018C12.1462 27.5014 13.5192 34.0915 16.0183 37.5413C8.32105 35.7942 2.4994 29.1083 2.05066 21ZM27.9821 21C27.8538 27.5014 26.4808 34.0915 23.9817 37.5413C31.679 35.7942 37.5006 29.1083 37.9493 21H27.9821Z" fill="#3C71E9"/>
</svg>
