<svg width="42" height="30" viewBox="0 0 42 30" fill="none" xmlns="http://www.w3.org/2000/svg">
<path fill-rule="evenodd" clip-rule="evenodd" d="M41 1V2H25.5V7H26.1934L28.6953 9.27734C36.04 9.40234 41 16.5361 41 18.9189C41 21.3574 38.897 23.9902 35.5 23.9902H34V28H37.5C38.8784 28 40 26.8789 40 25.5V25H41V25.5C41 27.4297 39.4297 29 37.5 29H17.5V28H24V23.9902H23.5C18.6533 23.9902 14.8691 15.6475 14.1528 13.958L4.74951 13.0273L2.76758 16H1V5H2.80908L4.80908 9L21.3252 8.99023L23.8252 7H24.5V2H9V1H41ZM33 28V23.9902H25V28H33ZM40 18.9189C40 18.9312 39.9981 18.9435 39.9961 18.9558C39.9943 18.9673 39.9925 18.9788 39.9923 18.9902H32.9902C30.79 18.9902 29 17.2002 29 15V10.3053C35.4602 10.621 40 16.8828 40 18.9189ZM28 15V9.99628L25.8066 8H24.1748L21.6748 9.99023L4.19092 10L2.19092 6H2V15H2.23242L4.25049 11.9727L14.8516 13.0225L14.9644 13.3047C15.0029 13.4014 18.896 22.9902 23.5 22.9902H35.5C37.7718 22.9902 39.3176 21.5752 39.8133 19.9902H32.9902C30.2388 19.9902 28 17.752 28 15Z" fill="#3C71E9"/>
<path d="M41 2V2.5H41.5V2H41ZM41 1H41.5V0.5H41V1ZM25.5 2V1.5H25V2H25.5ZM25.5 7H25V7.5H25.5V7ZM26.1934 7L26.5299 6.63024L26.3868 6.5H26.1934V7ZM28.6953 9.27734L28.3587 9.6471L28.4982 9.77406L28.6868 9.77727L28.6953 9.27734ZM34 23.9902V23.4902H33.5V23.9902H34ZM34 28H33.5V28.5H34V28ZM40 25V24.5H39.5V25H40ZM41 25H41.5V24.5H41V25ZM17.5 29H17V29.5H17.5V29ZM17.5 28V27.5H17V28H17.5ZM24 28V28.5H24.5V28H24ZM24 23.9902H24.5V23.4902H24V23.9902ZM14.1528 13.958L14.6132 13.7628L14.4973 13.4897L14.2021 13.4604L14.1528 13.958ZM4.74951 13.0273L4.79876 12.5298L4.50002 12.5002L4.3335 12.75L4.74951 13.0273ZM2.76758 16V16.5H3.03516L3.18359 16.2774L2.76758 16ZM1 16H0.5V16.5H1V16ZM1 5V4.5H0.5V5H1ZM2.80908 5L3.2563 4.77639L3.1181 4.5H2.80908V5ZM4.80908 9L4.36187 9.22361L4.50016 9.50018L4.80938 9.5L4.80908 9ZM21.3252 8.99023L21.3255 9.49023L21.5 9.49013L21.6366 9.38141L21.3252 8.99023ZM23.8252 7V6.5H23.6505L23.5138 6.60882L23.8252 7ZM24.5 7V7.5H25V7H24.5ZM24.5 2H25V1.5H24.5V2ZM9 2H8.5V2.5H9V2ZM9 1V0.5H8.5V1H9ZM33 23.9902H33.5V23.4902H33V23.9902ZM33 28V28.5H33.5V28H33ZM25 23.9902V23.4902H24.5V23.9902H25ZM25 28H24.5V28.5H25V28ZM39.9961 18.9558L40.4901 19.0332L40.4901 19.0331L39.9961 18.9558ZM39.9923 18.9902V19.4902H40.4821L40.4922 19.0005L39.9923 18.9902ZM29 10.3053L29.0244 9.80589L28.5 9.78026V10.3053H29ZM28 9.99628H28.5V9.77526L28.3365 9.6265L28 9.99628ZM25.8066 8L26.1432 7.63022L26.0001 7.5H25.8066V8ZM24.1748 8V7.5H24.0001L23.8634 7.60882L24.1748 8ZM21.6748 9.99023L21.6751 10.4902L21.8496 10.4901L21.9862 10.3814L21.6748 9.99023ZM4.19092 10L3.7437 10.2236L3.88199 10.5002L4.1912 10.5L4.19092 10ZM2.19092 6L2.63813 5.77639L2.49993 5.5H2.19092V6ZM2 6V5.5H1.5V6H2ZM2 15H1.5V15.5H2V15ZM2.23242 15V15.5H2.50003L2.64846 15.2773L2.23242 15ZM4.25049 11.9727L4.29976 11.4751L4.00099 11.4455L3.83445 11.6953L4.25049 11.9727ZM14.8516 13.0225L15.3159 12.8369L15.2031 12.5548L14.9008 12.5249L14.8516 13.0225ZM14.9644 13.3047L15.4288 13.1194L15.4286 13.1191L14.9644 13.3047ZM39.8133 19.9902L40.2905 20.1395L40.4935 19.4902H39.8133V19.9902ZM41.5 2V1H40.5V2H41.5ZM25.5 2.5H41V1.5H25.5V2.5ZM26 7V2H25V7H26ZM26.1934 6.5H25.5V7.5H26.1934V6.5ZM29.0319 8.90758L26.5299 6.63024L25.8568 7.36976L28.3587 9.6471L29.0319 8.90758ZM41.5 18.9189C41.5 18.1892 41.1357 17.2027 40.5434 16.1751C39.9398 15.1278 39.0613 13.9723 37.9504 12.8929C35.7319 10.7373 32.5406 8.84271 28.7038 8.77742L28.6868 9.77727C32.1947 9.83697 35.1558 11.5718 37.2535 13.6101C38.3006 14.6275 39.1212 15.7101 39.6771 16.6745C40.2443 17.6585 40.5 18.4573 40.5 18.9189H41.5ZM35.5 24.4902C39.1793 24.4902 41.5 21.6273 41.5 18.9189H40.5C40.5 21.0875 38.6146 23.4902 35.5 23.4902V24.4902ZM34 24.4902H35.5V23.4902H34V24.4902ZM34.5 28V23.9902H33.5V28H34.5ZM37.5 27.5H34V28.5H37.5V27.5ZM39.5 25.5C39.5 26.6027 38.6023 27.5 37.5 27.5V28.5C39.1545 28.5 40.5 27.1551 40.5 25.5H39.5ZM39.5 25V25.5H40.5V25H39.5ZM41 24.5H40V25.5H41V24.5ZM41.5 25.5V25H40.5V25.5H41.5ZM37.5 29.5C39.7058 29.5 41.5 27.7058 41.5 25.5H40.5C40.5 27.1535 39.1535 28.5 37.5 28.5V29.5ZM17.5 29.5H37.5V28.5H17.5V29.5ZM17 28V29H18V28H17ZM24 27.5H17.5V28.5H24V27.5ZM23.5 23.9902V28H24.5V23.9902H23.5ZM23.5 24.4902H24V23.4902H23.5V24.4902ZM13.6925 14.1532C14.0559 15.0102 15.1978 17.5574 16.8707 19.8984C17.7071 21.0688 18.6896 22.2067 19.79 23.0561C20.8901 23.9052 22.1405 24.4902 23.5 24.4902V23.4902C22.4361 23.4902 21.396 23.0324 20.401 22.2645C19.4065 21.4968 18.4894 20.4434 17.6843 19.317C16.0744 17.0642 14.9661 14.5953 14.6132 13.7628L13.6925 14.1532ZM4.70027 13.5249L14.1036 14.4556L14.2021 13.4604L4.79876 12.5298L4.70027 13.5249ZM3.18359 16.2774L5.16553 13.3047L4.3335 12.75L2.35156 15.7226L3.18359 16.2774ZM1 16.5H2.76758V15.5H1V16.5ZM0.5 5V16H1.5V5H0.5ZM2.80908 4.5H1V5.5H2.80908V4.5ZM5.2563 8.77639L3.2563 4.77639L2.36187 5.22361L4.36187 9.22361L5.2563 8.77639ZM21.3249 8.49023L4.80879 8.5L4.80938 9.5L21.3255 9.49023L21.3249 8.49023ZM23.5138 6.60882L21.0138 8.59906L21.6366 9.38141L24.1366 7.39118L23.5138 6.60882ZM24.5 6.5H23.8252V7.5H24.5V6.5ZM24 2V7H25V2H24ZM9 2.5H24.5V1.5H9V2.5ZM8.5 1V2H9.5V1H8.5ZM41 0.5H9V1.5H41V0.5ZM32.5 23.9902V28H33.5V23.9902H32.5ZM25 24.4902H33V23.4902H25V24.4902ZM25.5 28V23.9902H24.5V28H25.5ZM33 27.5H25V28.5H33V27.5ZM40.4901 19.0331C40.491 19.0279 40.5 18.9768 40.5 18.9189H39.5C39.5 18.8994 39.5015 18.885 39.5022 18.879C39.5024 18.8773 39.5026 18.8761 39.5027 18.8752C39.5028 18.8744 39.5029 18.8739 39.5029 18.8739C39.5029 18.8739 39.5028 18.8742 39.5027 18.875C39.5026 18.8759 39.5024 18.8768 39.5022 18.8785L40.4901 19.0331ZM40.4922 19.0005C40.4919 19.017 40.4905 19.0291 40.4899 19.034C40.4896 19.0365 40.4894 19.038 40.4894 19.0377C40.4895 19.0373 40.4896 19.0365 40.4901 19.0332L39.5022 18.8784C39.5013 18.8839 39.4935 18.929 39.4924 18.9799L40.4922 19.0005ZM32.9902 19.4902H39.9923V18.4902H32.9902V19.4902ZM28.5 15C28.5 17.4763 30.5139 19.4902 32.9902 19.4902V18.4902C31.0662 18.4902 29.5 16.9241 29.5 15H28.5ZM28.5 10.3053V15H29.5V10.3053H28.5ZM40.5 18.9189C40.5 18.2687 40.1559 17.3978 39.6186 16.5014C39.0678 15.5827 38.2699 14.5646 37.2683 13.6058C35.2693 11.6922 32.4111 9.97141 29.0244 9.80589L28.9756 10.8047C32.0491 10.9549 34.6909 12.5228 36.5768 14.3282C37.5177 15.2288 38.2585 16.1776 38.7609 17.0156C39.2766 17.8758 39.5 18.5511 39.5 18.9189H40.5ZM27.5 9.99628V15H28.5V9.99628H27.5ZM25.4701 8.36978L27.6635 10.3661L28.3365 9.6265L26.1432 7.63022L25.4701 8.36978ZM24.1748 8.5H25.8066V7.5H24.1748V8.5ZM21.9862 10.3814L24.4862 8.39118L23.8634 7.60882L21.3634 9.59906L21.9862 10.3814ZM4.1912 10.5L21.6751 10.4902L21.6745 9.49023L4.19064 9.5L4.1912 10.5ZM1.7437 6.22361L3.7437 10.2236L4.63813 9.77639L2.63813 5.77639L1.7437 6.22361ZM2 6.5H2.19092V5.5H2V6.5ZM2.5 15V6H1.5V15H2.5ZM2.23242 14.5H2V15.5H2.23242V14.5ZM3.83445 11.6953L1.81639 14.7227L2.64846 15.2773L4.66652 12.25L3.83445 11.6953ZM14.9008 12.5249L4.29976 11.4751L4.20122 12.4702L14.8023 13.52L14.9008 12.5249ZM15.4286 13.1191L15.3159 12.8369L14.3873 13.208L14.5001 13.4902L15.4286 13.1191ZM23.5 22.4902C22.5246 22.4902 21.5326 21.9799 20.5616 21.1168C19.5962 20.2586 18.7051 19.0987 17.9404 17.9128C17.1779 16.7303 16.5535 15.5417 16.1168 14.6407C15.8987 14.1909 15.7282 13.8142 15.6112 13.5477C15.5527 13.4145 15.5077 13.3089 15.4769 13.2356C15.4615 13.199 15.4497 13.1705 15.4415 13.1506C15.4374 13.1407 15.4343 13.133 15.4321 13.1275C15.4297 13.1217 15.4287 13.1192 15.4288 13.1194L14.5 13.49C14.5242 13.5508 15.521 16.0061 17.0999 18.4547C17.8888 19.6781 18.8366 20.9214 19.8972 21.8642C20.9522 22.8019 22.1734 23.4902 23.5 23.4902V22.4902ZM35.5 22.4902H23.5V23.4902H35.5V22.4902ZM39.3361 19.841C38.9027 21.2267 37.5434 22.4902 35.5 22.4902V23.4902C38.0002 23.4902 39.7325 21.9236 40.2905 20.1395L39.3361 19.841ZM32.9902 20.4902H39.8133V19.4902H32.9902V20.4902ZM27.5 15C27.5 18.0281 29.9627 20.4902 32.9902 20.4902V19.4902C30.5149 19.4902 28.5 17.4758 28.5 15H27.5Z" fill="#3C71E9"/>
</svg>
