<svg width="125" height="643" viewBox="0 0 125 643" fill="none" xmlns="http://www.w3.org/2000/svg">
<path d="M99.15 597.122H76.725C75.035 597.122 73.865 597.512 73.215 598.292C72.435 599.072 72.045 600.437 72.045 602.387V619.547C72.045 634.887 64.765 642.557 50.205 642.557H21.93C7.62999 642.557 0.479993 634.367 0.479993 617.987V594.197C0.479993 577.817 7.62999 569.627 21.93 569.627H38.115L38.115 597.512H25.83C22.58 597.512 20.955 599.267 20.955 602.777V609.407C20.955 612.917 22.58 614.672 25.83 614.672H47.67C49.36 614.672 50.595 614.282 51.375 613.502C52.025 612.722 52.35 611.357 52.35 609.407V592.637C52.35 584.317 54.17 578.337 57.81 574.697C61.32 571.057 66.585 569.237 73.605 569.237H102.855C117.285 569.237 124.5 577.427 124.5 593.807V617.402C124.5 633.912 117.285 642.167 102.855 642.167H86.865V614.282H99.15C102.4 614.282 104.025 612.527 104.025 609.017V602.387C104.025 598.877 102.4 597.122 99.15 597.122ZM104.025 526.068V486.288H124.5L124.5 553.953H0.479993V487.848H20.955L20.955 526.068H51.18V493.503H71.655V526.068H104.025ZM43.965 400.842V428.922H24.465C21.215 428.922 19.59 430.612 19.59 433.992V441.987C19.59 445.497 21.215 447.252 24.465 447.252H100.515C102.335 447.252 103.635 446.862 104.415 446.082C105.065 445.302 105.39 443.937 105.39 441.987V433.992C105.39 432.172 105.065 430.872 104.415 430.092C103.635 429.312 102.335 428.922 100.515 428.922H81.6V400.842H103.05C117.35 400.842 124.5 409.097 124.5 425.608V450.567C124.5 466.947 117.35 475.137 103.05 475.137H21.93C7.62999 475.137 0.479993 466.947 0.479993 450.567V425.608C0.479993 409.097 7.62999 400.842 21.93 400.842H43.965ZM0.479993 338.989V311.104H102.855C117.285 311.104 124.5 319.359 124.5 335.869V361.999C124.5 378.379 117.285 386.569 102.855 386.569H0.479993L0.479993 358.684H99.15C102.4 358.684 104.025 356.994 104.025 353.614V344.254C104.025 340.744 102.4 338.989 99.15 338.989H0.479993ZM78.09 266.136H124.5V293.826H0.479993L0.479993 242.736C0.479993 226.356 7.62999 218.166 21.93 218.166H56.64C68.08 218.166 74.97 223.366 77.31 233.766L124.5 211.926V241.761L78.09 261.261V266.136ZM20.955 266.136H58.395V251.121C58.395 249.301 58.07 248.001 57.42 247.221C56.64 246.441 55.405 246.051 53.715 246.051H25.83C22.58 246.051 20.955 247.741 20.955 251.121V266.136ZM0.479993 201.834V174.144H124.5V201.834H0.479993ZM0.479993 90.4345H20.955L20.955 113.249H124.5V141.134H20.955L20.955 163.754H0.479993L0.479993 90.4345ZM124.5 30.0348V57.9198H84.33L0.479993 89.1198V60.6498L58.785 44.0748L0.479993 28.6698L0.479993 0.199759L84.525 30.0348H124.5Z" fill="#3C71E9"/>
</svg>
