<svg width="324" height="300" viewBox="0 0 324 300" fill="none" xmlns="http://www.w3.org/2000/svg">
<path d="M39.0837 48.462H1V1H105.421V298.598H40.0837V49.462V48.462H39.0837ZM257.663 238.36V61.2386C257.663 57.1385 256.553 53.8852 254.164 51.6725C251.79 49.4733 248.323 48.462 243.949 48.462H226.526C222.152 48.462 218.686 49.4733 216.311 51.6725C213.923 53.8852 212.812 57.1385 212.812 61.2386V238.36C212.812 242.46 213.923 245.713 216.311 247.926C218.686 250.125 222.152 251.136 226.526 251.136H243.949C248.323 251.136 251.79 250.125 254.164 247.926C256.553 245.713 257.663 242.46 257.663 238.36ZM323 51.8173V247.31C323 264.55 318.115 277.307 308.506 285.776C298.872 294.266 284.32 298.598 264.668 298.598H206.278C186.468 298.598 171.796 294.265 162.084 285.773C152.398 277.304 147.475 264.548 147.475 247.31V51.8173C147.475 34.7393 152.396 22.1016 162.081 13.7101C171.793 5.29481 186.466 1 206.278 1H264.668C284.322 1 298.876 5.29409 308.509 13.7075C318.117 22.0984 323 34.7369 323 51.8173Z" stroke="#3C71E9" stroke-opacity="0.3" stroke-width="2"/>
</svg>
